M48
;DRILL file {KiCad (5.0.0-3-g5ebb6b6)} date Tuesday, May 14, 2019 at 01:45:30 PM
;FORMAT={-:-/ absolute / inch / decimal}
FMAT,2
INCH,TZ
T1C0.0197
T2C0.0394
T3C0.1260
%
G90
G05
M72
T1
X8.3701Y-0.9843
X8.3978Y-0.9174
X8.3978Y-1.0511
X8.4646Y-0.8898
X8.4646Y-1.0787
X8.5314Y-0.9174
X8.5314Y-1.0511
X8.5591Y-0.9843
X4.8268Y-4.5276
X4.8544Y-4.4607
X4.8544Y-4.5944
X4.9213Y-4.4331
X4.9213Y-4.622
X4.9881Y-4.4607
X4.9881Y-4.5944
X5.0157Y-4.5276
X8.3701Y-4.5276
X8.3978Y-4.4607
X8.3978Y-4.5944
X8.4646Y-4.4331
X8.4646Y-4.622
X8.5314Y-4.4607
X8.5314Y-4.5944
X8.5591Y-4.5276
X4.8268Y-0.9843
X4.8544Y-0.9174
X4.8544Y-1.0511
X4.9213Y-0.8898
X4.9213Y-1.0787
X4.9881Y-0.9174
X4.9881Y-1.0511
X5.0157Y-0.9843
T2
X7.7429Y-1.2059
X7.7429Y-1.3059
X7.7429Y-1.4059
X7.7429Y-1.5059
X7.7429Y-1.6059
X7.7429Y-1.7059
X7.7429Y-1.8059
X7.7429Y-1.9059
X7.7429Y-2.0059
X7.7429Y-2.1059
X7.7429Y-2.2059
X7.7429Y-2.3059
X7.7429Y-2.4059
X7.7429Y-2.5059
X7.7429Y-2.6059
X7.7429Y-2.7059
X7.7429Y-2.8059
X7.7429Y-2.9059
X7.7429Y-3.0059
X7.7429Y-3.1059
X7.7429Y-3.2059
X7.7429Y-3.3059
X7.7429Y-3.4059
X7.7429Y-3.5059
X7.7429Y-3.6059
X7.7429Y-3.7059
X7.7429Y-3.8059
X7.7429Y-3.9059
X7.7429Y-4.0059
X7.7429Y-4.1059
X7.7429Y-4.2059
X7.7429Y-4.3059
X7.8429Y-1.2059
X7.8429Y-1.3059
X7.8429Y-1.4059
X7.8429Y-1.5059
X7.8429Y-1.6059
X7.8429Y-1.7059
X7.8429Y-1.8059
X7.8429Y-1.9059
X7.8429Y-2.0059
X7.8429Y-2.1059
X7.8429Y-2.2059
X7.8429Y-2.3059
X7.8429Y-2.4059
X7.8429Y-2.5059
X7.8429Y-2.6059
X7.8429Y-2.7059
X7.8429Y-2.8059
X7.8429Y-2.9059
X7.8429Y-3.0059
X7.8429Y-3.1059
X7.8429Y-3.2059
X7.8429Y-3.3059
X7.8429Y-3.4059
X7.8429Y-3.5059
X7.8429Y-3.6059
X7.8429Y-3.7059
X7.8429Y-3.8059
X7.8429Y-3.9059
X7.8429Y-4.0059
X7.8429Y-4.1059
X7.8429Y-4.2059
X7.8429Y-4.3059
X7.9429Y-1.2059
X7.9429Y-1.3059
X7.9429Y-1.4059
X7.9429Y-1.5059
X7.9429Y-1.6059
X7.9429Y-1.7059
X7.9429Y-1.8059
X7.9429Y-1.9059
X7.9429Y-2.0059
X7.9429Y-2.1059
X7.9429Y-2.2059
X7.9429Y-2.3059
X7.9429Y-2.4059
X7.9429Y-2.5059
X7.9429Y-2.6059
X7.9429Y-2.7059
X7.9429Y-2.8059
X7.9429Y-2.9059
X7.9429Y-3.0059
X7.9429Y-3.1059
X7.9429Y-3.2059
X7.9429Y-3.3059
X7.9429Y-3.4059
X7.9429Y-3.5059
X7.9429Y-3.6059
X7.9429Y-3.7059
X7.9429Y-3.8059
X7.9429Y-3.9059
X7.9429Y-4.0059
X7.9429Y-4.1059
X7.9429Y-4.2059
X7.9429Y-4.3059
X8.0429Y-1.2059
X8.0429Y-1.3059
X8.0429Y-1.4059
X8.0429Y-1.5059
X8.0429Y-1.6059
X8.0429Y-1.7059
X8.0429Y-1.8059
X8.0429Y-1.9059
X8.0429Y-2.0059
X8.0429Y-2.1059
X8.0429Y-2.2059
X8.0429Y-2.3059
X8.0429Y-2.4059
X8.0429Y-2.5059
X8.0429Y-2.6059
X8.0429Y-2.7059
X8.0429Y-2.8059
X8.0429Y-2.9059
X8.0429Y-3.0059
X8.0429Y-3.1059
X8.0429Y-3.2059
X8.0429Y-3.3059
X8.0429Y-3.4059
X8.0429Y-3.5059
X8.0429Y-3.6059
X8.0429Y-3.7059
X8.0429Y-3.8059
X8.0429Y-3.9059
X8.0429Y-4.0059
X8.0429Y-4.1059
X8.0429Y-4.2059
X8.0429Y-4.3059
X8.1429Y-1.2059
X8.1429Y-1.3059
X8.1429Y-1.4059
X8.1429Y-1.5059
X8.1429Y-1.6059
X8.1429Y-1.7059
X8.1429Y-1.8059
X8.1429Y-1.9059
X8.1429Y-2.0059
X8.1429Y-2.1059
X8.1429Y-2.2059
X8.1429Y-2.3059
X8.1429Y-2.4059
X8.1429Y-2.5059
X8.1429Y-2.6059
X8.1429Y-2.7059
X8.1429Y-2.8059
X8.1429Y-2.9059
X8.1429Y-3.0059
X8.1429Y-3.1059
X8.1429Y-3.2059
X8.1429Y-3.3059
X8.1429Y-3.4059
X8.1429Y-3.5059
X8.1429Y-3.6059
X8.1429Y-3.7059
X8.1429Y-3.8059
X8.1429Y-3.9059
X8.1429Y-4.0059
X8.1429Y-4.1059
X8.1429Y-4.2059
X8.1429Y-4.3059
X8.3429Y-1.2059
X8.3429Y-1.3059
X8.3429Y-1.4059
X8.3429Y-1.5059
X8.3429Y-1.6059
X8.3429Y-1.7059
X8.3429Y-1.8059
X8.3429Y-1.9059
X8.3429Y-2.0059
X8.3429Y-2.1059
X8.3429Y-2.2059
X8.3429Y-2.3059
X8.3429Y-2.4059
X8.3429Y-2.5059
X8.3429Y-2.6059
X8.3429Y-2.7059
X8.3429Y-2.8059
X8.3429Y-2.9059
X8.3429Y-3.0059
X8.3429Y-3.1059
X8.3429Y-3.2059
X8.3429Y-3.3059
X8.3429Y-3.4059
X8.3429Y-3.5059
X8.3429Y-3.6059
X8.3429Y-3.7059
X8.3429Y-3.8059
X8.3429Y-3.9059
X8.3429Y-4.0059
X8.3429Y-4.1059
X8.3429Y-4.2059
X8.3429Y-4.3059
X8.4429Y-1.2059
X8.4429Y-1.3059
X8.4429Y-1.4059
X8.4429Y-1.5059
X8.4429Y-1.6059
X8.4429Y-1.7059
X8.4429Y-1.8059
X8.4429Y-1.9059
X8.4429Y-2.0059
X8.4429Y-2.1059
X8.4429Y-2.2059
X8.4429Y-2.3059
X8.4429Y-2.4059
X8.4429Y-2.5059
X8.4429Y-2.6059
X8.4429Y-2.7059
X8.4429Y-2.8059
X8.4429Y-2.9059
X8.4429Y-3.0059
X8.4429Y-3.1059
X8.4429Y-3.2059
X8.4429Y-3.3059
X8.4429Y-3.4059
X8.4429Y-3.5059
X8.4429Y-3.6059
X8.4429Y-3.7059
X8.4429Y-3.8059
X8.4429Y-3.9059
X8.4429Y-4.0059
X8.4429Y-4.1059
X8.4429Y-4.2059
X8.4429Y-4.3059
X5.2429Y-1.2059
X5.2429Y-1.3059
X5.2429Y-1.4059
X5.2429Y-1.5059
X5.2429Y-1.6059
X5.2429Y-1.7059
X5.2429Y-1.8059
X5.2429Y-1.9059
X5.2429Y-2.0059
X5.2429Y-2.1059
X5.2429Y-2.2059
X5.2429Y-2.3059
X5.2429Y-2.4059
X5.2429Y-2.5059
X5.2429Y-2.6059
X5.2429Y-2.7059
X5.2429Y-2.8059
X5.2429Y-2.9059
X5.2429Y-3.0059
X5.2429Y-3.1059
X5.2429Y-3.2059
X5.2429Y-3.3059
X5.2429Y-3.4059
X5.2429Y-3.5059
X5.2429Y-3.6059
X5.2429Y-3.7059
X5.2429Y-3.8059
X5.2429Y-3.9059
X5.2429Y-4.0059
X5.2429Y-4.1059
X5.2429Y-4.2059
X5.2429Y-4.3059
X5.3429Y-1.2059
X5.3429Y-1.3059
X5.3429Y-1.4059
X5.3429Y-1.5059
X5.3429Y-1.6059
X5.3429Y-1.7059
X5.3429Y-1.8059
X5.3429Y-1.9059
X5.3429Y-2.0059
X5.3429Y-2.1059
X5.3429Y-2.2059
X5.3429Y-2.3059
X5.3429Y-2.4059
X5.3429Y-2.5059
X5.3429Y-2.6059
X5.3429Y-2.7059
X5.3429Y-2.8059
X5.3429Y-2.9059
X5.3429Y-3.0059
X5.3429Y-3.1059
X5.3429Y-3.2059
X5.3429Y-3.3059
X5.3429Y-3.4059
X5.3429Y-3.5059
X5.3429Y-3.6059
X5.3429Y-3.7059
X5.3429Y-3.8059
X5.3429Y-3.9059
X5.3429Y-4.0059
X5.3429Y-4.1059
X5.3429Y-4.2059
X5.3429Y-4.3059
X5.4429Y-1.2059
X5.4429Y-1.3059
X5.4429Y-1.4059
X5.4429Y-1.5059
X5.4429Y-1.6059
X5.4429Y-1.7059
X5.4429Y-1.8059
X5.4429Y-1.9059
X5.4429Y-2.0059
X5.4429Y-2.1059
X5.4429Y-2.2059
X5.4429Y-2.3059
X5.4429Y-2.4059
X5.4429Y-2.5059
X5.4429Y-2.6059
X5.4429Y-2.7059
X5.4429Y-2.8059
X5.4429Y-2.9059
X5.4429Y-3.0059
X5.4429Y-3.1059
X5.4429Y-3.2059
X5.4429Y-3.3059
X5.4429Y-3.4059
X5.4429Y-3.5059
X5.4429Y-3.6059
X5.4429Y-3.7059
X5.4429Y-3.8059
X5.4429Y-3.9059
X5.4429Y-4.0059
X5.4429Y-4.1059
X5.4429Y-4.2059
X5.4429Y-4.3059
X5.5429Y-1.2059
X5.5429Y-1.3059
X5.5429Y-1.4059
X5.5429Y-1.5059
X5.5429Y-1.6059
X5.5429Y-1.7059
X5.5429Y-1.8059
X5.5429Y-1.9059
X5.5429Y-2.0059
X5.5429Y-2.1059
X5.5429Y-2.2059
X5.5429Y-2.3059
X5.5429Y-2.4059
X5.5429Y-2.5059
X5.5429Y-2.6059
X5.5429Y-2.7059
X5.5429Y-2.8059
X5.5429Y-2.9059
X5.5429Y-3.0059
X5.5429Y-3.1059
X5.5429Y-3.2059
X5.5429Y-3.3059
X5.5429Y-3.4059
X5.5429Y-3.5059
X5.5429Y-3.6059
X5.5429Y-3.7059
X5.5429Y-3.8059
X5.5429Y-3.9059
X5.5429Y-4.0059
X5.5429Y-4.1059
X5.5429Y-4.2059
X5.5429Y-4.3059
X5.6429Y-1.2059
X5.6429Y-1.3059
X5.6429Y-1.4059
X5.6429Y-1.5059
X5.6429Y-1.6059
X5.6429Y-1.7059
X5.6429Y-1.8059
X5.6429Y-1.9059
X5.6429Y-2.0059
X5.6429Y-2.1059
X5.6429Y-2.2059
X5.6429Y-2.3059
X5.6429Y-2.4059
X5.6429Y-2.5059
X5.6429Y-2.6059
X5.6429Y-2.7059
X5.6429Y-2.8059
X5.6429Y-2.9059
X5.6429Y-3.0059
X5.6429Y-3.1059
X5.6429Y-3.2059
X5.6429Y-3.3059
X5.6429Y-3.4059
X5.6429Y-3.5059
X5.6429Y-3.6059
X5.6429Y-3.7059
X5.6429Y-3.8059
X5.6429Y-3.9059
X5.6429Y-4.0059
X5.6429Y-4.1059
X5.6429Y-4.2059
X5.6429Y-4.3059
X6.9429Y-1.2059
X6.9429Y-1.3059
X6.9429Y-1.4059
X6.9429Y-1.5059
X6.9429Y-1.6059
X6.9429Y-1.7059
X6.9429Y-1.8059
X6.9429Y-1.9059
X6.9429Y-2.0059
X6.9429Y-2.1059
X6.9429Y-2.2059
X6.9429Y-2.3059
X6.9429Y-2.4059
X6.9429Y-2.5059
X6.9429Y-2.6059
X6.9429Y-2.7059
X6.9429Y-2.8059
X6.9429Y-2.9059
X6.9429Y-3.0059
X6.9429Y-3.1059
X6.9429Y-3.2059
X6.9429Y-3.3059
X6.9429Y-3.4059
X6.9429Y-3.5059
X6.9429Y-3.6059
X6.9429Y-3.7059
X6.9429Y-3.8059
X6.9429Y-3.9059
X6.9429Y-4.0059
X6.9429Y-4.1059
X6.9429Y-4.2059
X6.9429Y-4.3059
X7.0429Y-1.2059
X7.0429Y-1.3059
X7.0429Y-1.4059
X7.0429Y-1.5059
X7.0429Y-1.6059
X7.0429Y-1.7059
X7.0429Y-1.8059
X7.0429Y-1.9059
X7.0429Y-2.0059
X7.0429Y-2.1059
X7.0429Y-2.2059
X7.0429Y-2.3059
X7.0429Y-2.4059
X7.0429Y-2.5059
X7.0429Y-2.6059
X7.0429Y-2.7059
X7.0429Y-2.8059
X7.0429Y-2.9059
X7.0429Y-3.0059
X7.0429Y-3.1059
X7.0429Y-3.2059
X7.0429Y-3.3059
X7.0429Y-3.4059
X7.0429Y-3.5059
X7.0429Y-3.6059
X7.0429Y-3.7059
X7.0429Y-3.8059
X7.0429Y-3.9059
X7.0429Y-4.0059
X7.0429Y-4.1059
X7.0429Y-4.2059
X7.0429Y-4.3059
X7.1429Y-1.2059
X7.1429Y-1.3059
X7.1429Y-1.4059
X7.1429Y-1.5059
X7.1429Y-1.6059
X7.1429Y-1.7059
X7.1429Y-1.8059
X7.1429Y-1.9059
X7.1429Y-2.0059
X7.1429Y-2.1059
X7.1429Y-2.2059
X7.1429Y-2.3059
X7.1429Y-2.4059
X7.1429Y-2.5059
X7.1429Y-2.6059
X7.1429Y-2.7059
X7.1429Y-2.8059
X7.1429Y-2.9059
X7.1429Y-3.0059
X7.1429Y-3.1059
X7.1429Y-3.2059
X7.1429Y-3.3059
X7.1429Y-3.4059
X7.1429Y-3.5059
X7.1429Y-3.6059
X7.1429Y-3.7059
X7.1429Y-3.8059
X7.1429Y-3.9059
X7.1429Y-4.0059
X7.1429Y-4.1059
X7.1429Y-4.2059
X7.1429Y-4.3059
X7.2429Y-1.2059
X7.2429Y-1.3059
X7.2429Y-1.4059
X7.2429Y-1.5059
X7.2429Y-1.6059
X7.2429Y-1.7059
X7.2429Y-1.8059
X7.2429Y-1.9059
X7.2429Y-2.0059
X7.2429Y-2.1059
X7.2429Y-2.2059
X7.2429Y-2.3059
X7.2429Y-2.4059
X7.2429Y-2.5059
X7.2429Y-2.6059
X7.2429Y-2.7059
X7.2429Y-2.8059
X7.2429Y-2.9059
X7.2429Y-3.0059
X7.2429Y-3.1059
X7.2429Y-3.2059
X7.2429Y-3.3059
X7.2429Y-3.4059
X7.2429Y-3.5059
X7.2429Y-3.6059
X7.2429Y-3.7059
X7.2429Y-3.8059
X7.2429Y-3.9059
X7.2429Y-4.0059
X7.2429Y-4.1059
X7.2429Y-4.2059
X7.2429Y-4.3059
X7.3429Y-1.2059
X7.3429Y-1.3059
X7.3429Y-1.4059
X7.3429Y-1.5059
X7.3429Y-1.6059
X7.3429Y-1.7059
X7.3429Y-1.8059
X7.3429Y-1.9059
X7.3429Y-2.0059
X7.3429Y-2.1059
X7.3429Y-2.2059
X7.3429Y-2.3059
X7.3429Y-2.4059
X7.3429Y-2.5059
X7.3429Y-2.6059
X7.3429Y-2.7059
X7.3429Y-2.8059
X7.3429Y-2.9059
X7.3429Y-3.0059
X7.3429Y-3.1059
X7.3429Y-3.2059
X7.3429Y-3.3059
X7.3429Y-3.4059
X7.3429Y-3.5059
X7.3429Y-3.6059
X7.3429Y-3.7059
X7.3429Y-3.8059
X7.3429Y-3.9059
X7.3429Y-4.0059
X7.3429Y-4.1059
X7.3429Y-4.2059
X7.3429Y-4.3059
X6.6429Y-1.1059
X6.6429Y-1.2059
X6.6429Y-1.3059
X6.6429Y-1.4059
X6.6429Y-1.5059
X6.6429Y-1.6059
X6.6429Y-1.7059
X6.6429Y-1.8059
X6.6429Y-1.9059
X6.6429Y-2.0059
X6.6429Y-2.1059
X6.6429Y-2.2059
X6.6429Y-2.3059
X6.6429Y-2.4059
X6.6429Y-2.5059
X6.6429Y-2.6059
X6.6429Y-2.7059
X6.6429Y-2.8059
X6.6429Y-2.9059
X6.6429Y-3.0059
X6.6429Y-3.1059
X6.6429Y-3.2059
X6.6429Y-3.3059
X6.6429Y-3.4059
X6.6429Y-3.5059
X6.6429Y-3.6059
X6.6429Y-3.7059
X6.6429Y-3.8059
X6.6429Y-3.9059
X6.6429Y-4.0059
X6.6429Y-4.1059
X6.6429Y-4.2059
X6.6429Y-4.3059
X6.6429Y-4.4059
X6.7429Y-1.1059
X6.7429Y-1.2059
X6.7429Y-1.3059
X6.7429Y-1.4059
X6.7429Y-1.5059
X6.7429Y-1.6059
X6.7429Y-1.7059
X6.7429Y-1.8059
X6.7429Y-1.9059
X6.7429Y-2.0059
X6.7429Y-2.1059
X6.7429Y-2.2059
X6.7429Y-2.3059
X6.7429Y-2.4059
X6.7429Y-2.5059
X6.7429Y-2.6059
X6.7429Y-2.7059
X6.7429Y-2.8059
X6.7429Y-2.9059
X6.7429Y-3.0059
X6.7429Y-3.1059
X6.7429Y-3.2059
X6.7429Y-3.3059
X6.7429Y-3.4059
X6.7429Y-3.5059
X6.7429Y-3.6059
X6.7429Y-3.7059
X6.7429Y-3.8059
X6.7429Y-3.9059
X6.7429Y-4.0059
X6.7429Y-4.1059
X6.7429Y-4.2059
X6.7429Y-4.3059
X6.7429Y-4.4059
X5.9429Y-1.2059
X5.9429Y-1.3059
X5.9429Y-1.4059
X5.9429Y-1.5059
X5.9429Y-1.6059
X5.9429Y-1.7059
X5.9429Y-1.8059
X5.9429Y-1.9059
X5.9429Y-2.0059
X5.9429Y-2.1059
X5.9429Y-2.2059
X5.9429Y-2.3059
X5.9429Y-2.4059
X5.9429Y-2.5059
X5.9429Y-2.6059
X5.9429Y-2.7059
X5.9429Y-2.8059
X5.9429Y-2.9059
X5.9429Y-3.0059
X5.9429Y-3.1059
X5.9429Y-3.2059
X5.9429Y-3.3059
X5.9429Y-3.4059
X5.9429Y-3.5059
X5.9429Y-3.6059
X5.9429Y-3.7059
X5.9429Y-3.8059
X5.9429Y-3.9059
X5.9429Y-4.0059
X5.9429Y-4.1059
X5.9429Y-4.2059
X5.9429Y-4.3059
X6.0429Y-1.2059
X6.0429Y-1.3059
X6.0429Y-1.4059
X6.0429Y-1.5059
X6.0429Y-1.6059
X6.0429Y-1.7059
X6.0429Y-1.8059
X6.0429Y-1.9059
X6.0429Y-2.0059
X6.0429Y-2.1059
X6.0429Y-2.2059
X6.0429Y-2.3059
X6.0429Y-2.4059
X6.0429Y-2.5059
X6.0429Y-2.6059
X6.0429Y-2.7059
X6.0429Y-2.8059
X6.0429Y-2.9059
X6.0429Y-3.0059
X6.0429Y-3.1059
X6.0429Y-3.2059
X6.0429Y-3.3059
X6.0429Y-3.4059
X6.0429Y-3.5059
X6.0429Y-3.6059
X6.0429Y-3.7059
X6.0429Y-3.8059
X6.0429Y-3.9059
X6.0429Y-4.0059
X6.0429Y-4.1059
X6.0429Y-4.2059
X6.0429Y-4.3059
X6.1429Y-1.2059
X6.1429Y-1.3059
X6.1429Y-1.4059
X6.1429Y-1.5059
X6.1429Y-1.6059
X6.1429Y-1.7059
X6.1429Y-1.8059
X6.1429Y-1.9059
X6.1429Y-2.0059
X6.1429Y-2.1059
X6.1429Y-2.2059
X6.1429Y-2.3059
X6.1429Y-2.4059
X6.1429Y-2.5059
X6.1429Y-2.6059
X6.1429Y-2.7059
X6.1429Y-2.8059
X6.1429Y-2.9059
X6.1429Y-3.0059
X6.1429Y-3.1059
X6.1429Y-3.2059
X6.1429Y-3.3059
X6.1429Y-3.4059
X6.1429Y-3.5059
X6.1429Y-3.6059
X6.1429Y-3.7059
X6.1429Y-3.8059
X6.1429Y-3.9059
X6.1429Y-4.0059
X6.1429Y-4.1059
X6.1429Y-4.2059
X6.1429Y-4.3059
X6.2429Y-1.2059
X6.2429Y-1.3059
X6.2429Y-1.4059
X6.2429Y-1.5059
X6.2429Y-1.6059
X6.2429Y-1.7059
X6.2429Y-1.8059
X6.2429Y-1.9059
X6.2429Y-2.0059
X6.2429Y-2.1059
X6.2429Y-2.2059
X6.2429Y-2.3059
X6.2429Y-2.4059
X6.2429Y-2.5059
X6.2429Y-2.6059
X6.2429Y-2.7059
X6.2429Y-2.8059
X6.2429Y-2.9059
X6.2429Y-3.0059
X6.2429Y-3.1059
X6.2429Y-3.2059
X6.2429Y-3.3059
X6.2429Y-3.4059
X6.2429Y-3.5059
X6.2429Y-3.6059
X6.2429Y-3.7059
X6.2429Y-3.8059
X6.2429Y-3.9059
X6.2429Y-4.0059
X6.2429Y-4.1059
X6.2429Y-4.2059
X6.2429Y-4.3059
X6.3429Y-1.2059
X6.3429Y-1.3059
X6.3429Y-1.4059
X6.3429Y-1.5059
X6.3429Y-1.6059
X6.3429Y-1.7059
X6.3429Y-1.8059
X6.3429Y-1.9059
X6.3429Y-2.0059
X6.3429Y-2.1059
X6.3429Y-2.2059
X6.3429Y-2.3059
X6.3429Y-2.4059
X6.3429Y-2.5059
X6.3429Y-2.6059
X6.3429Y-2.7059
X6.3429Y-2.8059
X6.3429Y-2.9059
X6.3429Y-3.0059
X6.3429Y-3.1059
X6.3429Y-3.2059
X6.3429Y-3.3059
X6.3429Y-3.4059
X6.3429Y-3.5059
X6.3429Y-3.6059
X6.3429Y-3.7059
X6.3429Y-3.8059
X6.3429Y-3.9059
X6.3429Y-4.0059
X6.3429Y-4.1059
X6.3429Y-4.2059
X6.3429Y-4.3059
X4.9429Y-1.2059
X4.9429Y-1.3059
X4.9429Y-1.4059
X4.9429Y-1.5059
X4.9429Y-1.6059
X4.9429Y-1.7059
X4.9429Y-1.8059
X4.9429Y-1.9059
X4.9429Y-2.0059
X4.9429Y-2.1059
X4.9429Y-2.2059
X4.9429Y-2.3059
X4.9429Y-2.4059
X4.9429Y-2.5059
X4.9429Y-2.6059
X4.9429Y-2.7059
X4.9429Y-2.8059
X4.9429Y-2.9059
X4.9429Y-3.0059
X4.9429Y-3.1059
X4.9429Y-3.2059
X4.9429Y-3.3059
X4.9429Y-3.4059
X4.9429Y-3.5059
X4.9429Y-3.6059
X4.9429Y-3.7059
X4.9429Y-3.8059
X4.9429Y-3.9059
X4.9429Y-4.0059
X4.9429Y-4.1059
X4.9429Y-4.2059
X4.9429Y-4.3059
X5.0429Y-1.2059
X5.0429Y-1.3059
X5.0429Y-1.4059
X5.0429Y-1.5059
X5.0429Y-1.6059
X5.0429Y-1.7059
X5.0429Y-1.8059
X5.0429Y-1.9059
X5.0429Y-2.0059
X5.0429Y-2.1059
X5.0429Y-2.2059
X5.0429Y-2.3059
X5.0429Y-2.4059
X5.0429Y-2.5059
X5.0429Y-2.6059
X5.0429Y-2.7059
X5.0429Y-2.8059
X5.0429Y-2.9059
X5.0429Y-3.0059
X5.0429Y-3.1059
X5.0429Y-3.2059
X5.0429Y-3.3059
X5.0429Y-3.4059
X5.0429Y-3.5059
X5.0429Y-3.6059
X5.0429Y-3.7059
X5.0429Y-3.8059
X5.0429Y-3.9059
X5.0429Y-4.0059
X5.0429Y-4.1059
X5.0429Y-4.2059
X5.0429Y-4.3059
T3
X8.4646Y-0.9843
X4.9213Y-4.5276
X8.4646Y-4.5276
X4.9213Y-0.9843
T0
M30
