G04 #@! TF.GenerationSoftware,KiCad,Pcbnew,(5.0.0-3-g5ebb6b6)*
G04 #@! TF.CreationDate,2019-05-14T13:45:27-04:00*
G04 #@! TF.ProjectId,Protoboard,50726F746F626F6172642E6B69636164,rev?*
G04 #@! TF.SameCoordinates,Original*
G04 #@! TF.FileFunction,Legend,Top*
G04 #@! TF.FilePolarity,Positive*
%FSLAX46Y46*%
G04 Gerber Fmt 4.6, Leading zero omitted, Abs format (unit mm)*
G04 Created by KiCad (PCBNEW (5.0.0-3-g5ebb6b6)) date Tuesday, May 14, 2019 at 01:45:27 PM*
%MOMM*%
%LPD*%
G01*
G04 APERTURE LIST*
%ADD10C,0.300000*%
%ADD11C,0.250000*%
%ADD12C,0.500000*%
%ADD13C,0.200000*%
%ADD14C,0.010000*%
G04 APERTURE END LIST*
D10*
X182785714Y-23678571D02*
X182785714Y-22178571D01*
X183285714Y-23250000D01*
X183785714Y-22178571D01*
X183785714Y-23678571D01*
X184500000Y-23678571D02*
X184500000Y-22678571D01*
X184500000Y-22178571D02*
X184428571Y-22250000D01*
X184500000Y-22321428D01*
X184571428Y-22250000D01*
X184500000Y-22178571D01*
X184500000Y-22321428D01*
X185857142Y-23607142D02*
X185714285Y-23678571D01*
X185428571Y-23678571D01*
X185285714Y-23607142D01*
X185214285Y-23535714D01*
X185142857Y-23392857D01*
X185142857Y-22964285D01*
X185214285Y-22821428D01*
X185285714Y-22750000D01*
X185428571Y-22678571D01*
X185714285Y-22678571D01*
X185857142Y-22750000D01*
X186500000Y-23678571D02*
X186500000Y-22678571D01*
X186500000Y-22964285D02*
X186571428Y-22821428D01*
X186642857Y-22750000D01*
X186785714Y-22678571D01*
X186928571Y-22678571D01*
X187642857Y-23678571D02*
X187500000Y-23607142D01*
X187428571Y-23535714D01*
X187357142Y-23392857D01*
X187357142Y-22964285D01*
X187428571Y-22821428D01*
X187500000Y-22750000D01*
X187642857Y-22678571D01*
X187857142Y-22678571D01*
X188000000Y-22750000D01*
X188071428Y-22821428D01*
X188142857Y-22964285D01*
X188142857Y-23392857D01*
X188071428Y-23535714D01*
X188000000Y-23607142D01*
X187857142Y-23678571D01*
X187642857Y-23678571D01*
X189428571Y-23607142D02*
X189285714Y-23678571D01*
X189000000Y-23678571D01*
X188857142Y-23607142D01*
X188785714Y-23535714D01*
X188714285Y-23392857D01*
X188714285Y-22964285D01*
X188785714Y-22821428D01*
X188857142Y-22750000D01*
X189000000Y-22678571D01*
X189285714Y-22678571D01*
X189428571Y-22750000D01*
X190285714Y-23678571D02*
X190142857Y-23607142D01*
X190071428Y-23535714D01*
X190000000Y-23392857D01*
X190000000Y-22964285D01*
X190071428Y-22821428D01*
X190142857Y-22750000D01*
X190285714Y-22678571D01*
X190500000Y-22678571D01*
X190642857Y-22750000D01*
X190714285Y-22821428D01*
X190785714Y-22964285D01*
X190785714Y-23392857D01*
X190714285Y-23535714D01*
X190642857Y-23607142D01*
X190500000Y-23678571D01*
X190285714Y-23678571D01*
X191428571Y-22678571D02*
X191428571Y-23678571D01*
X191428571Y-22821428D02*
X191500000Y-22750000D01*
X191642857Y-22678571D01*
X191857142Y-22678571D01*
X192000000Y-22750000D01*
X192071428Y-22892857D01*
X192071428Y-23678571D01*
X192571428Y-22678571D02*
X193142857Y-22678571D01*
X192785714Y-22178571D02*
X192785714Y-23464285D01*
X192857142Y-23607142D01*
X193000000Y-23678571D01*
X193142857Y-23678571D01*
X193642857Y-23678571D02*
X193642857Y-22678571D01*
X193642857Y-22964285D02*
X193714285Y-22821428D01*
X193785714Y-22750000D01*
X193928571Y-22678571D01*
X194071428Y-22678571D01*
X194785714Y-23678571D02*
X194642857Y-23607142D01*
X194571428Y-23535714D01*
X194500000Y-23392857D01*
X194500000Y-22964285D01*
X194571428Y-22821428D01*
X194642857Y-22750000D01*
X194785714Y-22678571D01*
X195000000Y-22678571D01*
X195142857Y-22750000D01*
X195214285Y-22821428D01*
X195285714Y-22964285D01*
X195285714Y-23392857D01*
X195214285Y-23535714D01*
X195142857Y-23607142D01*
X195000000Y-23678571D01*
X194785714Y-23678571D01*
X196142857Y-23678571D02*
X196000000Y-23607142D01*
X195928571Y-23464285D01*
X195928571Y-22178571D01*
X196928571Y-23678571D02*
X196785714Y-23607142D01*
X196714285Y-23464285D01*
X196714285Y-22178571D01*
X198071428Y-23607142D02*
X197928571Y-23678571D01*
X197642857Y-23678571D01*
X197500000Y-23607142D01*
X197428571Y-23464285D01*
X197428571Y-22892857D01*
X197500000Y-22750000D01*
X197642857Y-22678571D01*
X197928571Y-22678571D01*
X198071428Y-22750000D01*
X198142857Y-22892857D01*
X198142857Y-23035714D01*
X197428571Y-23178571D01*
X198785714Y-23678571D02*
X198785714Y-22678571D01*
X198785714Y-22964285D02*
X198857142Y-22821428D01*
X198928571Y-22750000D01*
X199071428Y-22678571D01*
X199214285Y-22678571D01*
X199642857Y-23607142D02*
X199785714Y-23678571D01*
X200071428Y-23678571D01*
X200214285Y-23607142D01*
X200285714Y-23464285D01*
X200285714Y-23392857D01*
X200214285Y-23250000D01*
X200071428Y-23178571D01*
X199857142Y-23178571D01*
X199714285Y-23107142D01*
X199642857Y-22964285D01*
X199642857Y-22892857D01*
X199714285Y-22750000D01*
X199857142Y-22678571D01*
X200071428Y-22678571D01*
X200214285Y-22750000D01*
X145642857Y-23678571D02*
X145642857Y-22178571D01*
X147214285Y-23535714D02*
X147142857Y-23607142D01*
X146928571Y-23678571D01*
X146785714Y-23678571D01*
X146571428Y-23607142D01*
X146428571Y-23464285D01*
X146357142Y-23321428D01*
X146285714Y-23035714D01*
X146285714Y-22821428D01*
X146357142Y-22535714D01*
X146428571Y-22392857D01*
X146571428Y-22250000D01*
X146785714Y-22178571D01*
X146928571Y-22178571D01*
X147142857Y-22250000D01*
X147214285Y-22321428D01*
X147785714Y-23607142D02*
X147928571Y-23678571D01*
X148214285Y-23678571D01*
X148357142Y-23607142D01*
X148428571Y-23464285D01*
X148428571Y-23392857D01*
X148357142Y-23250000D01*
X148214285Y-23178571D01*
X148000000Y-23178571D01*
X147857142Y-23107142D01*
X147785714Y-22964285D01*
X147785714Y-22892857D01*
X147857142Y-22750000D01*
X148000000Y-22678571D01*
X148214285Y-22678571D01*
X148357142Y-22750000D01*
D11*
X188468095Y-91214619D02*
X188515714Y-91167000D01*
X188610952Y-91119380D01*
X188849047Y-91119380D01*
X188944285Y-91167000D01*
X188991904Y-91214619D01*
X189039523Y-91309857D01*
X189039523Y-91405095D01*
X188991904Y-91547952D01*
X188420476Y-92119380D01*
X189039523Y-92119380D01*
X189944285Y-91119380D02*
X189468095Y-91119380D01*
X189420476Y-91595571D01*
X189468095Y-91547952D01*
X189563333Y-91500333D01*
X189801428Y-91500333D01*
X189896666Y-91547952D01*
X189944285Y-91595571D01*
X189991904Y-91690809D01*
X189991904Y-91928904D01*
X189944285Y-92024142D01*
X189896666Y-92071761D01*
X189801428Y-92119380D01*
X189563333Y-92119380D01*
X189468095Y-92071761D01*
X189420476Y-92024142D01*
X188468095Y-96294619D02*
X188515714Y-96247000D01*
X188610952Y-96199380D01*
X188849047Y-96199380D01*
X188944285Y-96247000D01*
X188991904Y-96294619D01*
X189039523Y-96389857D01*
X189039523Y-96485095D01*
X188991904Y-96627952D01*
X188420476Y-97199380D01*
X189039523Y-97199380D01*
X189372857Y-96199380D02*
X190039523Y-96199380D01*
X189610952Y-97199380D01*
X188468095Y-83594619D02*
X188515714Y-83547000D01*
X188610952Y-83499380D01*
X188849047Y-83499380D01*
X188944285Y-83547000D01*
X188991904Y-83594619D01*
X189039523Y-83689857D01*
X189039523Y-83785095D01*
X188991904Y-83927952D01*
X188420476Y-84499380D01*
X189039523Y-84499380D01*
X189420476Y-83594619D02*
X189468095Y-83547000D01*
X189563333Y-83499380D01*
X189801428Y-83499380D01*
X189896666Y-83547000D01*
X189944285Y-83594619D01*
X189991904Y-83689857D01*
X189991904Y-83785095D01*
X189944285Y-83927952D01*
X189372857Y-84499380D01*
X189991904Y-84499380D01*
X188468095Y-98834619D02*
X188515714Y-98787000D01*
X188610952Y-98739380D01*
X188849047Y-98739380D01*
X188944285Y-98787000D01*
X188991904Y-98834619D01*
X189039523Y-98929857D01*
X189039523Y-99025095D01*
X188991904Y-99167952D01*
X188420476Y-99739380D01*
X189039523Y-99739380D01*
X189610952Y-99167952D02*
X189515714Y-99120333D01*
X189468095Y-99072714D01*
X189420476Y-98977476D01*
X189420476Y-98929857D01*
X189468095Y-98834619D01*
X189515714Y-98787000D01*
X189610952Y-98739380D01*
X189801428Y-98739380D01*
X189896666Y-98787000D01*
X189944285Y-98834619D01*
X189991904Y-98929857D01*
X189991904Y-98977476D01*
X189944285Y-99072714D01*
X189896666Y-99120333D01*
X189801428Y-99167952D01*
X189610952Y-99167952D01*
X189515714Y-99215571D01*
X189468095Y-99263190D01*
X189420476Y-99358428D01*
X189420476Y-99548904D01*
X189468095Y-99644142D01*
X189515714Y-99691761D01*
X189610952Y-99739380D01*
X189801428Y-99739380D01*
X189896666Y-99691761D01*
X189944285Y-99644142D01*
X189991904Y-99548904D01*
X189991904Y-99358428D01*
X189944285Y-99263190D01*
X189896666Y-99215571D01*
X189801428Y-99167952D01*
X188420476Y-108899380D02*
X189039523Y-108899380D01*
X188706190Y-109280333D01*
X188849047Y-109280333D01*
X188944285Y-109327952D01*
X188991904Y-109375571D01*
X189039523Y-109470809D01*
X189039523Y-109708904D01*
X188991904Y-109804142D01*
X188944285Y-109851761D01*
X188849047Y-109899380D01*
X188563333Y-109899380D01*
X188468095Y-109851761D01*
X188420476Y-109804142D01*
X189420476Y-108994619D02*
X189468095Y-108947000D01*
X189563333Y-108899380D01*
X189801428Y-108899380D01*
X189896666Y-108947000D01*
X189944285Y-108994619D01*
X189991904Y-109089857D01*
X189991904Y-109185095D01*
X189944285Y-109327952D01*
X189372857Y-109899380D01*
X189991904Y-109899380D01*
X189039523Y-51479380D02*
X189230000Y-51479380D01*
X189325238Y-51431761D01*
X189372857Y-51384142D01*
X189468095Y-51241285D01*
X189515714Y-51050809D01*
X189515714Y-50669857D01*
X189468095Y-50574619D01*
X189420476Y-50527000D01*
X189325238Y-50479380D01*
X189134761Y-50479380D01*
X189039523Y-50527000D01*
X188991904Y-50574619D01*
X188944285Y-50669857D01*
X188944285Y-50907952D01*
X188991904Y-51003190D01*
X189039523Y-51050809D01*
X189134761Y-51098428D01*
X189325238Y-51098428D01*
X189420476Y-51050809D01*
X189468095Y-51003190D01*
X189515714Y-50907952D01*
X189039523Y-74339380D02*
X188468095Y-74339380D01*
X188753809Y-74339380D02*
X188753809Y-73339380D01*
X188658571Y-73482238D01*
X188563333Y-73577476D01*
X188468095Y-73625095D01*
X189610952Y-73767952D02*
X189515714Y-73720333D01*
X189468095Y-73672714D01*
X189420476Y-73577476D01*
X189420476Y-73529857D01*
X189468095Y-73434619D01*
X189515714Y-73387000D01*
X189610952Y-73339380D01*
X189801428Y-73339380D01*
X189896666Y-73387000D01*
X189944285Y-73434619D01*
X189991904Y-73529857D01*
X189991904Y-73577476D01*
X189944285Y-73672714D01*
X189896666Y-73720333D01*
X189801428Y-73767952D01*
X189610952Y-73767952D01*
X189515714Y-73815571D01*
X189468095Y-73863190D01*
X189420476Y-73958428D01*
X189420476Y-74148904D01*
X189468095Y-74244142D01*
X189515714Y-74291761D01*
X189610952Y-74339380D01*
X189801428Y-74339380D01*
X189896666Y-74291761D01*
X189944285Y-74244142D01*
X189991904Y-74148904D01*
X189991904Y-73958428D01*
X189944285Y-73863190D01*
X189896666Y-73815571D01*
X189801428Y-73767952D01*
X189039523Y-66719380D02*
X188468095Y-66719380D01*
X188753809Y-66719380D02*
X188753809Y-65719380D01*
X188658571Y-65862238D01*
X188563333Y-65957476D01*
X188468095Y-66005095D01*
X189944285Y-65719380D02*
X189468095Y-65719380D01*
X189420476Y-66195571D01*
X189468095Y-66147952D01*
X189563333Y-66100333D01*
X189801428Y-66100333D01*
X189896666Y-66147952D01*
X189944285Y-66195571D01*
X189991904Y-66290809D01*
X189991904Y-66528904D01*
X189944285Y-66624142D01*
X189896666Y-66671761D01*
X189801428Y-66719380D01*
X189563333Y-66719380D01*
X189468095Y-66671761D01*
X189420476Y-66624142D01*
X189039523Y-61639380D02*
X188468095Y-61639380D01*
X188753809Y-61639380D02*
X188753809Y-60639380D01*
X188658571Y-60782238D01*
X188563333Y-60877476D01*
X188468095Y-60925095D01*
X189372857Y-60639380D02*
X189991904Y-60639380D01*
X189658571Y-61020333D01*
X189801428Y-61020333D01*
X189896666Y-61067952D01*
X189944285Y-61115571D01*
X189991904Y-61210809D01*
X189991904Y-61448904D01*
X189944285Y-61544142D01*
X189896666Y-61591761D01*
X189801428Y-61639380D01*
X189515714Y-61639380D01*
X189420476Y-61591761D01*
X189372857Y-61544142D01*
X188468095Y-81054619D02*
X188515714Y-81007000D01*
X188610952Y-80959380D01*
X188849047Y-80959380D01*
X188944285Y-81007000D01*
X188991904Y-81054619D01*
X189039523Y-81149857D01*
X189039523Y-81245095D01*
X188991904Y-81387952D01*
X188420476Y-81959380D01*
X189039523Y-81959380D01*
X189991904Y-81959380D02*
X189420476Y-81959380D01*
X189706190Y-81959380D02*
X189706190Y-80959380D01*
X189610952Y-81102238D01*
X189515714Y-81197476D01*
X189420476Y-81245095D01*
X189039523Y-59099380D02*
X188468095Y-59099380D01*
X188753809Y-59099380D02*
X188753809Y-58099380D01*
X188658571Y-58242238D01*
X188563333Y-58337476D01*
X188468095Y-58385095D01*
X189420476Y-58194619D02*
X189468095Y-58147000D01*
X189563333Y-58099380D01*
X189801428Y-58099380D01*
X189896666Y-58147000D01*
X189944285Y-58194619D01*
X189991904Y-58289857D01*
X189991904Y-58385095D01*
X189944285Y-58527952D01*
X189372857Y-59099380D01*
X189991904Y-59099380D01*
X189039523Y-76879380D02*
X188468095Y-76879380D01*
X188753809Y-76879380D02*
X188753809Y-75879380D01*
X188658571Y-76022238D01*
X188563333Y-76117476D01*
X188468095Y-76165095D01*
X189515714Y-76879380D02*
X189706190Y-76879380D01*
X189801428Y-76831761D01*
X189849047Y-76784142D01*
X189944285Y-76641285D01*
X189991904Y-76450809D01*
X189991904Y-76069857D01*
X189944285Y-75974619D01*
X189896666Y-75927000D01*
X189801428Y-75879380D01*
X189610952Y-75879380D01*
X189515714Y-75927000D01*
X189468095Y-75974619D01*
X189420476Y-76069857D01*
X189420476Y-76307952D01*
X189468095Y-76403190D01*
X189515714Y-76450809D01*
X189610952Y-76498428D01*
X189801428Y-76498428D01*
X189896666Y-76450809D01*
X189944285Y-76403190D01*
X189991904Y-76307952D01*
X189039523Y-56559380D02*
X188468095Y-56559380D01*
X188753809Y-56559380D02*
X188753809Y-55559380D01*
X188658571Y-55702238D01*
X188563333Y-55797476D01*
X188468095Y-55845095D01*
X189991904Y-56559380D02*
X189420476Y-56559380D01*
X189706190Y-56559380D02*
X189706190Y-55559380D01*
X189610952Y-55702238D01*
X189515714Y-55797476D01*
X189420476Y-55845095D01*
X189420476Y-42859380D02*
X189230000Y-42859380D01*
X189134761Y-42907000D01*
X189087142Y-42954619D01*
X188991904Y-43097476D01*
X188944285Y-43287952D01*
X188944285Y-43668904D01*
X188991904Y-43764142D01*
X189039523Y-43811761D01*
X189134761Y-43859380D01*
X189325238Y-43859380D01*
X189420476Y-43811761D01*
X189468095Y-43764142D01*
X189515714Y-43668904D01*
X189515714Y-43430809D01*
X189468095Y-43335571D01*
X189420476Y-43287952D01*
X189325238Y-43240333D01*
X189134761Y-43240333D01*
X189039523Y-43287952D01*
X188991904Y-43335571D01*
X188944285Y-43430809D01*
X189468095Y-40319380D02*
X188991904Y-40319380D01*
X188944285Y-40795571D01*
X188991904Y-40747952D01*
X189087142Y-40700333D01*
X189325238Y-40700333D01*
X189420476Y-40747952D01*
X189468095Y-40795571D01*
X189515714Y-40890809D01*
X189515714Y-41128904D01*
X189468095Y-41224142D01*
X189420476Y-41271761D01*
X189325238Y-41319380D01*
X189087142Y-41319380D01*
X188991904Y-41271761D01*
X188944285Y-41224142D01*
X189039523Y-64179380D02*
X188468095Y-64179380D01*
X188753809Y-64179380D02*
X188753809Y-63179380D01*
X188658571Y-63322238D01*
X188563333Y-63417476D01*
X188468095Y-63465095D01*
X189896666Y-63512714D02*
X189896666Y-64179380D01*
X189658571Y-63131761D02*
X189420476Y-63846047D01*
X190039523Y-63846047D01*
X188896666Y-45399380D02*
X189563333Y-45399380D01*
X189134761Y-46399380D01*
X189134761Y-48367952D02*
X189039523Y-48320333D01*
X188991904Y-48272714D01*
X188944285Y-48177476D01*
X188944285Y-48129857D01*
X188991904Y-48034619D01*
X189039523Y-47987000D01*
X189134761Y-47939380D01*
X189325238Y-47939380D01*
X189420476Y-47987000D01*
X189468095Y-48034619D01*
X189515714Y-48129857D01*
X189515714Y-48177476D01*
X189468095Y-48272714D01*
X189420476Y-48320333D01*
X189325238Y-48367952D01*
X189134761Y-48367952D01*
X189039523Y-48415571D01*
X188991904Y-48463190D01*
X188944285Y-48558428D01*
X188944285Y-48748904D01*
X188991904Y-48844142D01*
X189039523Y-48891761D01*
X189134761Y-48939380D01*
X189325238Y-48939380D01*
X189420476Y-48891761D01*
X189468095Y-48844142D01*
X189515714Y-48748904D01*
X189515714Y-48558428D01*
X189468095Y-48463190D01*
X189420476Y-48415571D01*
X189325238Y-48367952D01*
X189039523Y-54019380D02*
X188468095Y-54019380D01*
X188753809Y-54019380D02*
X188753809Y-53019380D01*
X188658571Y-53162238D01*
X188563333Y-53257476D01*
X188468095Y-53305095D01*
X189658571Y-53019380D02*
X189753809Y-53019380D01*
X189849047Y-53067000D01*
X189896666Y-53114619D01*
X189944285Y-53209857D01*
X189991904Y-53400333D01*
X189991904Y-53638428D01*
X189944285Y-53828904D01*
X189896666Y-53924142D01*
X189849047Y-53971761D01*
X189753809Y-54019380D01*
X189658571Y-54019380D01*
X189563333Y-53971761D01*
X189515714Y-53924142D01*
X189468095Y-53828904D01*
X189420476Y-53638428D01*
X189420476Y-53400333D01*
X189468095Y-53209857D01*
X189515714Y-53114619D01*
X189563333Y-53067000D01*
X189658571Y-53019380D01*
X188468095Y-93754619D02*
X188515714Y-93707000D01*
X188610952Y-93659380D01*
X188849047Y-93659380D01*
X188944285Y-93707000D01*
X188991904Y-93754619D01*
X189039523Y-93849857D01*
X189039523Y-93945095D01*
X188991904Y-94087952D01*
X188420476Y-94659380D01*
X189039523Y-94659380D01*
X189896666Y-93659380D02*
X189706190Y-93659380D01*
X189610952Y-93707000D01*
X189563333Y-93754619D01*
X189468095Y-93897476D01*
X189420476Y-94087952D01*
X189420476Y-94468904D01*
X189468095Y-94564142D01*
X189515714Y-94611761D01*
X189610952Y-94659380D01*
X189801428Y-94659380D01*
X189896666Y-94611761D01*
X189944285Y-94564142D01*
X189991904Y-94468904D01*
X189991904Y-94230809D01*
X189944285Y-94135571D01*
X189896666Y-94087952D01*
X189801428Y-94040333D01*
X189610952Y-94040333D01*
X189515714Y-94087952D01*
X189468095Y-94135571D01*
X189420476Y-94230809D01*
X189039523Y-71799380D02*
X188468095Y-71799380D01*
X188753809Y-71799380D02*
X188753809Y-70799380D01*
X188658571Y-70942238D01*
X188563333Y-71037476D01*
X188468095Y-71085095D01*
X189372857Y-70799380D02*
X190039523Y-70799380D01*
X189610952Y-71799380D01*
X189039523Y-69259380D02*
X188468095Y-69259380D01*
X188753809Y-69259380D02*
X188753809Y-68259380D01*
X188658571Y-68402238D01*
X188563333Y-68497476D01*
X188468095Y-68545095D01*
X189896666Y-68259380D02*
X189706190Y-68259380D01*
X189610952Y-68307000D01*
X189563333Y-68354619D01*
X189468095Y-68497476D01*
X189420476Y-68687952D01*
X189420476Y-69068904D01*
X189468095Y-69164142D01*
X189515714Y-69211761D01*
X189610952Y-69259380D01*
X189801428Y-69259380D01*
X189896666Y-69211761D01*
X189944285Y-69164142D01*
X189991904Y-69068904D01*
X189991904Y-68830809D01*
X189944285Y-68735571D01*
X189896666Y-68687952D01*
X189801428Y-68640333D01*
X189610952Y-68640333D01*
X189515714Y-68687952D01*
X189468095Y-68735571D01*
X189420476Y-68830809D01*
X189420476Y-38112714D02*
X189420476Y-38779380D01*
X189182380Y-37731761D02*
X188944285Y-38446047D01*
X189563333Y-38446047D01*
X188944285Y-32794619D02*
X188991904Y-32747000D01*
X189087142Y-32699380D01*
X189325238Y-32699380D01*
X189420476Y-32747000D01*
X189468095Y-32794619D01*
X189515714Y-32889857D01*
X189515714Y-32985095D01*
X189468095Y-33127952D01*
X188896666Y-33699380D01*
X189515714Y-33699380D01*
X188420476Y-106359380D02*
X189039523Y-106359380D01*
X188706190Y-106740333D01*
X188849047Y-106740333D01*
X188944285Y-106787952D01*
X188991904Y-106835571D01*
X189039523Y-106930809D01*
X189039523Y-107168904D01*
X188991904Y-107264142D01*
X188944285Y-107311761D01*
X188849047Y-107359380D01*
X188563333Y-107359380D01*
X188468095Y-107311761D01*
X188420476Y-107264142D01*
X189991904Y-107359380D02*
X189420476Y-107359380D01*
X189706190Y-107359380D02*
X189706190Y-106359380D01*
X189610952Y-106502238D01*
X189515714Y-106597476D01*
X189420476Y-106645095D01*
X188468095Y-78514619D02*
X188515714Y-78467000D01*
X188610952Y-78419380D01*
X188849047Y-78419380D01*
X188944285Y-78467000D01*
X188991904Y-78514619D01*
X189039523Y-78609857D01*
X189039523Y-78705095D01*
X188991904Y-78847952D01*
X188420476Y-79419380D01*
X189039523Y-79419380D01*
X189658571Y-78419380D02*
X189753809Y-78419380D01*
X189849047Y-78467000D01*
X189896666Y-78514619D01*
X189944285Y-78609857D01*
X189991904Y-78800333D01*
X189991904Y-79038428D01*
X189944285Y-79228904D01*
X189896666Y-79324142D01*
X189849047Y-79371761D01*
X189753809Y-79419380D01*
X189658571Y-79419380D01*
X189563333Y-79371761D01*
X189515714Y-79324142D01*
X189468095Y-79228904D01*
X189420476Y-79038428D01*
X189420476Y-78800333D01*
X189468095Y-78609857D01*
X189515714Y-78514619D01*
X189563333Y-78467000D01*
X189658571Y-78419380D01*
X188468095Y-101374619D02*
X188515714Y-101327000D01*
X188610952Y-101279380D01*
X188849047Y-101279380D01*
X188944285Y-101327000D01*
X188991904Y-101374619D01*
X189039523Y-101469857D01*
X189039523Y-101565095D01*
X188991904Y-101707952D01*
X188420476Y-102279380D01*
X189039523Y-102279380D01*
X189515714Y-102279380D02*
X189706190Y-102279380D01*
X189801428Y-102231761D01*
X189849047Y-102184142D01*
X189944285Y-102041285D01*
X189991904Y-101850809D01*
X189991904Y-101469857D01*
X189944285Y-101374619D01*
X189896666Y-101327000D01*
X189801428Y-101279380D01*
X189610952Y-101279380D01*
X189515714Y-101327000D01*
X189468095Y-101374619D01*
X189420476Y-101469857D01*
X189420476Y-101707952D01*
X189468095Y-101803190D01*
X189515714Y-101850809D01*
X189610952Y-101898428D01*
X189801428Y-101898428D01*
X189896666Y-101850809D01*
X189944285Y-101803190D01*
X189991904Y-101707952D01*
X189515714Y-31159380D02*
X188944285Y-31159380D01*
X189230000Y-31159380D02*
X189230000Y-30159380D01*
X189134761Y-30302238D01*
X189039523Y-30397476D01*
X188944285Y-30445095D01*
X188420476Y-103819380D02*
X189039523Y-103819380D01*
X188706190Y-104200333D01*
X188849047Y-104200333D01*
X188944285Y-104247952D01*
X188991904Y-104295571D01*
X189039523Y-104390809D01*
X189039523Y-104628904D01*
X188991904Y-104724142D01*
X188944285Y-104771761D01*
X188849047Y-104819380D01*
X188563333Y-104819380D01*
X188468095Y-104771761D01*
X188420476Y-104724142D01*
X189658571Y-103819380D02*
X189753809Y-103819380D01*
X189849047Y-103867000D01*
X189896666Y-103914619D01*
X189944285Y-104009857D01*
X189991904Y-104200333D01*
X189991904Y-104438428D01*
X189944285Y-104628904D01*
X189896666Y-104724142D01*
X189849047Y-104771761D01*
X189753809Y-104819380D01*
X189658571Y-104819380D01*
X189563333Y-104771761D01*
X189515714Y-104724142D01*
X189468095Y-104628904D01*
X189420476Y-104438428D01*
X189420476Y-104200333D01*
X189468095Y-104009857D01*
X189515714Y-103914619D01*
X189563333Y-103867000D01*
X189658571Y-103819380D01*
X188468095Y-88674619D02*
X188515714Y-88627000D01*
X188610952Y-88579380D01*
X188849047Y-88579380D01*
X188944285Y-88627000D01*
X188991904Y-88674619D01*
X189039523Y-88769857D01*
X189039523Y-88865095D01*
X188991904Y-89007952D01*
X188420476Y-89579380D01*
X189039523Y-89579380D01*
X189896666Y-88912714D02*
X189896666Y-89579380D01*
X189658571Y-88531761D02*
X189420476Y-89246047D01*
X190039523Y-89246047D01*
X188468095Y-86134619D02*
X188515714Y-86087000D01*
X188610952Y-86039380D01*
X188849047Y-86039380D01*
X188944285Y-86087000D01*
X188991904Y-86134619D01*
X189039523Y-86229857D01*
X189039523Y-86325095D01*
X188991904Y-86467952D01*
X188420476Y-87039380D01*
X189039523Y-87039380D01*
X189372857Y-86039380D02*
X189991904Y-86039380D01*
X189658571Y-86420333D01*
X189801428Y-86420333D01*
X189896666Y-86467952D01*
X189944285Y-86515571D01*
X189991904Y-86610809D01*
X189991904Y-86848904D01*
X189944285Y-86944142D01*
X189896666Y-86991761D01*
X189801428Y-87039380D01*
X189515714Y-87039380D01*
X189420476Y-86991761D01*
X189372857Y-86944142D01*
X188896666Y-35239380D02*
X189515714Y-35239380D01*
X189182380Y-35620333D01*
X189325238Y-35620333D01*
X189420476Y-35667952D01*
X189468095Y-35715571D01*
X189515714Y-35810809D01*
X189515714Y-36048904D01*
X189468095Y-36144142D01*
X189420476Y-36191761D01*
X189325238Y-36239380D01*
X189039523Y-36239380D01*
X188944285Y-36191761D01*
X188896666Y-36144142D01*
X145240476Y-108799380D02*
X145859523Y-108799380D01*
X145526190Y-109180333D01*
X145669047Y-109180333D01*
X145764285Y-109227952D01*
X145811904Y-109275571D01*
X145859523Y-109370809D01*
X145859523Y-109608904D01*
X145811904Y-109704142D01*
X145764285Y-109751761D01*
X145669047Y-109799380D01*
X145383333Y-109799380D01*
X145288095Y-109751761D01*
X145240476Y-109704142D01*
X146240476Y-108894619D02*
X146288095Y-108847000D01*
X146383333Y-108799380D01*
X146621428Y-108799380D01*
X146716666Y-108847000D01*
X146764285Y-108894619D01*
X146811904Y-108989857D01*
X146811904Y-109085095D01*
X146764285Y-109227952D01*
X146192857Y-109799380D01*
X146811904Y-109799380D01*
X145240476Y-106259380D02*
X145859523Y-106259380D01*
X145526190Y-106640333D01*
X145669047Y-106640333D01*
X145764285Y-106687952D01*
X145811904Y-106735571D01*
X145859523Y-106830809D01*
X145859523Y-107068904D01*
X145811904Y-107164142D01*
X145764285Y-107211761D01*
X145669047Y-107259380D01*
X145383333Y-107259380D01*
X145288095Y-107211761D01*
X145240476Y-107164142D01*
X146811904Y-107259380D02*
X146240476Y-107259380D01*
X146526190Y-107259380D02*
X146526190Y-106259380D01*
X146430952Y-106402238D01*
X146335714Y-106497476D01*
X146240476Y-106545095D01*
X145240476Y-103719380D02*
X145859523Y-103719380D01*
X145526190Y-104100333D01*
X145669047Y-104100333D01*
X145764285Y-104147952D01*
X145811904Y-104195571D01*
X145859523Y-104290809D01*
X145859523Y-104528904D01*
X145811904Y-104624142D01*
X145764285Y-104671761D01*
X145669047Y-104719380D01*
X145383333Y-104719380D01*
X145288095Y-104671761D01*
X145240476Y-104624142D01*
X146478571Y-103719380D02*
X146573809Y-103719380D01*
X146669047Y-103767000D01*
X146716666Y-103814619D01*
X146764285Y-103909857D01*
X146811904Y-104100333D01*
X146811904Y-104338428D01*
X146764285Y-104528904D01*
X146716666Y-104624142D01*
X146669047Y-104671761D01*
X146573809Y-104719380D01*
X146478571Y-104719380D01*
X146383333Y-104671761D01*
X146335714Y-104624142D01*
X146288095Y-104528904D01*
X146240476Y-104338428D01*
X146240476Y-104100333D01*
X146288095Y-103909857D01*
X146335714Y-103814619D01*
X146383333Y-103767000D01*
X146478571Y-103719380D01*
X145288095Y-101274619D02*
X145335714Y-101227000D01*
X145430952Y-101179380D01*
X145669047Y-101179380D01*
X145764285Y-101227000D01*
X145811904Y-101274619D01*
X145859523Y-101369857D01*
X145859523Y-101465095D01*
X145811904Y-101607952D01*
X145240476Y-102179380D01*
X145859523Y-102179380D01*
X146335714Y-102179380D02*
X146526190Y-102179380D01*
X146621428Y-102131761D01*
X146669047Y-102084142D01*
X146764285Y-101941285D01*
X146811904Y-101750809D01*
X146811904Y-101369857D01*
X146764285Y-101274619D01*
X146716666Y-101227000D01*
X146621428Y-101179380D01*
X146430952Y-101179380D01*
X146335714Y-101227000D01*
X146288095Y-101274619D01*
X146240476Y-101369857D01*
X146240476Y-101607952D01*
X146288095Y-101703190D01*
X146335714Y-101750809D01*
X146430952Y-101798428D01*
X146621428Y-101798428D01*
X146716666Y-101750809D01*
X146764285Y-101703190D01*
X146811904Y-101607952D01*
X145288095Y-98734619D02*
X145335714Y-98687000D01*
X145430952Y-98639380D01*
X145669047Y-98639380D01*
X145764285Y-98687000D01*
X145811904Y-98734619D01*
X145859523Y-98829857D01*
X145859523Y-98925095D01*
X145811904Y-99067952D01*
X145240476Y-99639380D01*
X145859523Y-99639380D01*
X146430952Y-99067952D02*
X146335714Y-99020333D01*
X146288095Y-98972714D01*
X146240476Y-98877476D01*
X146240476Y-98829857D01*
X146288095Y-98734619D01*
X146335714Y-98687000D01*
X146430952Y-98639380D01*
X146621428Y-98639380D01*
X146716666Y-98687000D01*
X146764285Y-98734619D01*
X146811904Y-98829857D01*
X146811904Y-98877476D01*
X146764285Y-98972714D01*
X146716666Y-99020333D01*
X146621428Y-99067952D01*
X146430952Y-99067952D01*
X146335714Y-99115571D01*
X146288095Y-99163190D01*
X146240476Y-99258428D01*
X146240476Y-99448904D01*
X146288095Y-99544142D01*
X146335714Y-99591761D01*
X146430952Y-99639380D01*
X146621428Y-99639380D01*
X146716666Y-99591761D01*
X146764285Y-99544142D01*
X146811904Y-99448904D01*
X146811904Y-99258428D01*
X146764285Y-99163190D01*
X146716666Y-99115571D01*
X146621428Y-99067952D01*
X145288095Y-96194619D02*
X145335714Y-96147000D01*
X145430952Y-96099380D01*
X145669047Y-96099380D01*
X145764285Y-96147000D01*
X145811904Y-96194619D01*
X145859523Y-96289857D01*
X145859523Y-96385095D01*
X145811904Y-96527952D01*
X145240476Y-97099380D01*
X145859523Y-97099380D01*
X146192857Y-96099380D02*
X146859523Y-96099380D01*
X146430952Y-97099380D01*
X145288095Y-93654619D02*
X145335714Y-93607000D01*
X145430952Y-93559380D01*
X145669047Y-93559380D01*
X145764285Y-93607000D01*
X145811904Y-93654619D01*
X145859523Y-93749857D01*
X145859523Y-93845095D01*
X145811904Y-93987952D01*
X145240476Y-94559380D01*
X145859523Y-94559380D01*
X146716666Y-93559380D02*
X146526190Y-93559380D01*
X146430952Y-93607000D01*
X146383333Y-93654619D01*
X146288095Y-93797476D01*
X146240476Y-93987952D01*
X146240476Y-94368904D01*
X146288095Y-94464142D01*
X146335714Y-94511761D01*
X146430952Y-94559380D01*
X146621428Y-94559380D01*
X146716666Y-94511761D01*
X146764285Y-94464142D01*
X146811904Y-94368904D01*
X146811904Y-94130809D01*
X146764285Y-94035571D01*
X146716666Y-93987952D01*
X146621428Y-93940333D01*
X146430952Y-93940333D01*
X146335714Y-93987952D01*
X146288095Y-94035571D01*
X146240476Y-94130809D01*
X145288095Y-91114619D02*
X145335714Y-91067000D01*
X145430952Y-91019380D01*
X145669047Y-91019380D01*
X145764285Y-91067000D01*
X145811904Y-91114619D01*
X145859523Y-91209857D01*
X145859523Y-91305095D01*
X145811904Y-91447952D01*
X145240476Y-92019380D01*
X145859523Y-92019380D01*
X146764285Y-91019380D02*
X146288095Y-91019380D01*
X146240476Y-91495571D01*
X146288095Y-91447952D01*
X146383333Y-91400333D01*
X146621428Y-91400333D01*
X146716666Y-91447952D01*
X146764285Y-91495571D01*
X146811904Y-91590809D01*
X146811904Y-91828904D01*
X146764285Y-91924142D01*
X146716666Y-91971761D01*
X146621428Y-92019380D01*
X146383333Y-92019380D01*
X146288095Y-91971761D01*
X146240476Y-91924142D01*
X145288095Y-88574619D02*
X145335714Y-88527000D01*
X145430952Y-88479380D01*
X145669047Y-88479380D01*
X145764285Y-88527000D01*
X145811904Y-88574619D01*
X145859523Y-88669857D01*
X145859523Y-88765095D01*
X145811904Y-88907952D01*
X145240476Y-89479380D01*
X145859523Y-89479380D01*
X146716666Y-88812714D02*
X146716666Y-89479380D01*
X146478571Y-88431761D02*
X146240476Y-89146047D01*
X146859523Y-89146047D01*
X145288095Y-86034619D02*
X145335714Y-85987000D01*
X145430952Y-85939380D01*
X145669047Y-85939380D01*
X145764285Y-85987000D01*
X145811904Y-86034619D01*
X145859523Y-86129857D01*
X145859523Y-86225095D01*
X145811904Y-86367952D01*
X145240476Y-86939380D01*
X145859523Y-86939380D01*
X146192857Y-85939380D02*
X146811904Y-85939380D01*
X146478571Y-86320333D01*
X146621428Y-86320333D01*
X146716666Y-86367952D01*
X146764285Y-86415571D01*
X146811904Y-86510809D01*
X146811904Y-86748904D01*
X146764285Y-86844142D01*
X146716666Y-86891761D01*
X146621428Y-86939380D01*
X146335714Y-86939380D01*
X146240476Y-86891761D01*
X146192857Y-86844142D01*
X145288095Y-83494619D02*
X145335714Y-83447000D01*
X145430952Y-83399380D01*
X145669047Y-83399380D01*
X145764285Y-83447000D01*
X145811904Y-83494619D01*
X145859523Y-83589857D01*
X145859523Y-83685095D01*
X145811904Y-83827952D01*
X145240476Y-84399380D01*
X145859523Y-84399380D01*
X146240476Y-83494619D02*
X146288095Y-83447000D01*
X146383333Y-83399380D01*
X146621428Y-83399380D01*
X146716666Y-83447000D01*
X146764285Y-83494619D01*
X146811904Y-83589857D01*
X146811904Y-83685095D01*
X146764285Y-83827952D01*
X146192857Y-84399380D01*
X146811904Y-84399380D01*
X145288095Y-80954619D02*
X145335714Y-80907000D01*
X145430952Y-80859380D01*
X145669047Y-80859380D01*
X145764285Y-80907000D01*
X145811904Y-80954619D01*
X145859523Y-81049857D01*
X145859523Y-81145095D01*
X145811904Y-81287952D01*
X145240476Y-81859380D01*
X145859523Y-81859380D01*
X146811904Y-81859380D02*
X146240476Y-81859380D01*
X146526190Y-81859380D02*
X146526190Y-80859380D01*
X146430952Y-81002238D01*
X146335714Y-81097476D01*
X146240476Y-81145095D01*
X145288095Y-78414619D02*
X145335714Y-78367000D01*
X145430952Y-78319380D01*
X145669047Y-78319380D01*
X145764285Y-78367000D01*
X145811904Y-78414619D01*
X145859523Y-78509857D01*
X145859523Y-78605095D01*
X145811904Y-78747952D01*
X145240476Y-79319380D01*
X145859523Y-79319380D01*
X146478571Y-78319380D02*
X146573809Y-78319380D01*
X146669047Y-78367000D01*
X146716666Y-78414619D01*
X146764285Y-78509857D01*
X146811904Y-78700333D01*
X146811904Y-78938428D01*
X146764285Y-79128904D01*
X146716666Y-79224142D01*
X146669047Y-79271761D01*
X146573809Y-79319380D01*
X146478571Y-79319380D01*
X146383333Y-79271761D01*
X146335714Y-79224142D01*
X146288095Y-79128904D01*
X146240476Y-78938428D01*
X146240476Y-78700333D01*
X146288095Y-78509857D01*
X146335714Y-78414619D01*
X146383333Y-78367000D01*
X146478571Y-78319380D01*
X145859523Y-76779380D02*
X145288095Y-76779380D01*
X145573809Y-76779380D02*
X145573809Y-75779380D01*
X145478571Y-75922238D01*
X145383333Y-76017476D01*
X145288095Y-76065095D01*
X146335714Y-76779380D02*
X146526190Y-76779380D01*
X146621428Y-76731761D01*
X146669047Y-76684142D01*
X146764285Y-76541285D01*
X146811904Y-76350809D01*
X146811904Y-75969857D01*
X146764285Y-75874619D01*
X146716666Y-75827000D01*
X146621428Y-75779380D01*
X146430952Y-75779380D01*
X146335714Y-75827000D01*
X146288095Y-75874619D01*
X146240476Y-75969857D01*
X146240476Y-76207952D01*
X146288095Y-76303190D01*
X146335714Y-76350809D01*
X146430952Y-76398428D01*
X146621428Y-76398428D01*
X146716666Y-76350809D01*
X146764285Y-76303190D01*
X146811904Y-76207952D01*
X145859523Y-74239380D02*
X145288095Y-74239380D01*
X145573809Y-74239380D02*
X145573809Y-73239380D01*
X145478571Y-73382238D01*
X145383333Y-73477476D01*
X145288095Y-73525095D01*
X146430952Y-73667952D02*
X146335714Y-73620333D01*
X146288095Y-73572714D01*
X146240476Y-73477476D01*
X146240476Y-73429857D01*
X146288095Y-73334619D01*
X146335714Y-73287000D01*
X146430952Y-73239380D01*
X146621428Y-73239380D01*
X146716666Y-73287000D01*
X146764285Y-73334619D01*
X146811904Y-73429857D01*
X146811904Y-73477476D01*
X146764285Y-73572714D01*
X146716666Y-73620333D01*
X146621428Y-73667952D01*
X146430952Y-73667952D01*
X146335714Y-73715571D01*
X146288095Y-73763190D01*
X146240476Y-73858428D01*
X146240476Y-74048904D01*
X146288095Y-74144142D01*
X146335714Y-74191761D01*
X146430952Y-74239380D01*
X146621428Y-74239380D01*
X146716666Y-74191761D01*
X146764285Y-74144142D01*
X146811904Y-74048904D01*
X146811904Y-73858428D01*
X146764285Y-73763190D01*
X146716666Y-73715571D01*
X146621428Y-73667952D01*
X145859523Y-71699380D02*
X145288095Y-71699380D01*
X145573809Y-71699380D02*
X145573809Y-70699380D01*
X145478571Y-70842238D01*
X145383333Y-70937476D01*
X145288095Y-70985095D01*
X146192857Y-70699380D02*
X146859523Y-70699380D01*
X146430952Y-71699380D01*
X145859523Y-69159380D02*
X145288095Y-69159380D01*
X145573809Y-69159380D02*
X145573809Y-68159380D01*
X145478571Y-68302238D01*
X145383333Y-68397476D01*
X145288095Y-68445095D01*
X146716666Y-68159380D02*
X146526190Y-68159380D01*
X146430952Y-68207000D01*
X146383333Y-68254619D01*
X146288095Y-68397476D01*
X146240476Y-68587952D01*
X146240476Y-68968904D01*
X146288095Y-69064142D01*
X146335714Y-69111761D01*
X146430952Y-69159380D01*
X146621428Y-69159380D01*
X146716666Y-69111761D01*
X146764285Y-69064142D01*
X146811904Y-68968904D01*
X146811904Y-68730809D01*
X146764285Y-68635571D01*
X146716666Y-68587952D01*
X146621428Y-68540333D01*
X146430952Y-68540333D01*
X146335714Y-68587952D01*
X146288095Y-68635571D01*
X146240476Y-68730809D01*
X145859523Y-66619380D02*
X145288095Y-66619380D01*
X145573809Y-66619380D02*
X145573809Y-65619380D01*
X145478571Y-65762238D01*
X145383333Y-65857476D01*
X145288095Y-65905095D01*
X146764285Y-65619380D02*
X146288095Y-65619380D01*
X146240476Y-66095571D01*
X146288095Y-66047952D01*
X146383333Y-66000333D01*
X146621428Y-66000333D01*
X146716666Y-66047952D01*
X146764285Y-66095571D01*
X146811904Y-66190809D01*
X146811904Y-66428904D01*
X146764285Y-66524142D01*
X146716666Y-66571761D01*
X146621428Y-66619380D01*
X146383333Y-66619380D01*
X146288095Y-66571761D01*
X146240476Y-66524142D01*
X145859523Y-64079380D02*
X145288095Y-64079380D01*
X145573809Y-64079380D02*
X145573809Y-63079380D01*
X145478571Y-63222238D01*
X145383333Y-63317476D01*
X145288095Y-63365095D01*
X146716666Y-63412714D02*
X146716666Y-64079380D01*
X146478571Y-63031761D02*
X146240476Y-63746047D01*
X146859523Y-63746047D01*
X145859523Y-61539380D02*
X145288095Y-61539380D01*
X145573809Y-61539380D02*
X145573809Y-60539380D01*
X145478571Y-60682238D01*
X145383333Y-60777476D01*
X145288095Y-60825095D01*
X146192857Y-60539380D02*
X146811904Y-60539380D01*
X146478571Y-60920333D01*
X146621428Y-60920333D01*
X146716666Y-60967952D01*
X146764285Y-61015571D01*
X146811904Y-61110809D01*
X146811904Y-61348904D01*
X146764285Y-61444142D01*
X146716666Y-61491761D01*
X146621428Y-61539380D01*
X146335714Y-61539380D01*
X146240476Y-61491761D01*
X146192857Y-61444142D01*
X145859523Y-58999380D02*
X145288095Y-58999380D01*
X145573809Y-58999380D02*
X145573809Y-57999380D01*
X145478571Y-58142238D01*
X145383333Y-58237476D01*
X145288095Y-58285095D01*
X146240476Y-58094619D02*
X146288095Y-58047000D01*
X146383333Y-57999380D01*
X146621428Y-57999380D01*
X146716666Y-58047000D01*
X146764285Y-58094619D01*
X146811904Y-58189857D01*
X146811904Y-58285095D01*
X146764285Y-58427952D01*
X146192857Y-58999380D01*
X146811904Y-58999380D01*
X145859523Y-56459380D02*
X145288095Y-56459380D01*
X145573809Y-56459380D02*
X145573809Y-55459380D01*
X145478571Y-55602238D01*
X145383333Y-55697476D01*
X145288095Y-55745095D01*
X146811904Y-56459380D02*
X146240476Y-56459380D01*
X146526190Y-56459380D02*
X146526190Y-55459380D01*
X146430952Y-55602238D01*
X146335714Y-55697476D01*
X146240476Y-55745095D01*
X145859523Y-53919380D02*
X145288095Y-53919380D01*
X145573809Y-53919380D02*
X145573809Y-52919380D01*
X145478571Y-53062238D01*
X145383333Y-53157476D01*
X145288095Y-53205095D01*
X146478571Y-52919380D02*
X146573809Y-52919380D01*
X146669047Y-52967000D01*
X146716666Y-53014619D01*
X146764285Y-53109857D01*
X146811904Y-53300333D01*
X146811904Y-53538428D01*
X146764285Y-53728904D01*
X146716666Y-53824142D01*
X146669047Y-53871761D01*
X146573809Y-53919380D01*
X146478571Y-53919380D01*
X146383333Y-53871761D01*
X146335714Y-53824142D01*
X146288095Y-53728904D01*
X146240476Y-53538428D01*
X146240476Y-53300333D01*
X146288095Y-53109857D01*
X146335714Y-53014619D01*
X146383333Y-52967000D01*
X146478571Y-52919380D01*
X145859523Y-51379380D02*
X146050000Y-51379380D01*
X146145238Y-51331761D01*
X146192857Y-51284142D01*
X146288095Y-51141285D01*
X146335714Y-50950809D01*
X146335714Y-50569857D01*
X146288095Y-50474619D01*
X146240476Y-50427000D01*
X146145238Y-50379380D01*
X145954761Y-50379380D01*
X145859523Y-50427000D01*
X145811904Y-50474619D01*
X145764285Y-50569857D01*
X145764285Y-50807952D01*
X145811904Y-50903190D01*
X145859523Y-50950809D01*
X145954761Y-50998428D01*
X146145238Y-50998428D01*
X146240476Y-50950809D01*
X146288095Y-50903190D01*
X146335714Y-50807952D01*
X145954761Y-48267952D02*
X145859523Y-48220333D01*
X145811904Y-48172714D01*
X145764285Y-48077476D01*
X145764285Y-48029857D01*
X145811904Y-47934619D01*
X145859523Y-47887000D01*
X145954761Y-47839380D01*
X146145238Y-47839380D01*
X146240476Y-47887000D01*
X146288095Y-47934619D01*
X146335714Y-48029857D01*
X146335714Y-48077476D01*
X146288095Y-48172714D01*
X146240476Y-48220333D01*
X146145238Y-48267952D01*
X145954761Y-48267952D01*
X145859523Y-48315571D01*
X145811904Y-48363190D01*
X145764285Y-48458428D01*
X145764285Y-48648904D01*
X145811904Y-48744142D01*
X145859523Y-48791761D01*
X145954761Y-48839380D01*
X146145238Y-48839380D01*
X146240476Y-48791761D01*
X146288095Y-48744142D01*
X146335714Y-48648904D01*
X146335714Y-48458428D01*
X146288095Y-48363190D01*
X146240476Y-48315571D01*
X146145238Y-48267952D01*
X145716666Y-45299380D02*
X146383333Y-45299380D01*
X145954761Y-46299380D01*
X146240476Y-42759380D02*
X146050000Y-42759380D01*
X145954761Y-42807000D01*
X145907142Y-42854619D01*
X145811904Y-42997476D01*
X145764285Y-43187952D01*
X145764285Y-43568904D01*
X145811904Y-43664142D01*
X145859523Y-43711761D01*
X145954761Y-43759380D01*
X146145238Y-43759380D01*
X146240476Y-43711761D01*
X146288095Y-43664142D01*
X146335714Y-43568904D01*
X146335714Y-43330809D01*
X146288095Y-43235571D01*
X146240476Y-43187952D01*
X146145238Y-43140333D01*
X145954761Y-43140333D01*
X145859523Y-43187952D01*
X145811904Y-43235571D01*
X145764285Y-43330809D01*
X146288095Y-40219380D02*
X145811904Y-40219380D01*
X145764285Y-40695571D01*
X145811904Y-40647952D01*
X145907142Y-40600333D01*
X146145238Y-40600333D01*
X146240476Y-40647952D01*
X146288095Y-40695571D01*
X146335714Y-40790809D01*
X146335714Y-41028904D01*
X146288095Y-41124142D01*
X146240476Y-41171761D01*
X146145238Y-41219380D01*
X145907142Y-41219380D01*
X145811904Y-41171761D01*
X145764285Y-41124142D01*
X146240476Y-38012714D02*
X146240476Y-38679380D01*
X146002380Y-37631761D02*
X145764285Y-38346047D01*
X146383333Y-38346047D01*
X145716666Y-35139380D02*
X146335714Y-35139380D01*
X146002380Y-35520333D01*
X146145238Y-35520333D01*
X146240476Y-35567952D01*
X146288095Y-35615571D01*
X146335714Y-35710809D01*
X146335714Y-35948904D01*
X146288095Y-36044142D01*
X146240476Y-36091761D01*
X146145238Y-36139380D01*
X145859523Y-36139380D01*
X145764285Y-36091761D01*
X145716666Y-36044142D01*
X145764285Y-32694619D02*
X145811904Y-32647000D01*
X145907142Y-32599380D01*
X146145238Y-32599380D01*
X146240476Y-32647000D01*
X146288095Y-32694619D01*
X146335714Y-32789857D01*
X146335714Y-32885095D01*
X146288095Y-33027952D01*
X145716666Y-33599380D01*
X146335714Y-33599380D01*
X146335714Y-31059380D02*
X145764285Y-31059380D01*
X146050000Y-31059380D02*
X146050000Y-30059380D01*
X145954761Y-30202238D01*
X145859523Y-30297476D01*
X145764285Y-30345095D01*
D12*
X133637261Y-114504285D02*
X133905119Y-116170952D01*
X134530119Y-114980476D01*
X134857500Y-116170952D01*
X135542023Y-114504285D01*
X136256309Y-114504285D02*
X136524166Y-116170952D01*
X137149166Y-114980476D01*
X137476547Y-116170952D01*
X138161071Y-114504285D01*
X138875357Y-114504285D02*
X139143214Y-116170952D01*
X139768214Y-114980476D01*
X140095595Y-116170952D01*
X140780119Y-114504285D01*
X141553928Y-115932857D02*
X141658095Y-116051904D01*
X141524166Y-116170952D01*
X141420000Y-116051904D01*
X141553928Y-115932857D01*
X141524166Y-116170952D01*
X142922976Y-114504285D02*
X142714642Y-116170952D01*
X142893214Y-114742380D02*
X143027142Y-114623333D01*
X143280119Y-114504285D01*
X143637261Y-114504285D01*
X143860476Y-114623333D01*
X143949761Y-114861428D01*
X143786071Y-116170952D01*
X144976547Y-116170952D02*
X145184880Y-114504285D01*
X145289047Y-113670952D02*
X145155119Y-113790000D01*
X145259285Y-113909047D01*
X145393214Y-113790000D01*
X145289047Y-113670952D01*
X145259285Y-113909047D01*
X146018214Y-114504285D02*
X146970595Y-114504285D01*
X146167023Y-116170952D02*
X146434880Y-114028095D01*
X146583690Y-113790000D01*
X146836666Y-113670952D01*
X147074761Y-113670952D01*
X147446785Y-114504285D02*
X148399166Y-114504285D01*
X147908095Y-113670952D02*
X147640238Y-115813809D01*
X147729523Y-116051904D01*
X147952738Y-116170952D01*
X148190833Y-116170952D01*
X148994404Y-114504285D02*
X149381309Y-116170952D01*
X150184880Y-114504285D02*
X149381309Y-116170952D01*
X149068809Y-116766190D01*
X148934880Y-116885238D01*
X148681904Y-117004285D01*
X150958690Y-115932857D02*
X151062857Y-116051904D01*
X150928928Y-116170952D01*
X150824761Y-116051904D01*
X150958690Y-115932857D01*
X150928928Y-116170952D01*
X152327738Y-114504285D02*
X152015238Y-117004285D01*
X152312857Y-114623333D02*
X152565833Y-114504285D01*
X153042023Y-114504285D01*
X153265238Y-114623333D01*
X153369404Y-114742380D01*
X153458690Y-114980476D01*
X153369404Y-115694761D01*
X153220595Y-115932857D01*
X153086666Y-116051904D01*
X152833690Y-116170952D01*
X152357500Y-116170952D01*
X152134285Y-116051904D01*
X155452738Y-116170952D02*
X155616428Y-114861428D01*
X155527142Y-114623333D01*
X155303928Y-114504285D01*
X154827738Y-114504285D01*
X154574761Y-114623333D01*
X155467619Y-116051904D02*
X155214642Y-116170952D01*
X154619404Y-116170952D01*
X154396190Y-116051904D01*
X154306904Y-115813809D01*
X154336666Y-115575714D01*
X154485476Y-115337619D01*
X154738452Y-115218571D01*
X155333690Y-115218571D01*
X155586666Y-115099523D01*
X156643214Y-116170952D02*
X156851547Y-114504285D01*
X156792023Y-114980476D02*
X156940833Y-114742380D01*
X157074761Y-114623333D01*
X157327738Y-114504285D01*
X157565833Y-114504285D01*
X158042023Y-114504285D02*
X158994404Y-114504285D01*
X158503333Y-113670952D02*
X158235476Y-115813809D01*
X158324761Y-116051904D01*
X158547976Y-116170952D01*
X158786071Y-116170952D01*
X159515238Y-116051904D02*
X159738452Y-116170952D01*
X160214642Y-116170952D01*
X160467619Y-116051904D01*
X160616428Y-115813809D01*
X160631309Y-115694761D01*
X160542023Y-115456666D01*
X160318809Y-115337619D01*
X159961666Y-115337619D01*
X159738452Y-115218571D01*
X159649166Y-114980476D01*
X159664047Y-114861428D01*
X159812857Y-114623333D01*
X160065833Y-114504285D01*
X160422976Y-114504285D01*
X160646190Y-114623333D01*
D10*
X138857142Y-26321428D02*
X138928571Y-26250000D01*
X139071428Y-26178571D01*
X139428571Y-26178571D01*
X139571428Y-26250000D01*
X139642857Y-26321428D01*
X139714285Y-26464285D01*
X139714285Y-26607142D01*
X139642857Y-26821428D01*
X138785714Y-27678571D01*
X139714285Y-27678571D01*
X140357142Y-27107142D02*
X141500000Y-27107142D01*
X142214285Y-27678571D02*
X142214285Y-26178571D01*
X142785714Y-26178571D01*
X142928571Y-26250000D01*
X143000000Y-26321428D01*
X143071428Y-26464285D01*
X143071428Y-26678571D01*
X143000000Y-26821428D01*
X142928571Y-26892857D01*
X142785714Y-26964285D01*
X142214285Y-26964285D01*
X143714285Y-27678571D02*
X143714285Y-26678571D01*
X143714285Y-26178571D02*
X143642857Y-26250000D01*
X143714285Y-26321428D01*
X143785714Y-26250000D01*
X143714285Y-26178571D01*
X143714285Y-26321428D01*
X144428571Y-26678571D02*
X144428571Y-27678571D01*
X144428571Y-26821428D02*
X144500000Y-26750000D01*
X144642857Y-26678571D01*
X144857142Y-26678571D01*
X145000000Y-26750000D01*
X145071428Y-26892857D01*
X145071428Y-27678571D01*
X146857142Y-27607142D02*
X147071428Y-27678571D01*
X147428571Y-27678571D01*
X147571428Y-27607142D01*
X147642857Y-27535714D01*
X147714285Y-27392857D01*
X147714285Y-27250000D01*
X147642857Y-27107142D01*
X147571428Y-27035714D01*
X147428571Y-26964285D01*
X147142857Y-26892857D01*
X147000000Y-26821428D01*
X146928571Y-26750000D01*
X146857142Y-26607142D01*
X146857142Y-26464285D01*
X146928571Y-26321428D01*
X147000000Y-26250000D01*
X147142857Y-26178571D01*
X147500000Y-26178571D01*
X147714285Y-26250000D01*
X148357142Y-26678571D02*
X148357142Y-28178571D01*
X148357142Y-26750000D02*
X148500000Y-26678571D01*
X148785714Y-26678571D01*
X148928571Y-26750000D01*
X149000000Y-26821428D01*
X149071428Y-26964285D01*
X149071428Y-27392857D01*
X149000000Y-27535714D01*
X148928571Y-27607142D01*
X148785714Y-27678571D01*
X148500000Y-27678571D01*
X148357142Y-27607142D01*
X150357142Y-27678571D02*
X150357142Y-26892857D01*
X150285714Y-26750000D01*
X150142857Y-26678571D01*
X149857142Y-26678571D01*
X149714285Y-26750000D01*
X150357142Y-27607142D02*
X150214285Y-27678571D01*
X149857142Y-27678571D01*
X149714285Y-27607142D01*
X149642857Y-27464285D01*
X149642857Y-27321428D01*
X149714285Y-27178571D01*
X149857142Y-27107142D01*
X150214285Y-27107142D01*
X150357142Y-27035714D01*
X151714285Y-27607142D02*
X151571428Y-27678571D01*
X151285714Y-27678571D01*
X151142857Y-27607142D01*
X151071428Y-27535714D01*
X151000000Y-27392857D01*
X151000000Y-26964285D01*
X151071428Y-26821428D01*
X151142857Y-26750000D01*
X151285714Y-26678571D01*
X151571428Y-26678571D01*
X151714285Y-26750000D01*
X152357142Y-27678571D02*
X152357142Y-26678571D01*
X152357142Y-26178571D02*
X152285714Y-26250000D01*
X152357142Y-26321428D01*
X152428571Y-26250000D01*
X152357142Y-26178571D01*
X152357142Y-26321428D01*
X153071428Y-26678571D02*
X153071428Y-27678571D01*
X153071428Y-26821428D02*
X153142857Y-26750000D01*
X153285714Y-26678571D01*
X153500000Y-26678571D01*
X153642857Y-26750000D01*
X153714285Y-26892857D01*
X153714285Y-27678571D01*
X155071428Y-26678571D02*
X155071428Y-27892857D01*
X155000000Y-28035714D01*
X154928571Y-28107142D01*
X154785714Y-28178571D01*
X154571428Y-28178571D01*
X154428571Y-28107142D01*
X155071428Y-27607142D02*
X154928571Y-27678571D01*
X154642857Y-27678571D01*
X154500000Y-27607142D01*
X154428571Y-27535714D01*
X154357142Y-27392857D01*
X154357142Y-26964285D01*
X154428571Y-26821428D01*
X154500000Y-26750000D01*
X154642857Y-26678571D01*
X154928571Y-26678571D01*
X155071428Y-26750000D01*
X183285714Y-26178571D02*
X184214285Y-26178571D01*
X183714285Y-26750000D01*
X183928571Y-26750000D01*
X184071428Y-26821428D01*
X184142857Y-26892857D01*
X184214285Y-27035714D01*
X184214285Y-27392857D01*
X184142857Y-27535714D01*
X184071428Y-27607142D01*
X183928571Y-27678571D01*
X183500000Y-27678571D01*
X183357142Y-27607142D01*
X183285714Y-27535714D01*
X184857142Y-27107142D02*
X186000000Y-27107142D01*
X186714285Y-27678571D02*
X186714285Y-26178571D01*
X187285714Y-26178571D01*
X187428571Y-26250000D01*
X187500000Y-26321428D01*
X187571428Y-26464285D01*
X187571428Y-26678571D01*
X187500000Y-26821428D01*
X187428571Y-26892857D01*
X187285714Y-26964285D01*
X186714285Y-26964285D01*
X188214285Y-27678571D02*
X188214285Y-26678571D01*
X188214285Y-26178571D02*
X188142857Y-26250000D01*
X188214285Y-26321428D01*
X188285714Y-26250000D01*
X188214285Y-26178571D01*
X188214285Y-26321428D01*
X188928571Y-26678571D02*
X188928571Y-27678571D01*
X188928571Y-26821428D02*
X189000000Y-26750000D01*
X189142857Y-26678571D01*
X189357142Y-26678571D01*
X189500000Y-26750000D01*
X189571428Y-26892857D01*
X189571428Y-27678571D01*
X191357142Y-27607142D02*
X191571428Y-27678571D01*
X191928571Y-27678571D01*
X192071428Y-27607142D01*
X192142857Y-27535714D01*
X192214285Y-27392857D01*
X192214285Y-27250000D01*
X192142857Y-27107142D01*
X192071428Y-27035714D01*
X191928571Y-26964285D01*
X191642857Y-26892857D01*
X191500000Y-26821428D01*
X191428571Y-26750000D01*
X191357142Y-26607142D01*
X191357142Y-26464285D01*
X191428571Y-26321428D01*
X191500000Y-26250000D01*
X191642857Y-26178571D01*
X192000000Y-26178571D01*
X192214285Y-26250000D01*
X192857142Y-26678571D02*
X192857142Y-28178571D01*
X192857142Y-26750000D02*
X193000000Y-26678571D01*
X193285714Y-26678571D01*
X193428571Y-26750000D01*
X193500000Y-26821428D01*
X193571428Y-26964285D01*
X193571428Y-27392857D01*
X193500000Y-27535714D01*
X193428571Y-27607142D01*
X193285714Y-27678571D01*
X193000000Y-27678571D01*
X192857142Y-27607142D01*
X194857142Y-27678571D02*
X194857142Y-26892857D01*
X194785714Y-26750000D01*
X194642857Y-26678571D01*
X194357142Y-26678571D01*
X194214285Y-26750000D01*
X194857142Y-27607142D02*
X194714285Y-27678571D01*
X194357142Y-27678571D01*
X194214285Y-27607142D01*
X194142857Y-27464285D01*
X194142857Y-27321428D01*
X194214285Y-27178571D01*
X194357142Y-27107142D01*
X194714285Y-27107142D01*
X194857142Y-27035714D01*
X196214285Y-27607142D02*
X196071428Y-27678571D01*
X195785714Y-27678571D01*
X195642857Y-27607142D01*
X195571428Y-27535714D01*
X195500000Y-27392857D01*
X195500000Y-26964285D01*
X195571428Y-26821428D01*
X195642857Y-26750000D01*
X195785714Y-26678571D01*
X196071428Y-26678571D01*
X196214285Y-26750000D01*
X196857142Y-27678571D02*
X196857142Y-26678571D01*
X196857142Y-26178571D02*
X196785714Y-26250000D01*
X196857142Y-26321428D01*
X196928571Y-26250000D01*
X196857142Y-26178571D01*
X196857142Y-26321428D01*
X197571428Y-26678571D02*
X197571428Y-27678571D01*
X197571428Y-26821428D02*
X197642857Y-26750000D01*
X197785714Y-26678571D01*
X198000000Y-26678571D01*
X198142857Y-26750000D01*
X198214285Y-26892857D01*
X198214285Y-27678571D01*
X199571428Y-26678571D02*
X199571428Y-27892857D01*
X199500000Y-28035714D01*
X199428571Y-28107142D01*
X199285714Y-28178571D01*
X199071428Y-28178571D01*
X198928571Y-28107142D01*
X199571428Y-27607142D02*
X199428571Y-27678571D01*
X199142857Y-27678571D01*
X199000000Y-27607142D01*
X198928571Y-27535714D01*
X198857142Y-27392857D01*
X198857142Y-26964285D01*
X198928571Y-26821428D01*
X199000000Y-26750000D01*
X199142857Y-26678571D01*
X199428571Y-26678571D01*
X199571428Y-26750000D01*
D13*
X123500000Y-109500000D02*
X123500000Y-30500000D01*
X130000000Y-30500000D02*
X130000000Y-109500000D01*
X216500000Y-109500000D02*
X216500000Y-30500000D01*
X210000000Y-30500000D02*
X210000000Y-109500000D01*
X173000000Y-112000000D02*
X173000000Y-28000000D01*
X167000000Y-28000000D02*
X167000000Y-112000000D01*
X218605551Y-25000000D02*
G75*
G03X218605551Y-25000000I-3605551J0D01*
G01*
X128605551Y-25000000D02*
G75*
G03X128605551Y-25000000I-3605551J0D01*
G01*
X128605551Y-115000000D02*
G75*
G03X128605551Y-115000000I-3605551J0D01*
G01*
X218605551Y-115000000D02*
G75*
G03X218605551Y-115000000I-3605551J0D01*
G01*
D14*
G04 #@! TO.C,REF\002A\002A\002A*
G36*
X206555814Y-22218931D02*
X206639635Y-22663555D01*
X206948920Y-22791053D01*
X207258206Y-22918551D01*
X207629246Y-22666246D01*
X207733157Y-22595996D01*
X207827087Y-22533272D01*
X207906652Y-22480938D01*
X207967470Y-22441857D01*
X208005157Y-22418893D01*
X208015421Y-22413942D01*
X208033910Y-22426676D01*
X208073420Y-22461882D01*
X208129522Y-22515062D01*
X208197787Y-22581718D01*
X208273786Y-22657354D01*
X208353092Y-22737472D01*
X208431275Y-22817574D01*
X208503907Y-22893164D01*
X208566559Y-22959745D01*
X208614803Y-23012818D01*
X208644210Y-23047887D01*
X208651241Y-23059623D01*
X208641123Y-23081260D01*
X208612759Y-23128662D01*
X208569129Y-23197193D01*
X208513218Y-23282215D01*
X208448006Y-23379093D01*
X208410219Y-23434350D01*
X208341343Y-23535248D01*
X208280140Y-23626299D01*
X208229578Y-23702970D01*
X208192628Y-23760728D01*
X208172258Y-23795043D01*
X208169197Y-23802254D01*
X208176136Y-23822748D01*
X208195051Y-23870513D01*
X208223087Y-23938832D01*
X208257391Y-24020989D01*
X208295109Y-24110270D01*
X208333387Y-24199958D01*
X208369370Y-24283338D01*
X208400206Y-24353694D01*
X208423039Y-24404310D01*
X208435017Y-24428471D01*
X208435724Y-24429422D01*
X208454531Y-24434036D01*
X208504618Y-24444328D01*
X208580793Y-24459287D01*
X208677865Y-24477901D01*
X208790643Y-24499159D01*
X208856442Y-24511418D01*
X208976950Y-24534362D01*
X209085797Y-24556195D01*
X209177476Y-24575722D01*
X209246481Y-24591748D01*
X209287304Y-24603079D01*
X209295511Y-24606674D01*
X209303548Y-24631006D01*
X209310033Y-24685959D01*
X209314970Y-24765108D01*
X209318364Y-24862026D01*
X209320218Y-24970287D01*
X209320538Y-25083465D01*
X209319327Y-25195135D01*
X209316590Y-25298868D01*
X209312331Y-25388241D01*
X209306555Y-25456826D01*
X209299267Y-25498197D01*
X209294895Y-25506810D01*
X209268764Y-25517133D01*
X209213393Y-25531892D01*
X209136107Y-25549352D01*
X209044230Y-25567780D01*
X209012158Y-25573741D01*
X208857524Y-25602066D01*
X208735375Y-25624876D01*
X208641673Y-25643080D01*
X208572384Y-25657583D01*
X208523471Y-25669292D01*
X208490897Y-25679115D01*
X208470628Y-25687956D01*
X208458626Y-25696724D01*
X208456947Y-25698457D01*
X208440184Y-25726371D01*
X208414614Y-25780695D01*
X208382788Y-25854777D01*
X208347260Y-25941965D01*
X208310583Y-26035608D01*
X208275311Y-26129052D01*
X208243996Y-26215647D01*
X208219193Y-26288740D01*
X208203454Y-26341678D01*
X208199332Y-26367811D01*
X208199676Y-26368726D01*
X208213641Y-26390086D01*
X208245322Y-26437084D01*
X208291391Y-26504827D01*
X208348518Y-26588423D01*
X208413373Y-26682982D01*
X208431843Y-26709854D01*
X208497699Y-26807275D01*
X208555650Y-26896163D01*
X208602538Y-26971412D01*
X208635207Y-27027920D01*
X208650500Y-27060581D01*
X208651241Y-27064593D01*
X208638392Y-27085684D01*
X208602888Y-27127464D01*
X208549293Y-27185445D01*
X208482171Y-27255135D01*
X208406087Y-27332045D01*
X208325604Y-27411683D01*
X208245287Y-27489561D01*
X208169699Y-27561186D01*
X208103405Y-27622070D01*
X208050969Y-27667721D01*
X208016955Y-27693650D01*
X208007545Y-27697883D01*
X207985643Y-27687912D01*
X207940800Y-27661020D01*
X207880321Y-27621736D01*
X207833789Y-27590117D01*
X207749475Y-27532098D01*
X207649626Y-27463784D01*
X207549473Y-27395579D01*
X207495627Y-27359075D01*
X207313371Y-27235800D01*
X207160381Y-27318520D01*
X207090682Y-27354759D01*
X207031414Y-27382926D01*
X206991311Y-27398991D01*
X206981103Y-27401226D01*
X206968829Y-27384722D01*
X206944613Y-27338082D01*
X206910263Y-27265609D01*
X206867588Y-27171606D01*
X206818394Y-27060374D01*
X206764490Y-26936215D01*
X206707684Y-26803432D01*
X206649782Y-26666327D01*
X206592593Y-26529202D01*
X206537924Y-26396358D01*
X206487584Y-26272098D01*
X206443380Y-26160725D01*
X206407119Y-26066539D01*
X206380609Y-25993844D01*
X206365658Y-25946941D01*
X206363254Y-25930833D01*
X206382311Y-25910286D01*
X206424036Y-25876933D01*
X206479706Y-25837702D01*
X206484378Y-25834599D01*
X206628264Y-25719423D01*
X206744283Y-25585053D01*
X206831430Y-25435784D01*
X206888699Y-25275913D01*
X206915086Y-25109737D01*
X206909585Y-24941552D01*
X206871190Y-24775655D01*
X206798895Y-24616342D01*
X206777626Y-24581487D01*
X206666996Y-24440737D01*
X206536302Y-24327714D01*
X206390064Y-24243003D01*
X206232808Y-24187194D01*
X206069057Y-24160874D01*
X205903333Y-24164630D01*
X205740162Y-24199050D01*
X205584065Y-24264723D01*
X205439567Y-24362235D01*
X205394869Y-24401813D01*
X205281112Y-24525703D01*
X205198218Y-24656124D01*
X205141356Y-24802315D01*
X205109687Y-24947088D01*
X205101869Y-25109860D01*
X205127938Y-25273440D01*
X205185245Y-25432298D01*
X205271144Y-25580906D01*
X205382986Y-25713735D01*
X205518123Y-25825256D01*
X205535883Y-25837011D01*
X205592150Y-25875508D01*
X205634923Y-25908863D01*
X205655372Y-25930160D01*
X205655669Y-25930833D01*
X205651279Y-25953871D01*
X205633876Y-26006157D01*
X205605268Y-26083390D01*
X205567265Y-26181268D01*
X205521674Y-26295491D01*
X205470303Y-26421758D01*
X205414962Y-26555767D01*
X205357458Y-26693218D01*
X205299601Y-26829808D01*
X205243198Y-26961237D01*
X205190058Y-27083205D01*
X205141990Y-27191409D01*
X205100801Y-27281549D01*
X205068301Y-27349323D01*
X205046297Y-27390430D01*
X205037436Y-27401226D01*
X205010360Y-27392819D01*
X204959697Y-27370272D01*
X204894183Y-27337613D01*
X204858159Y-27318520D01*
X204705168Y-27235800D01*
X204522912Y-27359075D01*
X204429875Y-27422228D01*
X204328015Y-27491727D01*
X204232562Y-27557165D01*
X204184750Y-27590117D01*
X204117505Y-27635273D01*
X204060564Y-27671057D01*
X204021354Y-27692938D01*
X204008619Y-27697563D01*
X203990083Y-27685085D01*
X203949059Y-27650252D01*
X203889525Y-27596678D01*
X203815458Y-27527983D01*
X203730835Y-27447781D01*
X203677315Y-27396286D01*
X203583681Y-27304286D01*
X203502759Y-27221999D01*
X203437823Y-27152945D01*
X203392142Y-27100644D01*
X203368989Y-27068616D01*
X203366768Y-27062116D01*
X203377076Y-27037394D01*
X203405561Y-26987405D01*
X203449063Y-26917212D01*
X203504423Y-26831875D01*
X203568480Y-26736456D01*
X203586697Y-26709854D01*
X203653073Y-26613167D01*
X203712622Y-26526117D01*
X203762016Y-26453595D01*
X203797925Y-26400493D01*
X203817019Y-26371703D01*
X203818864Y-26368726D01*
X203816105Y-26345782D01*
X203801462Y-26295336D01*
X203777487Y-26224041D01*
X203746734Y-26138547D01*
X203711756Y-26045507D01*
X203675107Y-25951574D01*
X203639339Y-25863399D01*
X203607006Y-25787634D01*
X203580662Y-25730931D01*
X203562858Y-25699943D01*
X203561593Y-25698457D01*
X203550706Y-25689601D01*
X203532318Y-25680843D01*
X203502394Y-25671277D01*
X203456897Y-25659996D01*
X203391791Y-25646093D01*
X203303039Y-25628663D01*
X203186607Y-25606798D01*
X203038458Y-25579591D01*
X203006382Y-25573741D01*
X202911314Y-25555374D01*
X202828435Y-25537405D01*
X202765070Y-25521569D01*
X202728542Y-25509600D01*
X202723644Y-25506810D01*
X202715573Y-25482072D01*
X202709013Y-25426790D01*
X202703967Y-25347389D01*
X202700441Y-25250296D01*
X202698439Y-25141938D01*
X202697964Y-25028740D01*
X202699023Y-24917128D01*
X202701618Y-24813529D01*
X202705754Y-24724368D01*
X202711437Y-24656072D01*
X202718669Y-24615066D01*
X202723029Y-24606674D01*
X202747302Y-24598208D01*
X202802574Y-24584435D01*
X202883338Y-24566550D01*
X202984088Y-24545748D01*
X203099317Y-24523223D01*
X203162098Y-24511418D01*
X203281213Y-24489151D01*
X203387435Y-24468979D01*
X203475573Y-24451915D01*
X203540434Y-24438969D01*
X203576826Y-24431155D01*
X203582816Y-24429422D01*
X203592939Y-24409890D01*
X203614338Y-24362843D01*
X203644161Y-24295003D01*
X203679555Y-24213091D01*
X203717668Y-24123828D01*
X203755647Y-24033935D01*
X203790640Y-23950135D01*
X203819794Y-23879147D01*
X203840257Y-23827694D01*
X203849177Y-23802497D01*
X203849343Y-23801396D01*
X203839231Y-23781519D01*
X203810883Y-23735777D01*
X203767277Y-23668717D01*
X203711394Y-23584884D01*
X203646213Y-23488826D01*
X203608321Y-23433650D01*
X203539275Y-23332481D01*
X203477950Y-23240630D01*
X203427337Y-23162744D01*
X203390429Y-23103469D01*
X203370218Y-23067451D01*
X203367299Y-23059377D01*
X203379847Y-23040584D01*
X203414537Y-23000457D01*
X203466937Y-22943493D01*
X203532616Y-22874185D01*
X203607144Y-22797031D01*
X203686087Y-22716525D01*
X203765017Y-22637163D01*
X203839500Y-22563440D01*
X203905106Y-22499852D01*
X203957404Y-22450894D01*
X203991961Y-22421061D01*
X204003522Y-22413942D01*
X204022346Y-22423953D01*
X204067369Y-22452078D01*
X204134213Y-22495454D01*
X204218501Y-22551218D01*
X204315856Y-22616506D01*
X204389293Y-22666246D01*
X204760333Y-22918551D01*
X205378905Y-22663555D01*
X205462725Y-22218931D01*
X205546546Y-21774307D01*
X206471994Y-21774307D01*
X206555814Y-22218931D01*
X206555814Y-22218931D01*
G37*
X206555814Y-22218931D02*
X206639635Y-22663555D01*
X206948920Y-22791053D01*
X207258206Y-22918551D01*
X207629246Y-22666246D01*
X207733157Y-22595996D01*
X207827087Y-22533272D01*
X207906652Y-22480938D01*
X207967470Y-22441857D01*
X208005157Y-22418893D01*
X208015421Y-22413942D01*
X208033910Y-22426676D01*
X208073420Y-22461882D01*
X208129522Y-22515062D01*
X208197787Y-22581718D01*
X208273786Y-22657354D01*
X208353092Y-22737472D01*
X208431275Y-22817574D01*
X208503907Y-22893164D01*
X208566559Y-22959745D01*
X208614803Y-23012818D01*
X208644210Y-23047887D01*
X208651241Y-23059623D01*
X208641123Y-23081260D01*
X208612759Y-23128662D01*
X208569129Y-23197193D01*
X208513218Y-23282215D01*
X208448006Y-23379093D01*
X208410219Y-23434350D01*
X208341343Y-23535248D01*
X208280140Y-23626299D01*
X208229578Y-23702970D01*
X208192628Y-23760728D01*
X208172258Y-23795043D01*
X208169197Y-23802254D01*
X208176136Y-23822748D01*
X208195051Y-23870513D01*
X208223087Y-23938832D01*
X208257391Y-24020989D01*
X208295109Y-24110270D01*
X208333387Y-24199958D01*
X208369370Y-24283338D01*
X208400206Y-24353694D01*
X208423039Y-24404310D01*
X208435017Y-24428471D01*
X208435724Y-24429422D01*
X208454531Y-24434036D01*
X208504618Y-24444328D01*
X208580793Y-24459287D01*
X208677865Y-24477901D01*
X208790643Y-24499159D01*
X208856442Y-24511418D01*
X208976950Y-24534362D01*
X209085797Y-24556195D01*
X209177476Y-24575722D01*
X209246481Y-24591748D01*
X209287304Y-24603079D01*
X209295511Y-24606674D01*
X209303548Y-24631006D01*
X209310033Y-24685959D01*
X209314970Y-24765108D01*
X209318364Y-24862026D01*
X209320218Y-24970287D01*
X209320538Y-25083465D01*
X209319327Y-25195135D01*
X209316590Y-25298868D01*
X209312331Y-25388241D01*
X209306555Y-25456826D01*
X209299267Y-25498197D01*
X209294895Y-25506810D01*
X209268764Y-25517133D01*
X209213393Y-25531892D01*
X209136107Y-25549352D01*
X209044230Y-25567780D01*
X209012158Y-25573741D01*
X208857524Y-25602066D01*
X208735375Y-25624876D01*
X208641673Y-25643080D01*
X208572384Y-25657583D01*
X208523471Y-25669292D01*
X208490897Y-25679115D01*
X208470628Y-25687956D01*
X208458626Y-25696724D01*
X208456947Y-25698457D01*
X208440184Y-25726371D01*
X208414614Y-25780695D01*
X208382788Y-25854777D01*
X208347260Y-25941965D01*
X208310583Y-26035608D01*
X208275311Y-26129052D01*
X208243996Y-26215647D01*
X208219193Y-26288740D01*
X208203454Y-26341678D01*
X208199332Y-26367811D01*
X208199676Y-26368726D01*
X208213641Y-26390086D01*
X208245322Y-26437084D01*
X208291391Y-26504827D01*
X208348518Y-26588423D01*
X208413373Y-26682982D01*
X208431843Y-26709854D01*
X208497699Y-26807275D01*
X208555650Y-26896163D01*
X208602538Y-26971412D01*
X208635207Y-27027920D01*
X208650500Y-27060581D01*
X208651241Y-27064593D01*
X208638392Y-27085684D01*
X208602888Y-27127464D01*
X208549293Y-27185445D01*
X208482171Y-27255135D01*
X208406087Y-27332045D01*
X208325604Y-27411683D01*
X208245287Y-27489561D01*
X208169699Y-27561186D01*
X208103405Y-27622070D01*
X208050969Y-27667721D01*
X208016955Y-27693650D01*
X208007545Y-27697883D01*
X207985643Y-27687912D01*
X207940800Y-27661020D01*
X207880321Y-27621736D01*
X207833789Y-27590117D01*
X207749475Y-27532098D01*
X207649626Y-27463784D01*
X207549473Y-27395579D01*
X207495627Y-27359075D01*
X207313371Y-27235800D01*
X207160381Y-27318520D01*
X207090682Y-27354759D01*
X207031414Y-27382926D01*
X206991311Y-27398991D01*
X206981103Y-27401226D01*
X206968829Y-27384722D01*
X206944613Y-27338082D01*
X206910263Y-27265609D01*
X206867588Y-27171606D01*
X206818394Y-27060374D01*
X206764490Y-26936215D01*
X206707684Y-26803432D01*
X206649782Y-26666327D01*
X206592593Y-26529202D01*
X206537924Y-26396358D01*
X206487584Y-26272098D01*
X206443380Y-26160725D01*
X206407119Y-26066539D01*
X206380609Y-25993844D01*
X206365658Y-25946941D01*
X206363254Y-25930833D01*
X206382311Y-25910286D01*
X206424036Y-25876933D01*
X206479706Y-25837702D01*
X206484378Y-25834599D01*
X206628264Y-25719423D01*
X206744283Y-25585053D01*
X206831430Y-25435784D01*
X206888699Y-25275913D01*
X206915086Y-25109737D01*
X206909585Y-24941552D01*
X206871190Y-24775655D01*
X206798895Y-24616342D01*
X206777626Y-24581487D01*
X206666996Y-24440737D01*
X206536302Y-24327714D01*
X206390064Y-24243003D01*
X206232808Y-24187194D01*
X206069057Y-24160874D01*
X205903333Y-24164630D01*
X205740162Y-24199050D01*
X205584065Y-24264723D01*
X205439567Y-24362235D01*
X205394869Y-24401813D01*
X205281112Y-24525703D01*
X205198218Y-24656124D01*
X205141356Y-24802315D01*
X205109687Y-24947088D01*
X205101869Y-25109860D01*
X205127938Y-25273440D01*
X205185245Y-25432298D01*
X205271144Y-25580906D01*
X205382986Y-25713735D01*
X205518123Y-25825256D01*
X205535883Y-25837011D01*
X205592150Y-25875508D01*
X205634923Y-25908863D01*
X205655372Y-25930160D01*
X205655669Y-25930833D01*
X205651279Y-25953871D01*
X205633876Y-26006157D01*
X205605268Y-26083390D01*
X205567265Y-26181268D01*
X205521674Y-26295491D01*
X205470303Y-26421758D01*
X205414962Y-26555767D01*
X205357458Y-26693218D01*
X205299601Y-26829808D01*
X205243198Y-26961237D01*
X205190058Y-27083205D01*
X205141990Y-27191409D01*
X205100801Y-27281549D01*
X205068301Y-27349323D01*
X205046297Y-27390430D01*
X205037436Y-27401226D01*
X205010360Y-27392819D01*
X204959697Y-27370272D01*
X204894183Y-27337613D01*
X204858159Y-27318520D01*
X204705168Y-27235800D01*
X204522912Y-27359075D01*
X204429875Y-27422228D01*
X204328015Y-27491727D01*
X204232562Y-27557165D01*
X204184750Y-27590117D01*
X204117505Y-27635273D01*
X204060564Y-27671057D01*
X204021354Y-27692938D01*
X204008619Y-27697563D01*
X203990083Y-27685085D01*
X203949059Y-27650252D01*
X203889525Y-27596678D01*
X203815458Y-27527983D01*
X203730835Y-27447781D01*
X203677315Y-27396286D01*
X203583681Y-27304286D01*
X203502759Y-27221999D01*
X203437823Y-27152945D01*
X203392142Y-27100644D01*
X203368989Y-27068616D01*
X203366768Y-27062116D01*
X203377076Y-27037394D01*
X203405561Y-26987405D01*
X203449063Y-26917212D01*
X203504423Y-26831875D01*
X203568480Y-26736456D01*
X203586697Y-26709854D01*
X203653073Y-26613167D01*
X203712622Y-26526117D01*
X203762016Y-26453595D01*
X203797925Y-26400493D01*
X203817019Y-26371703D01*
X203818864Y-26368726D01*
X203816105Y-26345782D01*
X203801462Y-26295336D01*
X203777487Y-26224041D01*
X203746734Y-26138547D01*
X203711756Y-26045507D01*
X203675107Y-25951574D01*
X203639339Y-25863399D01*
X203607006Y-25787634D01*
X203580662Y-25730931D01*
X203562858Y-25699943D01*
X203561593Y-25698457D01*
X203550706Y-25689601D01*
X203532318Y-25680843D01*
X203502394Y-25671277D01*
X203456897Y-25659996D01*
X203391791Y-25646093D01*
X203303039Y-25628663D01*
X203186607Y-25606798D01*
X203038458Y-25579591D01*
X203006382Y-25573741D01*
X202911314Y-25555374D01*
X202828435Y-25537405D01*
X202765070Y-25521569D01*
X202728542Y-25509600D01*
X202723644Y-25506810D01*
X202715573Y-25482072D01*
X202709013Y-25426790D01*
X202703967Y-25347389D01*
X202700441Y-25250296D01*
X202698439Y-25141938D01*
X202697964Y-25028740D01*
X202699023Y-24917128D01*
X202701618Y-24813529D01*
X202705754Y-24724368D01*
X202711437Y-24656072D01*
X202718669Y-24615066D01*
X202723029Y-24606674D01*
X202747302Y-24598208D01*
X202802574Y-24584435D01*
X202883338Y-24566550D01*
X202984088Y-24545748D01*
X203099317Y-24523223D01*
X203162098Y-24511418D01*
X203281213Y-24489151D01*
X203387435Y-24468979D01*
X203475573Y-24451915D01*
X203540434Y-24438969D01*
X203576826Y-24431155D01*
X203582816Y-24429422D01*
X203592939Y-24409890D01*
X203614338Y-24362843D01*
X203644161Y-24295003D01*
X203679555Y-24213091D01*
X203717668Y-24123828D01*
X203755647Y-24033935D01*
X203790640Y-23950135D01*
X203819794Y-23879147D01*
X203840257Y-23827694D01*
X203849177Y-23802497D01*
X203849343Y-23801396D01*
X203839231Y-23781519D01*
X203810883Y-23735777D01*
X203767277Y-23668717D01*
X203711394Y-23584884D01*
X203646213Y-23488826D01*
X203608321Y-23433650D01*
X203539275Y-23332481D01*
X203477950Y-23240630D01*
X203427337Y-23162744D01*
X203390429Y-23103469D01*
X203370218Y-23067451D01*
X203367299Y-23059377D01*
X203379847Y-23040584D01*
X203414537Y-23000457D01*
X203466937Y-22943493D01*
X203532616Y-22874185D01*
X203607144Y-22797031D01*
X203686087Y-22716525D01*
X203765017Y-22637163D01*
X203839500Y-22563440D01*
X203905106Y-22499852D01*
X203957404Y-22450894D01*
X203991961Y-22421061D01*
X204003522Y-22413942D01*
X204022346Y-22423953D01*
X204067369Y-22452078D01*
X204134213Y-22495454D01*
X204218501Y-22551218D01*
X204315856Y-22616506D01*
X204389293Y-22666246D01*
X204760333Y-22918551D01*
X205378905Y-22663555D01*
X205462725Y-22218931D01*
X205546546Y-21774307D01*
X206471994Y-21774307D01*
X206555814Y-22218931D01*
G04 #@! TD*
M02*
