G04 #@! TF.GenerationSoftware,KiCad,Pcbnew,(5.0.0-3-g5ebb6b6)*
G04 #@! TF.CreationDate,2019-05-14T13:45:27-04:00*
G04 #@! TF.ProjectId,Protoboard,50726F746F626F6172642E6B69636164,rev?*
G04 #@! TF.SameCoordinates,Original*
G04 #@! TF.FileFunction,Copper,L2,Bot,Signal*
G04 #@! TF.FilePolarity,Positive*
%FSLAX46Y46*%
G04 Gerber Fmt 4.6, Leading zero omitted, Abs format (unit mm)*
G04 Created by KiCad (PCBNEW (5.0.0-3-g5ebb6b6)) date Tuesday, May 14, 2019 at 01:45:27 PM*
%MOMM*%
%LPD*%
G01*
G04 APERTURE LIST*
G04 #@! TA.AperFunction,Conductor*
%ADD10C,0.100000*%
G04 #@! TD*
G04 #@! TA.AperFunction,Conductor*
%ADD11C,8.000000*%
G04 #@! TD*
G04 #@! TA.AperFunction,SMDPad,CuDef*
%ADD12C,2.500000*%
G04 #@! TD*
G04 #@! TA.AperFunction,ComponentPad*
%ADD13C,2.000000*%
G04 #@! TD*
G04 #@! TA.AperFunction,ComponentPad*
%ADD14C,6.400000*%
G04 #@! TD*
G04 #@! TA.AperFunction,ComponentPad*
%ADD15C,0.800000*%
G04 #@! TD*
G04 #@! TA.AperFunction,Conductor*
%ADD16C,0.500000*%
G04 #@! TD*
G04 APERTURE END LIST*
D10*
G04 #@! TO.N,N/C*
G04 #@! TO.C,G\002A\002A\002A*
G36*
X163306827Y-111237704D02*
X163462145Y-111260744D01*
X163614455Y-111298895D01*
X163762293Y-111351793D01*
X163904235Y-111418926D01*
X164038912Y-111499649D01*
X164165029Y-111593183D01*
X164281371Y-111698629D01*
X164386817Y-111814971D01*
X164480351Y-111941088D01*
X164561074Y-112075765D01*
X164628207Y-112217707D01*
X164681105Y-112365545D01*
X164719256Y-112517855D01*
X164742296Y-112673173D01*
X164750000Y-112830000D01*
X164750000Y-117630000D01*
X164742296Y-117786827D01*
X164719256Y-117942145D01*
X164681105Y-118094455D01*
X164628207Y-118242293D01*
X164561074Y-118384235D01*
X164480351Y-118518912D01*
X164386817Y-118645029D01*
X164281371Y-118761371D01*
X164165029Y-118866817D01*
X164038912Y-118960351D01*
X163904235Y-119041074D01*
X163762293Y-119108207D01*
X163614455Y-119161105D01*
X163462145Y-119199256D01*
X163306827Y-119222296D01*
X163150000Y-119230000D01*
X131350000Y-119230000D01*
X131193173Y-119222296D01*
X131037855Y-119199256D01*
X130885545Y-119161105D01*
X130737707Y-119108207D01*
X130595765Y-119041074D01*
X130461088Y-118960351D01*
X130334971Y-118866817D01*
X130218629Y-118761371D01*
X130113183Y-118645029D01*
X130019649Y-118518912D01*
X129938926Y-118384235D01*
X129871793Y-118242293D01*
X129818895Y-118094455D01*
X129780744Y-117942145D01*
X129757704Y-117786827D01*
X129750000Y-117630000D01*
X129750000Y-112830000D01*
X129757704Y-112673173D01*
X129780744Y-112517855D01*
X129818895Y-112365545D01*
X129871793Y-112217707D01*
X129938926Y-112075765D01*
X130019649Y-111941088D01*
X130113183Y-111814971D01*
X130218629Y-111698629D01*
X130334971Y-111593183D01*
X130461088Y-111499649D01*
X130595765Y-111418926D01*
X130737707Y-111351793D01*
X130885545Y-111298895D01*
X131037855Y-111260744D01*
X131193173Y-111237704D01*
X131350000Y-111230000D01*
X163150000Y-111230000D01*
X163306827Y-111237704D01*
X163306827Y-111237704D01*
G37*
D11*
X147250000Y-115230000D03*
G04 #@! TD*
D10*
G04 #@! TO.N,N/C*
G04 #@! TO.C,REF\002A\002A*
G36*
X168259009Y-21252408D02*
X168307545Y-21259607D01*
X168355142Y-21271530D01*
X168401342Y-21288060D01*
X168445698Y-21309039D01*
X168487785Y-21334265D01*
X168527197Y-21363495D01*
X168563553Y-21396447D01*
X168596505Y-21432803D01*
X168625735Y-21472215D01*
X168650961Y-21514302D01*
X168671940Y-21558658D01*
X168688470Y-21604858D01*
X168700393Y-21652455D01*
X168707592Y-21700991D01*
X168710000Y-21750000D01*
X168710000Y-25250000D01*
X168707592Y-25299009D01*
X168700393Y-25347545D01*
X168688470Y-25395142D01*
X168671940Y-25441342D01*
X168650961Y-25485698D01*
X168625735Y-25527785D01*
X168596505Y-25567197D01*
X168563553Y-25603553D01*
X168527197Y-25636505D01*
X168487785Y-25665735D01*
X168445698Y-25690961D01*
X168401342Y-25711940D01*
X168355142Y-25728470D01*
X168307545Y-25740393D01*
X168259009Y-25747592D01*
X168210000Y-25750000D01*
X166710000Y-25750000D01*
X166660991Y-25747592D01*
X166612455Y-25740393D01*
X166564858Y-25728470D01*
X166518658Y-25711940D01*
X166474302Y-25690961D01*
X166432215Y-25665735D01*
X166392803Y-25636505D01*
X166356447Y-25603553D01*
X166323495Y-25567197D01*
X166294265Y-25527785D01*
X166269039Y-25485698D01*
X166248060Y-25441342D01*
X166231530Y-25395142D01*
X166219607Y-25347545D01*
X166212408Y-25299009D01*
X166210000Y-25250000D01*
X166210000Y-21750000D01*
X166212408Y-21700991D01*
X166219607Y-21652455D01*
X166231530Y-21604858D01*
X166248060Y-21558658D01*
X166269039Y-21514302D01*
X166294265Y-21472215D01*
X166323495Y-21432803D01*
X166356447Y-21396447D01*
X166392803Y-21363495D01*
X166432215Y-21334265D01*
X166474302Y-21309039D01*
X166518658Y-21288060D01*
X166564858Y-21271530D01*
X166612455Y-21259607D01*
X166660991Y-21252408D01*
X166710000Y-21250000D01*
X168210000Y-21250000D01*
X168259009Y-21252408D01*
X168259009Y-21252408D01*
G37*
D12*
G04 #@! TD*
G04 #@! TO.P,REF\002A\002A,1*
G04 #@! TO.N,N/C*
X167460000Y-23500000D03*
D10*
G04 #@! TO.N,N/C*
G04 #@! TO.C,REF\002A\002A*
G36*
X173339009Y-21252408D02*
X173387545Y-21259607D01*
X173435142Y-21271530D01*
X173481342Y-21288060D01*
X173525698Y-21309039D01*
X173567785Y-21334265D01*
X173607197Y-21363495D01*
X173643553Y-21396447D01*
X173676505Y-21432803D01*
X173705735Y-21472215D01*
X173730961Y-21514302D01*
X173751940Y-21558658D01*
X173768470Y-21604858D01*
X173780393Y-21652455D01*
X173787592Y-21700991D01*
X173790000Y-21750000D01*
X173790000Y-25250000D01*
X173787592Y-25299009D01*
X173780393Y-25347545D01*
X173768470Y-25395142D01*
X173751940Y-25441342D01*
X173730961Y-25485698D01*
X173705735Y-25527785D01*
X173676505Y-25567197D01*
X173643553Y-25603553D01*
X173607197Y-25636505D01*
X173567785Y-25665735D01*
X173525698Y-25690961D01*
X173481342Y-25711940D01*
X173435142Y-25728470D01*
X173387545Y-25740393D01*
X173339009Y-25747592D01*
X173290000Y-25750000D01*
X171790000Y-25750000D01*
X171740991Y-25747592D01*
X171692455Y-25740393D01*
X171644858Y-25728470D01*
X171598658Y-25711940D01*
X171554302Y-25690961D01*
X171512215Y-25665735D01*
X171472803Y-25636505D01*
X171436447Y-25603553D01*
X171403495Y-25567197D01*
X171374265Y-25527785D01*
X171349039Y-25485698D01*
X171328060Y-25441342D01*
X171311530Y-25395142D01*
X171299607Y-25347545D01*
X171292408Y-25299009D01*
X171290000Y-25250000D01*
X171290000Y-21750000D01*
X171292408Y-21700991D01*
X171299607Y-21652455D01*
X171311530Y-21604858D01*
X171328060Y-21558658D01*
X171349039Y-21514302D01*
X171374265Y-21472215D01*
X171403495Y-21432803D01*
X171436447Y-21396447D01*
X171472803Y-21363495D01*
X171512215Y-21334265D01*
X171554302Y-21309039D01*
X171598658Y-21288060D01*
X171644858Y-21271530D01*
X171692455Y-21259607D01*
X171740991Y-21252408D01*
X171790000Y-21250000D01*
X173290000Y-21250000D01*
X173339009Y-21252408D01*
X173339009Y-21252408D01*
G37*
D12*
G04 #@! TD*
G04 #@! TO.P,REF\002A\002A,1*
G04 #@! TO.N,N/C*
X172540000Y-23500000D03*
D10*
G04 #@! TO.N,N/C*
G04 #@! TO.C,REF\002A\002A*
G36*
X168259009Y-114252408D02*
X168307545Y-114259607D01*
X168355142Y-114271530D01*
X168401342Y-114288060D01*
X168445698Y-114309039D01*
X168487785Y-114334265D01*
X168527197Y-114363495D01*
X168563553Y-114396447D01*
X168596505Y-114432803D01*
X168625735Y-114472215D01*
X168650961Y-114514302D01*
X168671940Y-114558658D01*
X168688470Y-114604858D01*
X168700393Y-114652455D01*
X168707592Y-114700991D01*
X168710000Y-114750000D01*
X168710000Y-118250000D01*
X168707592Y-118299009D01*
X168700393Y-118347545D01*
X168688470Y-118395142D01*
X168671940Y-118441342D01*
X168650961Y-118485698D01*
X168625735Y-118527785D01*
X168596505Y-118567197D01*
X168563553Y-118603553D01*
X168527197Y-118636505D01*
X168487785Y-118665735D01*
X168445698Y-118690961D01*
X168401342Y-118711940D01*
X168355142Y-118728470D01*
X168307545Y-118740393D01*
X168259009Y-118747592D01*
X168210000Y-118750000D01*
X166710000Y-118750000D01*
X166660991Y-118747592D01*
X166612455Y-118740393D01*
X166564858Y-118728470D01*
X166518658Y-118711940D01*
X166474302Y-118690961D01*
X166432215Y-118665735D01*
X166392803Y-118636505D01*
X166356447Y-118603553D01*
X166323495Y-118567197D01*
X166294265Y-118527785D01*
X166269039Y-118485698D01*
X166248060Y-118441342D01*
X166231530Y-118395142D01*
X166219607Y-118347545D01*
X166212408Y-118299009D01*
X166210000Y-118250000D01*
X166210000Y-114750000D01*
X166212408Y-114700991D01*
X166219607Y-114652455D01*
X166231530Y-114604858D01*
X166248060Y-114558658D01*
X166269039Y-114514302D01*
X166294265Y-114472215D01*
X166323495Y-114432803D01*
X166356447Y-114396447D01*
X166392803Y-114363495D01*
X166432215Y-114334265D01*
X166474302Y-114309039D01*
X166518658Y-114288060D01*
X166564858Y-114271530D01*
X166612455Y-114259607D01*
X166660991Y-114252408D01*
X166710000Y-114250000D01*
X168210000Y-114250000D01*
X168259009Y-114252408D01*
X168259009Y-114252408D01*
G37*
D12*
G04 #@! TD*
G04 #@! TO.P,REF\002A\002A,1*
G04 #@! TO.N,N/C*
X167460000Y-116500000D03*
D10*
G04 #@! TO.N,N/C*
G04 #@! TO.C,REF\002A\002A*
G36*
X173339009Y-114252408D02*
X173387545Y-114259607D01*
X173435142Y-114271530D01*
X173481342Y-114288060D01*
X173525698Y-114309039D01*
X173567785Y-114334265D01*
X173607197Y-114363495D01*
X173643553Y-114396447D01*
X173676505Y-114432803D01*
X173705735Y-114472215D01*
X173730961Y-114514302D01*
X173751940Y-114558658D01*
X173768470Y-114604858D01*
X173780393Y-114652455D01*
X173787592Y-114700991D01*
X173790000Y-114750000D01*
X173790000Y-118250000D01*
X173787592Y-118299009D01*
X173780393Y-118347545D01*
X173768470Y-118395142D01*
X173751940Y-118441342D01*
X173730961Y-118485698D01*
X173705735Y-118527785D01*
X173676505Y-118567197D01*
X173643553Y-118603553D01*
X173607197Y-118636505D01*
X173567785Y-118665735D01*
X173525698Y-118690961D01*
X173481342Y-118711940D01*
X173435142Y-118728470D01*
X173387545Y-118740393D01*
X173339009Y-118747592D01*
X173290000Y-118750000D01*
X171790000Y-118750000D01*
X171740991Y-118747592D01*
X171692455Y-118740393D01*
X171644858Y-118728470D01*
X171598658Y-118711940D01*
X171554302Y-118690961D01*
X171512215Y-118665735D01*
X171472803Y-118636505D01*
X171436447Y-118603553D01*
X171403495Y-118567197D01*
X171374265Y-118527785D01*
X171349039Y-118485698D01*
X171328060Y-118441342D01*
X171311530Y-118395142D01*
X171299607Y-118347545D01*
X171292408Y-118299009D01*
X171290000Y-118250000D01*
X171290000Y-114750000D01*
X171292408Y-114700991D01*
X171299607Y-114652455D01*
X171311530Y-114604858D01*
X171328060Y-114558658D01*
X171349039Y-114514302D01*
X171374265Y-114472215D01*
X171403495Y-114432803D01*
X171436447Y-114396447D01*
X171472803Y-114363495D01*
X171512215Y-114334265D01*
X171554302Y-114309039D01*
X171598658Y-114288060D01*
X171644858Y-114271530D01*
X171692455Y-114259607D01*
X171740991Y-114252408D01*
X171790000Y-114250000D01*
X173290000Y-114250000D01*
X173339009Y-114252408D01*
X173339009Y-114252408D01*
G37*
D12*
G04 #@! TD*
G04 #@! TO.P,REF\002A\002A,1*
G04 #@! TO.N,N/C*
X172540000Y-116500000D03*
D13*
G04 #@! TO.P,REF\002A\002A,1*
G04 #@! TO.N,N/C*
X206830000Y-30630000D03*
X199210000Y-30630000D03*
X196670000Y-30630000D03*
X204290000Y-30630000D03*
X201750000Y-30630000D03*
X206830000Y-33170000D03*
X199210000Y-33170000D03*
X196670000Y-33170000D03*
X204290000Y-33170000D03*
X201750000Y-33170000D03*
X206830000Y-109370000D03*
X199210000Y-109370000D03*
X196670000Y-109370000D03*
X204290000Y-109370000D03*
X201750000Y-109370000D03*
X206830000Y-106830000D03*
X199210000Y-106830000D03*
X196670000Y-106830000D03*
X204290000Y-106830000D03*
X201750000Y-106830000D03*
X206830000Y-94130000D03*
X201750000Y-101750000D03*
X199210000Y-101750000D03*
X206830000Y-83970000D03*
X199210000Y-83970000D03*
X196670000Y-83970000D03*
X199210000Y-94130000D03*
X196670000Y-94130000D03*
X204290000Y-94130000D03*
X201750000Y-94130000D03*
X196670000Y-101750000D03*
X204290000Y-101750000D03*
X206830000Y-101750000D03*
X206830000Y-73810000D03*
X199210000Y-73810000D03*
X196670000Y-73810000D03*
X204290000Y-73810000D03*
X201750000Y-73810000D03*
X206830000Y-71270000D03*
X199210000Y-71270000D03*
X196670000Y-71270000D03*
X204290000Y-71270000D03*
X201750000Y-71270000D03*
X204290000Y-83970000D03*
X206830000Y-81430000D03*
X199210000Y-81430000D03*
X196670000Y-81430000D03*
X204290000Y-81430000D03*
X201750000Y-104290000D03*
X204290000Y-104290000D03*
X196670000Y-104290000D03*
X199210000Y-104290000D03*
X201750000Y-81430000D03*
X206830000Y-76350000D03*
X206830000Y-78890000D03*
X199210000Y-78890000D03*
X196670000Y-78890000D03*
X204290000Y-78890000D03*
X201750000Y-78890000D03*
X206830000Y-91590000D03*
X199210000Y-96670000D03*
X206830000Y-99210000D03*
X199210000Y-99210000D03*
X196670000Y-99210000D03*
X204290000Y-99210000D03*
X201750000Y-99210000D03*
X199210000Y-76350000D03*
X196670000Y-76350000D03*
X204290000Y-76350000D03*
X201750000Y-76350000D03*
X206830000Y-89050000D03*
X199210000Y-89050000D03*
X196670000Y-89050000D03*
X204290000Y-89050000D03*
X201750000Y-89050000D03*
X206830000Y-86510000D03*
X199210000Y-86510000D03*
X196670000Y-86510000D03*
X204290000Y-86510000D03*
X201750000Y-86510000D03*
X206830000Y-96670000D03*
X196670000Y-96670000D03*
X204290000Y-96670000D03*
X201750000Y-96670000D03*
X199210000Y-91590000D03*
X196670000Y-91590000D03*
X204290000Y-91590000D03*
X201750000Y-91590000D03*
X206830000Y-104290000D03*
X201750000Y-83970000D03*
X201750000Y-35710000D03*
X204290000Y-35710000D03*
X196670000Y-35710000D03*
X199210000Y-35710000D03*
X206830000Y-35710000D03*
X201750000Y-38250000D03*
X204290000Y-38250000D03*
X196670000Y-38250000D03*
X199210000Y-38250000D03*
X206830000Y-38250000D03*
X201750000Y-40790000D03*
X204290000Y-40790000D03*
X196670000Y-40790000D03*
X199210000Y-40790000D03*
X206830000Y-40790000D03*
X201750000Y-43330000D03*
X204290000Y-43330000D03*
X196670000Y-43330000D03*
X199210000Y-43330000D03*
X206830000Y-43330000D03*
X201750000Y-45870000D03*
X204290000Y-45870000D03*
X196670000Y-45870000D03*
X199210000Y-45870000D03*
X206830000Y-45870000D03*
X201750000Y-48410000D03*
X204290000Y-48410000D03*
X196670000Y-48410000D03*
X199210000Y-48410000D03*
X206830000Y-48410000D03*
X201750000Y-50950000D03*
X204290000Y-50950000D03*
X196670000Y-50950000D03*
X199210000Y-50950000D03*
X206830000Y-50950000D03*
X201750000Y-53490000D03*
X204290000Y-53490000D03*
X196670000Y-53490000D03*
X199210000Y-53490000D03*
X206830000Y-53490000D03*
X201750000Y-56030000D03*
X204290000Y-56030000D03*
X196670000Y-56030000D03*
X199210000Y-56030000D03*
X206830000Y-56030000D03*
X201750000Y-58570000D03*
X204290000Y-58570000D03*
X196670000Y-58570000D03*
X199210000Y-58570000D03*
X206830000Y-58570000D03*
X201750000Y-61110000D03*
X204290000Y-61110000D03*
X196670000Y-61110000D03*
X199210000Y-61110000D03*
X206830000Y-61110000D03*
X201750000Y-63650000D03*
X204290000Y-63650000D03*
X196670000Y-63650000D03*
X199210000Y-63650000D03*
X206830000Y-63650000D03*
X201750000Y-66190000D03*
X204290000Y-66190000D03*
X196670000Y-66190000D03*
X199210000Y-66190000D03*
X206830000Y-66190000D03*
X206830000Y-68730000D03*
X204290000Y-68730000D03*
X196670000Y-68730000D03*
X199210000Y-68730000D03*
X201750000Y-68730000D03*
G04 #@! TD*
D14*
G04 #@! TO.P,REF\002A\002A,1*
G04 #@! TO.N,N/C*
X125000000Y-115000000D03*
D15*
X127400000Y-115000000D03*
X126697056Y-116697056D03*
X125000000Y-117400000D03*
X123302944Y-116697056D03*
X122600000Y-115000000D03*
X123302944Y-113302944D03*
X125000000Y-112600000D03*
X126697056Y-113302944D03*
G04 #@! TD*
D14*
G04 #@! TO.P,REF\002A\002A,1*
G04 #@! TO.N,N/C*
X215000000Y-115000000D03*
D15*
X217400000Y-115000000D03*
X216697056Y-116697056D03*
X215000000Y-117400000D03*
X213302944Y-116697056D03*
X212600000Y-115000000D03*
X213302944Y-113302944D03*
X215000000Y-112600000D03*
X216697056Y-113302944D03*
G04 #@! TD*
D14*
G04 #@! TO.P,REF\002A\002A,1*
G04 #@! TO.N,N/C*
X215000000Y-25000000D03*
D15*
X217400000Y-25000000D03*
X216697056Y-26697056D03*
X215000000Y-27400000D03*
X213302944Y-26697056D03*
X212600000Y-25000000D03*
X213302944Y-23302944D03*
X215000000Y-22600000D03*
X216697056Y-23302944D03*
G04 #@! TD*
D14*
G04 #@! TO.P,REF\002A\002A,1*
G04 #@! TO.N,N/C*
X125000000Y-25000000D03*
D15*
X127400000Y-25000000D03*
X126697056Y-26697056D03*
X125000000Y-27400000D03*
X123302944Y-26697056D03*
X122600000Y-25000000D03*
X123302944Y-23302944D03*
X125000000Y-22600000D03*
X126697056Y-23302944D03*
G04 #@! TD*
D13*
G04 #@! TO.P,REF\002A\002A,1*
G04 #@! TO.N,N/C*
X171270000Y-73810000D03*
X171270000Y-76350000D03*
X171270000Y-83970000D03*
X171270000Y-91590000D03*
X171270000Y-71270000D03*
X171270000Y-86510000D03*
X171270000Y-89050000D03*
X171270000Y-81430000D03*
X171270000Y-96670000D03*
X171270000Y-99210000D03*
X171270000Y-101750000D03*
X171270000Y-104290000D03*
X171270000Y-106830000D03*
X171270000Y-94130000D03*
X171270000Y-111910000D03*
X171270000Y-109370000D03*
X171270000Y-78890000D03*
X168730000Y-73810000D03*
X168730000Y-76350000D03*
X168730000Y-83970000D03*
X168730000Y-91590000D03*
X168730000Y-71270000D03*
X168730000Y-86510000D03*
X168730000Y-89050000D03*
X168730000Y-81430000D03*
X168730000Y-96670000D03*
X168730000Y-99210000D03*
X168730000Y-101750000D03*
X168730000Y-104290000D03*
X168730000Y-106830000D03*
X168730000Y-94130000D03*
X168730000Y-111910000D03*
X168730000Y-109370000D03*
X168730000Y-78890000D03*
X168730000Y-68730000D03*
X168730000Y-50950000D03*
X168730000Y-63650000D03*
X168730000Y-61110000D03*
X168730000Y-58570000D03*
X168730000Y-56030000D03*
X168730000Y-53490000D03*
X168730000Y-38250000D03*
X168730000Y-30630000D03*
X168730000Y-28090000D03*
X168730000Y-66190000D03*
X168730000Y-40790000D03*
X168730000Y-45870000D03*
X168730000Y-43330000D03*
X168730000Y-35710000D03*
X168730000Y-48410000D03*
X168730000Y-33170000D03*
X171270000Y-28090000D03*
X171270000Y-30630000D03*
X171270000Y-33170000D03*
X171270000Y-35710000D03*
X171270000Y-38250000D03*
X171270000Y-40790000D03*
X171270000Y-43330000D03*
X171270000Y-45870000D03*
X171270000Y-48410000D03*
X171270000Y-50950000D03*
X171270000Y-53490000D03*
X171270000Y-56030000D03*
X171270000Y-58570000D03*
X171270000Y-61110000D03*
X171270000Y-63650000D03*
X171270000Y-66190000D03*
X171270000Y-68730000D03*
G04 #@! TD*
G04 #@! TO.P,REF\002A\002A,1*
G04 #@! TO.N,N/C*
X161110000Y-30630000D03*
X153490000Y-30630000D03*
X150950000Y-30630000D03*
X158570000Y-30630000D03*
X156030000Y-30630000D03*
X161110000Y-33170000D03*
X153490000Y-33170000D03*
X150950000Y-33170000D03*
X158570000Y-33170000D03*
X156030000Y-33170000D03*
X161110000Y-109370000D03*
X153490000Y-109370000D03*
X150950000Y-109370000D03*
X158570000Y-109370000D03*
X156030000Y-109370000D03*
X161110000Y-106830000D03*
X153490000Y-106830000D03*
X150950000Y-106830000D03*
X158570000Y-106830000D03*
X156030000Y-106830000D03*
X161110000Y-94130000D03*
X156030000Y-101750000D03*
X153490000Y-101750000D03*
X161110000Y-83970000D03*
X153490000Y-83970000D03*
X150950000Y-83970000D03*
X153490000Y-94130000D03*
X150950000Y-94130000D03*
X158570000Y-94130000D03*
X156030000Y-94130000D03*
X150950000Y-101750000D03*
X158570000Y-101750000D03*
X161110000Y-101750000D03*
X161110000Y-73810000D03*
X153490000Y-73810000D03*
X150950000Y-73810000D03*
X158570000Y-73810000D03*
X156030000Y-73810000D03*
X161110000Y-71270000D03*
X153490000Y-71270000D03*
X150950000Y-71270000D03*
X158570000Y-71270000D03*
X156030000Y-71270000D03*
X158570000Y-83970000D03*
X161110000Y-81430000D03*
X153490000Y-81430000D03*
X150950000Y-81430000D03*
X158570000Y-81430000D03*
X156030000Y-104290000D03*
X158570000Y-104290000D03*
X150950000Y-104290000D03*
X153490000Y-104290000D03*
X156030000Y-81430000D03*
X161110000Y-76350000D03*
X161110000Y-78890000D03*
X153490000Y-78890000D03*
X150950000Y-78890000D03*
X158570000Y-78890000D03*
X156030000Y-78890000D03*
X161110000Y-91590000D03*
X153490000Y-96670000D03*
X161110000Y-99210000D03*
X153490000Y-99210000D03*
X150950000Y-99210000D03*
X158570000Y-99210000D03*
X156030000Y-99210000D03*
X153490000Y-76350000D03*
X150950000Y-76350000D03*
X158570000Y-76350000D03*
X156030000Y-76350000D03*
X161110000Y-89050000D03*
X153490000Y-89050000D03*
X150950000Y-89050000D03*
X158570000Y-89050000D03*
X156030000Y-89050000D03*
X161110000Y-86510000D03*
X153490000Y-86510000D03*
X150950000Y-86510000D03*
X158570000Y-86510000D03*
X156030000Y-86510000D03*
X161110000Y-96670000D03*
X150950000Y-96670000D03*
X158570000Y-96670000D03*
X156030000Y-96670000D03*
X153490000Y-91590000D03*
X150950000Y-91590000D03*
X158570000Y-91590000D03*
X156030000Y-91590000D03*
X161110000Y-104290000D03*
X156030000Y-83970000D03*
X156030000Y-35710000D03*
X158570000Y-35710000D03*
X150950000Y-35710000D03*
X153490000Y-35710000D03*
X161110000Y-35710000D03*
X156030000Y-38250000D03*
X158570000Y-38250000D03*
X150950000Y-38250000D03*
X153490000Y-38250000D03*
X161110000Y-38250000D03*
X156030000Y-40790000D03*
X158570000Y-40790000D03*
X150950000Y-40790000D03*
X153490000Y-40790000D03*
X161110000Y-40790000D03*
X156030000Y-43330000D03*
X158570000Y-43330000D03*
X150950000Y-43330000D03*
X153490000Y-43330000D03*
X161110000Y-43330000D03*
X156030000Y-45870000D03*
X158570000Y-45870000D03*
X150950000Y-45870000D03*
X153490000Y-45870000D03*
X161110000Y-45870000D03*
X156030000Y-48410000D03*
X158570000Y-48410000D03*
X150950000Y-48410000D03*
X153490000Y-48410000D03*
X161110000Y-48410000D03*
X156030000Y-50950000D03*
X158570000Y-50950000D03*
X150950000Y-50950000D03*
X153490000Y-50950000D03*
X161110000Y-50950000D03*
X156030000Y-53490000D03*
X158570000Y-53490000D03*
X150950000Y-53490000D03*
X153490000Y-53490000D03*
X161110000Y-53490000D03*
X156030000Y-56030000D03*
X158570000Y-56030000D03*
X150950000Y-56030000D03*
X153490000Y-56030000D03*
X161110000Y-56030000D03*
X156030000Y-58570000D03*
X158570000Y-58570000D03*
X150950000Y-58570000D03*
X153490000Y-58570000D03*
X161110000Y-58570000D03*
X156030000Y-61110000D03*
X158570000Y-61110000D03*
X150950000Y-61110000D03*
X153490000Y-61110000D03*
X161110000Y-61110000D03*
X156030000Y-63650000D03*
X158570000Y-63650000D03*
X150950000Y-63650000D03*
X153490000Y-63650000D03*
X161110000Y-63650000D03*
X156030000Y-66190000D03*
X158570000Y-66190000D03*
X150950000Y-66190000D03*
X153490000Y-66190000D03*
X161110000Y-66190000D03*
X161110000Y-68730000D03*
X158570000Y-68730000D03*
X150950000Y-68730000D03*
X153490000Y-68730000D03*
X156030000Y-68730000D03*
G04 #@! TD*
G04 #@! TO.P,REF\002A\002A,1*
G04 #@! TO.N,N/C*
X186510000Y-30630000D03*
X178890000Y-30630000D03*
X176350000Y-30630000D03*
X183970000Y-30630000D03*
X181430000Y-30630000D03*
X186510000Y-33170000D03*
X178890000Y-33170000D03*
X176350000Y-33170000D03*
X183970000Y-33170000D03*
X181430000Y-33170000D03*
X186510000Y-109370000D03*
X178890000Y-109370000D03*
X176350000Y-109370000D03*
X183970000Y-109370000D03*
X181430000Y-109370000D03*
X186510000Y-106830000D03*
X178890000Y-106830000D03*
X176350000Y-106830000D03*
X183970000Y-106830000D03*
X181430000Y-106830000D03*
X186510000Y-94130000D03*
X181430000Y-101750000D03*
X178890000Y-101750000D03*
X186510000Y-83970000D03*
X178890000Y-83970000D03*
X176350000Y-83970000D03*
X178890000Y-94130000D03*
X176350000Y-94130000D03*
X183970000Y-94130000D03*
X181430000Y-94130000D03*
X176350000Y-101750000D03*
X183970000Y-101750000D03*
X186510000Y-101750000D03*
X186510000Y-73810000D03*
X178890000Y-73810000D03*
X176350000Y-73810000D03*
X183970000Y-73810000D03*
X181430000Y-73810000D03*
X186510000Y-71270000D03*
X178890000Y-71270000D03*
X176350000Y-71270000D03*
X183970000Y-71270000D03*
X181430000Y-71270000D03*
X183970000Y-83970000D03*
X186510000Y-81430000D03*
X178890000Y-81430000D03*
X176350000Y-81430000D03*
X183970000Y-81430000D03*
X181430000Y-104290000D03*
X183970000Y-104290000D03*
X176350000Y-104290000D03*
X178890000Y-104290000D03*
X181430000Y-81430000D03*
X186510000Y-76350000D03*
X186510000Y-78890000D03*
X178890000Y-78890000D03*
X176350000Y-78890000D03*
X183970000Y-78890000D03*
X181430000Y-78890000D03*
X186510000Y-91590000D03*
X178890000Y-96670000D03*
X186510000Y-99210000D03*
X178890000Y-99210000D03*
X176350000Y-99210000D03*
X183970000Y-99210000D03*
X181430000Y-99210000D03*
X178890000Y-76350000D03*
X176350000Y-76350000D03*
X183970000Y-76350000D03*
X181430000Y-76350000D03*
X186510000Y-89050000D03*
X178890000Y-89050000D03*
X176350000Y-89050000D03*
X183970000Y-89050000D03*
X181430000Y-89050000D03*
X186510000Y-86510000D03*
X178890000Y-86510000D03*
X176350000Y-86510000D03*
X183970000Y-86510000D03*
X181430000Y-86510000D03*
X186510000Y-96670000D03*
X176350000Y-96670000D03*
X183970000Y-96670000D03*
X181430000Y-96670000D03*
X178890000Y-91590000D03*
X176350000Y-91590000D03*
X183970000Y-91590000D03*
X181430000Y-91590000D03*
X186510000Y-104290000D03*
X181430000Y-83970000D03*
X181430000Y-35710000D03*
X183970000Y-35710000D03*
X176350000Y-35710000D03*
X178890000Y-35710000D03*
X186510000Y-35710000D03*
X181430000Y-38250000D03*
X183970000Y-38250000D03*
X176350000Y-38250000D03*
X178890000Y-38250000D03*
X186510000Y-38250000D03*
X181430000Y-40790000D03*
X183970000Y-40790000D03*
X176350000Y-40790000D03*
X178890000Y-40790000D03*
X186510000Y-40790000D03*
X181430000Y-43330000D03*
X183970000Y-43330000D03*
X176350000Y-43330000D03*
X178890000Y-43330000D03*
X186510000Y-43330000D03*
X181430000Y-45870000D03*
X183970000Y-45870000D03*
X176350000Y-45870000D03*
X178890000Y-45870000D03*
X186510000Y-45870000D03*
X181430000Y-48410000D03*
X183970000Y-48410000D03*
X176350000Y-48410000D03*
X178890000Y-48410000D03*
X186510000Y-48410000D03*
X181430000Y-50950000D03*
X183970000Y-50950000D03*
X176350000Y-50950000D03*
X178890000Y-50950000D03*
X186510000Y-50950000D03*
X181430000Y-53490000D03*
X183970000Y-53490000D03*
X176350000Y-53490000D03*
X178890000Y-53490000D03*
X186510000Y-53490000D03*
X181430000Y-56030000D03*
X183970000Y-56030000D03*
X176350000Y-56030000D03*
X178890000Y-56030000D03*
X186510000Y-56030000D03*
X181430000Y-58570000D03*
X183970000Y-58570000D03*
X176350000Y-58570000D03*
X178890000Y-58570000D03*
X186510000Y-58570000D03*
X181430000Y-61110000D03*
X183970000Y-61110000D03*
X176350000Y-61110000D03*
X178890000Y-61110000D03*
X186510000Y-61110000D03*
X181430000Y-63650000D03*
X183970000Y-63650000D03*
X176350000Y-63650000D03*
X178890000Y-63650000D03*
X186510000Y-63650000D03*
X181430000Y-66190000D03*
X183970000Y-66190000D03*
X176350000Y-66190000D03*
X178890000Y-66190000D03*
X186510000Y-66190000D03*
X186510000Y-68730000D03*
X183970000Y-68730000D03*
X176350000Y-68730000D03*
X178890000Y-68730000D03*
X181430000Y-68730000D03*
G04 #@! TD*
G04 #@! TO.P,REF\002A\002A,1*
G04 #@! TO.N,N/C*
X143330000Y-30630000D03*
X135710000Y-30630000D03*
X133170000Y-30630000D03*
X140790000Y-30630000D03*
X138250000Y-30630000D03*
X143330000Y-33170000D03*
X135710000Y-33170000D03*
X133170000Y-33170000D03*
X140790000Y-33170000D03*
X138250000Y-33170000D03*
X143330000Y-109370000D03*
X135710000Y-109370000D03*
X133170000Y-109370000D03*
X140790000Y-109370000D03*
X138250000Y-109370000D03*
X143330000Y-106830000D03*
X135710000Y-106830000D03*
X133170000Y-106830000D03*
X140790000Y-106830000D03*
X138250000Y-106830000D03*
X143330000Y-94130000D03*
X138250000Y-101750000D03*
X135710000Y-101750000D03*
X143330000Y-83970000D03*
X135710000Y-83970000D03*
X133170000Y-83970000D03*
X135710000Y-94130000D03*
X133170000Y-94130000D03*
X140790000Y-94130000D03*
X138250000Y-94130000D03*
X133170000Y-101750000D03*
X140790000Y-101750000D03*
X143330000Y-101750000D03*
X143330000Y-73810000D03*
X135710000Y-73810000D03*
X133170000Y-73810000D03*
X140790000Y-73810000D03*
X138250000Y-73810000D03*
X143330000Y-71270000D03*
X135710000Y-71270000D03*
X133170000Y-71270000D03*
X140790000Y-71270000D03*
X138250000Y-71270000D03*
X140790000Y-83970000D03*
X143330000Y-81430000D03*
X135710000Y-81430000D03*
X133170000Y-81430000D03*
X140790000Y-81430000D03*
X138250000Y-104290000D03*
X140790000Y-104290000D03*
X133170000Y-104290000D03*
X135710000Y-104290000D03*
X138250000Y-81430000D03*
X143330000Y-76350000D03*
X143330000Y-78890000D03*
X135710000Y-78890000D03*
X133170000Y-78890000D03*
X140790000Y-78890000D03*
X138250000Y-78890000D03*
X143330000Y-91590000D03*
X135710000Y-96670000D03*
X143330000Y-99210000D03*
X135710000Y-99210000D03*
X133170000Y-99210000D03*
X140790000Y-99210000D03*
X138250000Y-99210000D03*
X135710000Y-76350000D03*
X133170000Y-76350000D03*
X140790000Y-76350000D03*
X138250000Y-76350000D03*
X143330000Y-89050000D03*
X135710000Y-89050000D03*
X133170000Y-89050000D03*
X140790000Y-89050000D03*
X138250000Y-89050000D03*
X143330000Y-86510000D03*
X135710000Y-86510000D03*
X133170000Y-86510000D03*
X140790000Y-86510000D03*
X138250000Y-86510000D03*
X143330000Y-96670000D03*
X133170000Y-96670000D03*
X140790000Y-96670000D03*
X138250000Y-96670000D03*
X135710000Y-91590000D03*
X133170000Y-91590000D03*
X140790000Y-91590000D03*
X138250000Y-91590000D03*
X143330000Y-104290000D03*
X138250000Y-83970000D03*
X138250000Y-35710000D03*
X140790000Y-35710000D03*
X133170000Y-35710000D03*
X135710000Y-35710000D03*
X143330000Y-35710000D03*
X138250000Y-38250000D03*
X140790000Y-38250000D03*
X133170000Y-38250000D03*
X135710000Y-38250000D03*
X143330000Y-38250000D03*
X138250000Y-40790000D03*
X140790000Y-40790000D03*
X133170000Y-40790000D03*
X135710000Y-40790000D03*
X143330000Y-40790000D03*
X138250000Y-43330000D03*
X140790000Y-43330000D03*
X133170000Y-43330000D03*
X135710000Y-43330000D03*
X143330000Y-43330000D03*
X138250000Y-45870000D03*
X140790000Y-45870000D03*
X133170000Y-45870000D03*
X135710000Y-45870000D03*
X143330000Y-45870000D03*
X138250000Y-48410000D03*
X140790000Y-48410000D03*
X133170000Y-48410000D03*
X135710000Y-48410000D03*
X143330000Y-48410000D03*
X138250000Y-50950000D03*
X140790000Y-50950000D03*
X133170000Y-50950000D03*
X135710000Y-50950000D03*
X143330000Y-50950000D03*
X138250000Y-53490000D03*
X140790000Y-53490000D03*
X133170000Y-53490000D03*
X135710000Y-53490000D03*
X143330000Y-53490000D03*
X138250000Y-56030000D03*
X140790000Y-56030000D03*
X133170000Y-56030000D03*
X135710000Y-56030000D03*
X143330000Y-56030000D03*
X138250000Y-58570000D03*
X140790000Y-58570000D03*
X133170000Y-58570000D03*
X135710000Y-58570000D03*
X143330000Y-58570000D03*
X138250000Y-61110000D03*
X140790000Y-61110000D03*
X133170000Y-61110000D03*
X135710000Y-61110000D03*
X143330000Y-61110000D03*
X138250000Y-63650000D03*
X140790000Y-63650000D03*
X133170000Y-63650000D03*
X135710000Y-63650000D03*
X143330000Y-63650000D03*
X138250000Y-66190000D03*
X140790000Y-66190000D03*
X133170000Y-66190000D03*
X135710000Y-66190000D03*
X143330000Y-66190000D03*
X143330000Y-68730000D03*
X140790000Y-68730000D03*
X133170000Y-68730000D03*
X135710000Y-68730000D03*
X138250000Y-68730000D03*
G04 #@! TD*
G04 #@! TO.P,REF\002A\002A,1*
G04 #@! TO.N,N/C*
X214450000Y-83970000D03*
X214450000Y-86510000D03*
X214450000Y-89050000D03*
X214450000Y-104290000D03*
X214450000Y-106830000D03*
X214450000Y-96670000D03*
X214450000Y-76350000D03*
X214450000Y-94130000D03*
X214450000Y-109370000D03*
X214450000Y-71270000D03*
X214450000Y-99210000D03*
X214450000Y-73810000D03*
X214450000Y-78890000D03*
X214450000Y-101750000D03*
X214450000Y-81430000D03*
X214450000Y-91590000D03*
X211910000Y-83970000D03*
X211910000Y-86510000D03*
X211910000Y-89050000D03*
X211910000Y-104290000D03*
X211910000Y-106830000D03*
X211910000Y-96670000D03*
X211910000Y-76350000D03*
X211910000Y-94130000D03*
X211910000Y-109370000D03*
X211910000Y-71270000D03*
X211910000Y-99210000D03*
X211910000Y-73810000D03*
X211910000Y-78890000D03*
X211910000Y-101750000D03*
X211910000Y-81430000D03*
X211910000Y-91590000D03*
X211910000Y-53490000D03*
X211910000Y-35710000D03*
X211910000Y-56030000D03*
X211910000Y-66190000D03*
X211910000Y-63650000D03*
X211910000Y-48410000D03*
X211910000Y-45870000D03*
X211910000Y-43330000D03*
X211910000Y-58570000D03*
X211910000Y-30630000D03*
X211910000Y-68730000D03*
X211910000Y-61110000D03*
X211910000Y-50950000D03*
X211910000Y-33170000D03*
X211910000Y-38250000D03*
X211910000Y-40790000D03*
X214450000Y-30630000D03*
X214450000Y-33170000D03*
X214450000Y-35710000D03*
X214450000Y-38250000D03*
X214450000Y-40790000D03*
X214450000Y-43330000D03*
X214450000Y-45870000D03*
X214450000Y-48410000D03*
X214450000Y-50950000D03*
X214450000Y-53490000D03*
X214450000Y-56030000D03*
X214450000Y-58570000D03*
X214450000Y-61110000D03*
X214450000Y-63650000D03*
X214450000Y-66190000D03*
X214450000Y-68730000D03*
G04 #@! TD*
G04 #@! TO.P,REF\002A\002A,1*
G04 #@! TO.N,N/C*
X128090000Y-83970000D03*
X128090000Y-86510000D03*
X128090000Y-89050000D03*
X128090000Y-104290000D03*
X128090000Y-106830000D03*
X128090000Y-96670000D03*
X128090000Y-76350000D03*
X128090000Y-94130000D03*
X128090000Y-109370000D03*
X128090000Y-71270000D03*
X128090000Y-99210000D03*
X128090000Y-73810000D03*
X128090000Y-78890000D03*
X128090000Y-101750000D03*
X128090000Y-81430000D03*
X128090000Y-91590000D03*
X125550000Y-83970000D03*
X125550000Y-86510000D03*
X125550000Y-89050000D03*
X125550000Y-104290000D03*
X125550000Y-106830000D03*
X125550000Y-96670000D03*
X125550000Y-76350000D03*
X125550000Y-94130000D03*
X125550000Y-109370000D03*
X125550000Y-71270000D03*
X125550000Y-99210000D03*
X125550000Y-73810000D03*
X125550000Y-78890000D03*
X125550000Y-101750000D03*
X125550000Y-81430000D03*
X125550000Y-91590000D03*
X125550000Y-53490000D03*
X125550000Y-35710000D03*
X125550000Y-56030000D03*
X125550000Y-66190000D03*
X125550000Y-63650000D03*
X125550000Y-48410000D03*
X125550000Y-45870000D03*
X125550000Y-43330000D03*
X125550000Y-58570000D03*
X125550000Y-30630000D03*
X125550000Y-68730000D03*
X125550000Y-61110000D03*
X125550000Y-50950000D03*
X125550000Y-33170000D03*
X125550000Y-38250000D03*
X125550000Y-40790000D03*
X128090000Y-30630000D03*
X128090000Y-33170000D03*
X128090000Y-35710000D03*
X128090000Y-38250000D03*
X128090000Y-40790000D03*
X128090000Y-43330000D03*
X128090000Y-45870000D03*
X128090000Y-48410000D03*
X128090000Y-50950000D03*
X128090000Y-53490000D03*
X128090000Y-56030000D03*
X128090000Y-58570000D03*
X128090000Y-61110000D03*
X128090000Y-63650000D03*
X128090000Y-66190000D03*
X128090000Y-68730000D03*
G04 #@! TD*
D16*
G04 #@! TO.N,*
X172540000Y-113180000D02*
X171270000Y-111910000D01*
X172540000Y-116500000D02*
X172540000Y-113180000D01*
X167460000Y-113180000D02*
X168730000Y-111910000D01*
X167460000Y-116500000D02*
X167460000Y-113180000D01*
X172540000Y-26820000D02*
X171270000Y-28090000D01*
X172540000Y-23500000D02*
X172540000Y-26820000D01*
X167460000Y-26820000D02*
X168730000Y-28090000D01*
X167460000Y-23500000D02*
X167460000Y-26820000D01*
X171270000Y-28090000D02*
X171270000Y-111910000D01*
X168730000Y-35710000D02*
X168730000Y-28090000D01*
X168730000Y-111910000D02*
X168730000Y-35710000D01*
X133170000Y-30630000D02*
X143330000Y-30630000D01*
X143330000Y-33170000D02*
X133170000Y-33170000D01*
X150950000Y-30630000D02*
X161110000Y-30630000D01*
X161110000Y-33170000D02*
X150950000Y-33170000D01*
X125550000Y-30630000D02*
X125550000Y-109370000D01*
X128090000Y-45870000D02*
X128090000Y-30630000D01*
X128090000Y-109370000D02*
X128090000Y-45870000D01*
X214450000Y-106830000D02*
X214450000Y-109370000D01*
X214450000Y-30630000D02*
X214450000Y-106830000D01*
X211910000Y-109370000D02*
X211910000Y-30630000D01*
X133170000Y-35710000D02*
X143330000Y-35710000D01*
X150950000Y-35710000D02*
X161110000Y-35710000D01*
X133170000Y-38250000D02*
X143330000Y-38250000D01*
X143330000Y-40790000D02*
X133170000Y-40790000D01*
X133170000Y-43330000D02*
X143330000Y-43330000D01*
X143330000Y-45870000D02*
X133170000Y-45870000D01*
X133170000Y-48410000D02*
X143330000Y-48410000D01*
X143330000Y-50950000D02*
X133170000Y-50950000D01*
X133170000Y-53490000D02*
X143330000Y-53490000D01*
X143330000Y-56030000D02*
X133170000Y-56030000D01*
X133170000Y-58570000D02*
X143330000Y-58570000D01*
X143330000Y-61110000D02*
X133170000Y-61110000D01*
X133170000Y-63650000D02*
X143330000Y-63650000D01*
X143330000Y-66190000D02*
X133170000Y-66190000D01*
X133170000Y-68730000D02*
X143330000Y-68730000D01*
X143330000Y-71270000D02*
X133170000Y-71270000D01*
X133170000Y-73810000D02*
X143330000Y-73810000D01*
X143330000Y-76350000D02*
X133170000Y-76350000D01*
X133170000Y-78890000D02*
X143330000Y-78890000D01*
X133170000Y-83970000D02*
X143330000Y-83970000D01*
X133170000Y-89050000D02*
X143330000Y-89050000D01*
X133170000Y-91590000D02*
X143330000Y-91590000D01*
X143330000Y-94130000D02*
X133170000Y-94130000D01*
X133170000Y-96670000D02*
X143330000Y-96670000D01*
X143330000Y-99210000D02*
X133170000Y-99210000D01*
X133170000Y-101750000D02*
X143330000Y-101750000D01*
X143330000Y-104290000D02*
X133170000Y-104290000D01*
X133170000Y-106830000D02*
X143330000Y-106830000D01*
X143330000Y-109370000D02*
X133170000Y-109370000D01*
X150950000Y-38250000D02*
X161110000Y-38250000D01*
X161110000Y-40790000D02*
X150950000Y-40790000D01*
X152364213Y-43330000D02*
X161110000Y-43330000D01*
X150950000Y-43330000D02*
X152364213Y-43330000D01*
X161110000Y-45870000D02*
X150950000Y-45870000D01*
X150950000Y-48410000D02*
X161110000Y-48410000D01*
X161110000Y-50950000D02*
X150950000Y-50950000D01*
X150950000Y-53490000D02*
X161110000Y-53490000D01*
X150950000Y-56030000D02*
X161110000Y-56030000D01*
X161110000Y-58570000D02*
X150950000Y-58570000D01*
X150950000Y-61110000D02*
X161110000Y-61110000D01*
X161110000Y-63650000D02*
X150950000Y-63650000D01*
X150950000Y-66190000D02*
X161110000Y-66190000D01*
X161110000Y-68730000D02*
X150950000Y-68730000D01*
X150950000Y-71270000D02*
X161110000Y-71270000D01*
X161110000Y-73810000D02*
X150950000Y-73810000D01*
X150950000Y-76350000D02*
X161110000Y-76350000D01*
X150950000Y-78890000D02*
X161110000Y-78890000D01*
X161110000Y-81430000D02*
X150950000Y-81430000D01*
X150950000Y-83970000D02*
X161110000Y-83970000D01*
X161110000Y-86510000D02*
X150950000Y-86510000D01*
X150950000Y-89050000D02*
X161110000Y-89050000D01*
X161110000Y-91590000D02*
X150950000Y-91590000D01*
X150950000Y-94130000D02*
X161110000Y-94130000D01*
X161110000Y-96670000D02*
X150950000Y-96670000D01*
X150950000Y-99210000D02*
X161110000Y-99210000D01*
X161110000Y-101750000D02*
X150950000Y-101750000D01*
X150950000Y-104290000D02*
X161110000Y-104290000D01*
X161110000Y-106830000D02*
X150950000Y-106830000D01*
X150950000Y-109370000D02*
X161110000Y-109370000D01*
X176350000Y-30630000D02*
X186510000Y-30630000D01*
X186510000Y-33170000D02*
X176350000Y-33170000D01*
X176350000Y-35710000D02*
X186510000Y-35710000D01*
X186510000Y-38250000D02*
X176350000Y-38250000D01*
X176350000Y-40790000D02*
X186510000Y-40790000D01*
X186510000Y-43330000D02*
X176350000Y-43330000D01*
X176350000Y-45870000D02*
X186510000Y-45870000D01*
X186510000Y-48410000D02*
X176350000Y-48410000D01*
X176350000Y-50950000D02*
X186510000Y-50950000D01*
X176350000Y-53490000D02*
X186510000Y-53490000D01*
X186510000Y-56030000D02*
X176350000Y-56030000D01*
X176350000Y-58570000D02*
X186510000Y-58570000D01*
X186510000Y-61110000D02*
X176350000Y-61110000D01*
X176350000Y-63650000D02*
X186510000Y-63650000D01*
X186510000Y-66190000D02*
X176350000Y-66190000D01*
X177764213Y-68730000D02*
X186510000Y-68730000D01*
X176350000Y-68730000D02*
X177764213Y-68730000D01*
X176350000Y-71270000D02*
X186510000Y-71270000D01*
X186510000Y-73810000D02*
X176350000Y-73810000D01*
X176350000Y-76350000D02*
X186510000Y-76350000D01*
X186510000Y-78890000D02*
X176350000Y-78890000D01*
X176350000Y-81430000D02*
X186510000Y-81430000D01*
X186510000Y-83970000D02*
X176350000Y-83970000D01*
X176350000Y-86510000D02*
X186510000Y-86510000D01*
X186510000Y-89050000D02*
X176350000Y-89050000D01*
X176350000Y-91590000D02*
X186510000Y-91590000D01*
X186510000Y-94130000D02*
X176350000Y-94130000D01*
X176350000Y-96670000D02*
X186510000Y-96670000D01*
X186510000Y-99210000D02*
X176350000Y-99210000D01*
X176350000Y-101750000D02*
X186510000Y-101750000D01*
X186510000Y-104290000D02*
X176350000Y-104290000D01*
X186510000Y-106830000D02*
X176350000Y-106830000D01*
X176350000Y-109370000D02*
X186510000Y-109370000D01*
X196670000Y-30630000D02*
X206830000Y-30630000D01*
X206830000Y-33170000D02*
X196670000Y-33170000D01*
X196670000Y-35710000D02*
X206830000Y-35710000D01*
X206830000Y-38250000D02*
X196670000Y-38250000D01*
X196670000Y-40790000D02*
X206830000Y-40790000D01*
X206830000Y-43330000D02*
X196670000Y-43330000D01*
X196670000Y-45870000D02*
X206830000Y-45870000D01*
X206830000Y-48410000D02*
X196670000Y-48410000D01*
X196670000Y-50950000D02*
X206830000Y-50950000D01*
X206830000Y-53490000D02*
X196670000Y-53490000D01*
X196670000Y-56030000D02*
X206830000Y-56030000D01*
X206830000Y-58570000D02*
X196670000Y-58570000D01*
X196670000Y-61110000D02*
X206830000Y-61110000D01*
X206830000Y-63650000D02*
X196670000Y-63650000D01*
X196670000Y-66190000D02*
X206830000Y-66190000D01*
X206830000Y-68730000D02*
X196670000Y-68730000D01*
X196670000Y-71270000D02*
X206830000Y-71270000D01*
X201750000Y-73810000D02*
X196670000Y-73810000D01*
X206830000Y-73810000D02*
X201750000Y-73810000D01*
X196670000Y-76350000D02*
X206830000Y-76350000D01*
X206830000Y-78890000D02*
X196670000Y-78890000D01*
X196670000Y-81430000D02*
X206830000Y-81430000D01*
X206830000Y-83970000D02*
X196670000Y-83970000D01*
X196670000Y-86510000D02*
X206830000Y-86510000D01*
X206830000Y-89050000D02*
X196670000Y-89050000D01*
X196670000Y-91590000D02*
X206830000Y-91590000D01*
X206830000Y-94130000D02*
X196670000Y-94130000D01*
X196670000Y-96670000D02*
X206830000Y-96670000D01*
X206830000Y-99210000D02*
X196670000Y-99210000D01*
X196670000Y-101750000D02*
X206830000Y-101750000D01*
X206830000Y-104290000D02*
X196670000Y-104290000D01*
X196670000Y-106830000D02*
X206830000Y-106830000D01*
X206830000Y-109370000D02*
X196670000Y-109370000D01*
X133170000Y-86510000D02*
X143330000Y-86510000D01*
X133170000Y-81430000D02*
X143330000Y-81430000D01*
G04 #@! TD*
M02*
