G04 #@! TF.GenerationSoftware,KiCad,Pcbnew,(5.0.0-3-g5ebb6b6)*
G04 #@! TF.CreationDate,2019-05-14T13:45:27-04:00*
G04 #@! TF.ProjectId,Protoboard,50726F746F626F6172642E6B69636164,rev?*
G04 #@! TF.SameCoordinates,Original*
G04 #@! TF.FileFunction,Soldermask,Top*
G04 #@! TF.FilePolarity,Negative*
%FSLAX46Y46*%
G04 Gerber Fmt 4.6, Leading zero omitted, Abs format (unit mm)*
G04 Created by KiCad (PCBNEW (5.0.0-3-g5ebb6b6)) date Tuesday, May 14, 2019 at 01:45:27 PM*
%MOMM*%
%LPD*%
G01*
G04 APERTURE LIST*
%ADD10C,0.010000*%
%ADD11C,0.100000*%
%ADD12C,2.900000*%
%ADD13C,2.200000*%
%ADD14C,6.800000*%
%ADD15C,1.200000*%
G04 APERTURE END LIST*
D10*
G04 #@! TO.C,G\002A\002A\002A*
G36*
X191703417Y-115293016D02*
X191637214Y-115615321D01*
X191580589Y-115906343D01*
X191537660Y-116143673D01*
X191512547Y-116304900D01*
X191507727Y-116357698D01*
X191556057Y-116515500D01*
X191688229Y-116618025D01*
X191885018Y-116662024D01*
X192127200Y-116644247D01*
X192395548Y-116561443D01*
X192480804Y-116522181D01*
X192670369Y-116417083D01*
X192802644Y-116306941D01*
X192895091Y-116164567D01*
X192965172Y-115962772D01*
X193030349Y-115674366D01*
X193032639Y-115662954D01*
X193092575Y-115369207D01*
X193159574Y-115049368D01*
X193216971Y-114782613D01*
X193308862Y-114364091D01*
X193707158Y-114364091D01*
X193926546Y-114369638D01*
X194051236Y-114389140D01*
X194101577Y-114426883D01*
X194105455Y-114448024D01*
X194092273Y-114555335D01*
X194055641Y-114755647D01*
X193999927Y-115029906D01*
X193929498Y-115359061D01*
X193848722Y-115724059D01*
X193761967Y-116105846D01*
X193673601Y-116485371D01*
X193587993Y-116843581D01*
X193509509Y-117161423D01*
X193442518Y-117419844D01*
X193391388Y-117599793D01*
X193366705Y-117670393D01*
X193157776Y-118018713D01*
X192873926Y-118311640D01*
X192543351Y-118520297D01*
X192531904Y-118525443D01*
X192375718Y-118586516D01*
X192213858Y-118627764D01*
X192016141Y-118653727D01*
X191752387Y-118668941D01*
X191536591Y-118675097D01*
X191157615Y-118675376D01*
X190853376Y-118658707D01*
X190641996Y-118626207D01*
X190612955Y-118618063D01*
X190470571Y-118561278D01*
X190390157Y-118505676D01*
X190383411Y-118489741D01*
X190400070Y-118316438D01*
X190435988Y-118135787D01*
X190481639Y-117983523D01*
X190527496Y-117895383D01*
X190544333Y-117886079D01*
X190636146Y-117902286D01*
X190794162Y-117942926D01*
X190896334Y-117972670D01*
X191234305Y-118040478D01*
X191589652Y-118053562D01*
X191918725Y-118012843D01*
X192123795Y-117946751D01*
X192301976Y-117845281D01*
X192439373Y-117709543D01*
X192557143Y-117512465D01*
X192667197Y-117251473D01*
X192779501Y-116955912D01*
X192524651Y-117105264D01*
X192211462Y-117243135D01*
X191872743Y-117315760D01*
X191536399Y-117323478D01*
X191230337Y-117266629D01*
X190982463Y-117145552D01*
X190912163Y-117085624D01*
X190804135Y-116961234D01*
X190729906Y-116827132D01*
X190688867Y-116666535D01*
X190680407Y-116462656D01*
X190703918Y-116198711D01*
X190758789Y-115857913D01*
X190844411Y-115423478D01*
X190850704Y-115393152D01*
X191064678Y-114364091D01*
X191899107Y-114364091D01*
X191703417Y-115293016D01*
X191703417Y-115293016D01*
G37*
X191703417Y-115293016D02*
X191637214Y-115615321D01*
X191580589Y-115906343D01*
X191537660Y-116143673D01*
X191512547Y-116304900D01*
X191507727Y-116357698D01*
X191556057Y-116515500D01*
X191688229Y-116618025D01*
X191885018Y-116662024D01*
X192127200Y-116644247D01*
X192395548Y-116561443D01*
X192480804Y-116522181D01*
X192670369Y-116417083D01*
X192802644Y-116306941D01*
X192895091Y-116164567D01*
X192965172Y-115962772D01*
X193030349Y-115674366D01*
X193032639Y-115662954D01*
X193092575Y-115369207D01*
X193159574Y-115049368D01*
X193216971Y-114782613D01*
X193308862Y-114364091D01*
X193707158Y-114364091D01*
X193926546Y-114369638D01*
X194051236Y-114389140D01*
X194101577Y-114426883D01*
X194105455Y-114448024D01*
X194092273Y-114555335D01*
X194055641Y-114755647D01*
X193999927Y-115029906D01*
X193929498Y-115359061D01*
X193848722Y-115724059D01*
X193761967Y-116105846D01*
X193673601Y-116485371D01*
X193587993Y-116843581D01*
X193509509Y-117161423D01*
X193442518Y-117419844D01*
X193391388Y-117599793D01*
X193366705Y-117670393D01*
X193157776Y-118018713D01*
X192873926Y-118311640D01*
X192543351Y-118520297D01*
X192531904Y-118525443D01*
X192375718Y-118586516D01*
X192213858Y-118627764D01*
X192016141Y-118653727D01*
X191752387Y-118668941D01*
X191536591Y-118675097D01*
X191157615Y-118675376D01*
X190853376Y-118658707D01*
X190641996Y-118626207D01*
X190612955Y-118618063D01*
X190470571Y-118561278D01*
X190390157Y-118505676D01*
X190383411Y-118489741D01*
X190400070Y-118316438D01*
X190435988Y-118135787D01*
X190481639Y-117983523D01*
X190527496Y-117895383D01*
X190544333Y-117886079D01*
X190636146Y-117902286D01*
X190794162Y-117942926D01*
X190896334Y-117972670D01*
X191234305Y-118040478D01*
X191589652Y-118053562D01*
X191918725Y-118012843D01*
X192123795Y-117946751D01*
X192301976Y-117845281D01*
X192439373Y-117709543D01*
X192557143Y-117512465D01*
X192667197Y-117251473D01*
X192779501Y-116955912D01*
X192524651Y-117105264D01*
X192211462Y-117243135D01*
X191872743Y-117315760D01*
X191536399Y-117323478D01*
X191230337Y-117266629D01*
X190982463Y-117145552D01*
X190912163Y-117085624D01*
X190804135Y-116961234D01*
X190729906Y-116827132D01*
X190688867Y-116666535D01*
X190680407Y-116462656D01*
X190703918Y-116198711D01*
X190758789Y-115857913D01*
X190844411Y-115423478D01*
X190850704Y-115393152D01*
X191064678Y-114364091D01*
X191899107Y-114364091D01*
X191703417Y-115293016D01*
G36*
X177860501Y-111781442D02*
X178064466Y-111822491D01*
X178325123Y-111883569D01*
X178615360Y-111958656D01*
X178657162Y-111970040D01*
X178959653Y-112054217D01*
X179178648Y-112122251D01*
X179342106Y-112188124D01*
X179477985Y-112265820D01*
X179614244Y-112369320D01*
X179778842Y-112512608D01*
X179825575Y-112554388D01*
X180007046Y-112725829D01*
X180149937Y-112877997D01*
X180235253Y-112989701D01*
X180250909Y-113028899D01*
X180231315Y-113150982D01*
X180179090Y-113341061D01*
X180104069Y-113572431D01*
X180016089Y-113818387D01*
X179924984Y-114052225D01*
X179840592Y-114247240D01*
X179772747Y-114376726D01*
X179740810Y-114413861D01*
X179635233Y-114450770D01*
X179458020Y-114497636D01*
X179284546Y-114536446D01*
X179085588Y-114582176D01*
X178970752Y-114628508D01*
X178910113Y-114694025D01*
X178875608Y-114790381D01*
X178847184Y-114895692D01*
X178793595Y-115094575D01*
X178719666Y-115369107D01*
X178630224Y-115701368D01*
X178530093Y-116073437D01*
X178461918Y-116326818D01*
X178338134Y-116774950D01*
X178226350Y-117155940D01*
X178130030Y-117458993D01*
X178052636Y-117673314D01*
X177997632Y-117788108D01*
X177990008Y-117797767D01*
X177851156Y-117876668D01*
X177633945Y-117922869D01*
X177370990Y-117935514D01*
X177094905Y-117913751D01*
X176838306Y-117856727D01*
X176763098Y-117829878D01*
X176487563Y-117687858D01*
X176272577Y-117514300D01*
X176136537Y-117327506D01*
X176096730Y-117166971D01*
X176106767Y-117101253D01*
X176498636Y-117101253D01*
X176551563Y-117220996D01*
X176691147Y-117333290D01*
X176888601Y-117429557D01*
X177115133Y-117501222D01*
X177341952Y-117539706D01*
X177540270Y-117536432D01*
X177681295Y-117482825D01*
X177704318Y-117460442D01*
X177720876Y-117416102D01*
X177669367Y-117386149D01*
X177531646Y-117364166D01*
X177397463Y-117351922D01*
X176989678Y-117273715D01*
X176761986Y-117174862D01*
X176590928Y-117091616D01*
X176507427Y-117081874D01*
X176498636Y-117101253D01*
X176106767Y-117101253D01*
X176112384Y-117064482D01*
X176155299Y-116867972D01*
X176209096Y-116644914D01*
X176613243Y-116644914D01*
X176674303Y-116762036D01*
X176808296Y-116882650D01*
X176996850Y-116990463D01*
X177221594Y-117069186D01*
X177235489Y-117072548D01*
X177424464Y-117113762D01*
X177546847Y-117125868D01*
X177647623Y-117109418D01*
X177736015Y-117078701D01*
X177864522Y-117006937D01*
X177882947Y-116937481D01*
X177796550Y-116877732D01*
X177610589Y-116835091D01*
X177558466Y-116828908D01*
X177310360Y-116781780D01*
X177054433Y-116700841D01*
X176952861Y-116656740D01*
X176792843Y-116584954D01*
X176678423Y-116547384D01*
X176643486Y-116547575D01*
X176613243Y-116644914D01*
X176209096Y-116644914D01*
X176221256Y-116594499D01*
X176306035Y-116261123D01*
X176338842Y-116136925D01*
X176745620Y-116136925D01*
X176779500Y-116213795D01*
X176893457Y-116300166D01*
X177074384Y-116398977D01*
X177375215Y-116518735D01*
X177669232Y-116557636D01*
X177685667Y-116557727D01*
X177863868Y-116552203D01*
X177958323Y-116526806D01*
X178000554Y-116468301D01*
X178012307Y-116420560D01*
X178018947Y-116344554D01*
X177985761Y-116300167D01*
X177888128Y-116274922D01*
X177701430Y-116256340D01*
X177685829Y-116255082D01*
X177441873Y-116217436D01*
X177199081Y-116151655D01*
X177078082Y-116103545D01*
X176912632Y-116033130D01*
X176818576Y-116021540D01*
X176777228Y-116052546D01*
X176745620Y-116136925D01*
X176338842Y-116136925D01*
X176405416Y-115884902D01*
X176491739Y-115567918D01*
X176899839Y-115567918D01*
X176924488Y-115669095D01*
X176986011Y-115746801D01*
X177154582Y-115851761D01*
X177368333Y-115936553D01*
X177599328Y-115996326D01*
X177819636Y-116026226D01*
X178001322Y-116021400D01*
X178116452Y-115976996D01*
X178137688Y-115946869D01*
X178167864Y-115826856D01*
X178125288Y-115767824D01*
X177991172Y-115749933D01*
X177950855Y-115749545D01*
X177728108Y-115721825D01*
X177430047Y-115643181D01*
X177081361Y-115520392D01*
X177003750Y-115489525D01*
X176927147Y-115495202D01*
X176899839Y-115567918D01*
X176491739Y-115567918D01*
X176497300Y-115547500D01*
X176629708Y-115067840D01*
X177045904Y-115067840D01*
X177070732Y-115152651D01*
X177193485Y-115247468D01*
X177398257Y-115342989D01*
X177661399Y-115427839D01*
X177923949Y-115490957D01*
X178099302Y-115511072D01*
X178207915Y-115486897D01*
X178270249Y-115417143D01*
X178282388Y-115388750D01*
X178300123Y-115319986D01*
X178276477Y-115274060D01*
X178190030Y-115238646D01*
X178019363Y-115201420D01*
X177926485Y-115183960D01*
X177683573Y-115128291D01*
X177452020Y-115057628D01*
X177299140Y-114995173D01*
X177165188Y-114937747D01*
X177085530Y-114924672D01*
X177075909Y-114935469D01*
X177056807Y-115035705D01*
X177045904Y-115067840D01*
X176629708Y-115067840D01*
X176790949Y-114483732D01*
X177192887Y-114483732D01*
X177213999Y-114603488D01*
X177301039Y-114706272D01*
X177321250Y-114718502D01*
X177643719Y-114849204D01*
X177987619Y-114918423D01*
X178172727Y-114924406D01*
X178338808Y-114907427D01*
X178420975Y-114866544D01*
X178449770Y-114791598D01*
X178446398Y-114734091D01*
X178404981Y-114686315D01*
X178306617Y-114638985D01*
X178132406Y-114582810D01*
X177886005Y-114514557D01*
X177639648Y-114452927D01*
X177433434Y-114409860D01*
X177293395Y-114390295D01*
X177248167Y-114393525D01*
X177192887Y-114483732D01*
X176790949Y-114483732D01*
X176895686Y-114104318D01*
X176722864Y-113928637D01*
X177432457Y-113928637D01*
X177435502Y-113934744D01*
X177501304Y-113963192D01*
X177647611Y-114012098D01*
X177843326Y-114072352D01*
X178057350Y-114134844D01*
X178258583Y-114190466D01*
X178415927Y-114230109D01*
X178493054Y-114244520D01*
X178501669Y-114234893D01*
X178822049Y-114234893D01*
X179121569Y-114165267D01*
X179302269Y-114119116D01*
X179438334Y-114076872D01*
X179481589Y-114058250D01*
X179522896Y-113991572D01*
X179578459Y-113853014D01*
X179637130Y-113678316D01*
X179687763Y-113503214D01*
X179719209Y-113363448D01*
X179720320Y-113294754D01*
X179719894Y-113294287D01*
X179657213Y-113294593D01*
X179516854Y-113316728D01*
X179385716Y-113343626D01*
X179071889Y-113413317D01*
X178822049Y-114234893D01*
X178501669Y-114234893D01*
X178537092Y-114195309D01*
X178598474Y-114061374D01*
X178665229Y-113869663D01*
X178677183Y-113830114D01*
X178731478Y-113625040D01*
X178762259Y-113464768D01*
X178764029Y-113379216D01*
X178760947Y-113374157D01*
X178689992Y-113342799D01*
X178536298Y-113292330D01*
X178329013Y-113232103D01*
X178259318Y-113213152D01*
X178032442Y-113152073D01*
X177840974Y-113099852D01*
X177718539Y-113065678D01*
X177701911Y-113060807D01*
X177647608Y-113066277D01*
X177600578Y-113132131D01*
X177551523Y-113277415D01*
X177503921Y-113466397D01*
X177459447Y-113676489D01*
X177434179Y-113840476D01*
X177432457Y-113928637D01*
X176722864Y-113928637D01*
X176581706Y-113785144D01*
X176424548Y-113610081D01*
X176313582Y-113456280D01*
X176267978Y-113350598D01*
X176267727Y-113345251D01*
X176273709Y-113295256D01*
X176664072Y-113295256D01*
X176902753Y-113517896D01*
X177036593Y-113633840D01*
X177135173Y-113702784D01*
X177170149Y-113711820D01*
X177197138Y-113644729D01*
X177239363Y-113497793D01*
X177283748Y-113319242D01*
X177368631Y-112955377D01*
X177113119Y-112699865D01*
X176857606Y-112444353D01*
X176760839Y-112869804D01*
X176664072Y-113295256D01*
X176273709Y-113295256D01*
X176279605Y-113245989D01*
X176311185Y-113070462D01*
X176356390Y-112846266D01*
X176409143Y-112600996D01*
X176463366Y-112362248D01*
X176483127Y-112280746D01*
X177075909Y-112280746D01*
X177113967Y-112339731D01*
X177211938Y-112449727D01*
X177302481Y-112541447D01*
X177416247Y-112642279D01*
X177539104Y-112722387D01*
X177697097Y-112793566D01*
X177916271Y-112867613D01*
X178211686Y-112953261D01*
X178541358Y-113043216D01*
X178786593Y-113102308D01*
X178973456Y-113133122D01*
X179128016Y-113138242D01*
X179276338Y-113120253D01*
X179444488Y-113081738D01*
X179461989Y-113077223D01*
X179741023Y-113004854D01*
X179456520Y-112764957D01*
X179318908Y-112657465D01*
X179179202Y-112572777D01*
X179010094Y-112499090D01*
X178784277Y-112424606D01*
X178474444Y-112337522D01*
X178455894Y-112332528D01*
X178144387Y-112251326D01*
X177915228Y-112199862D01*
X177740291Y-112174328D01*
X177591452Y-112170917D01*
X177440585Y-112185821D01*
X177407841Y-112190642D01*
X177230075Y-112223942D01*
X177109614Y-112258330D01*
X177075909Y-112280746D01*
X176483127Y-112280746D01*
X176512982Y-112157617D01*
X176551912Y-112014698D01*
X176572368Y-111962026D01*
X176641551Y-111938329D01*
X176794691Y-111904712D01*
X177001274Y-111866283D01*
X177230785Y-111828153D01*
X177452708Y-111795432D01*
X177636531Y-111773228D01*
X177740337Y-111766442D01*
X177860501Y-111781442D01*
X177860501Y-111781442D01*
G37*
X177860501Y-111781442D02*
X178064466Y-111822491D01*
X178325123Y-111883569D01*
X178615360Y-111958656D01*
X178657162Y-111970040D01*
X178959653Y-112054217D01*
X179178648Y-112122251D01*
X179342106Y-112188124D01*
X179477985Y-112265820D01*
X179614244Y-112369320D01*
X179778842Y-112512608D01*
X179825575Y-112554388D01*
X180007046Y-112725829D01*
X180149937Y-112877997D01*
X180235253Y-112989701D01*
X180250909Y-113028899D01*
X180231315Y-113150982D01*
X180179090Y-113341061D01*
X180104069Y-113572431D01*
X180016089Y-113818387D01*
X179924984Y-114052225D01*
X179840592Y-114247240D01*
X179772747Y-114376726D01*
X179740810Y-114413861D01*
X179635233Y-114450770D01*
X179458020Y-114497636D01*
X179284546Y-114536446D01*
X179085588Y-114582176D01*
X178970752Y-114628508D01*
X178910113Y-114694025D01*
X178875608Y-114790381D01*
X178847184Y-114895692D01*
X178793595Y-115094575D01*
X178719666Y-115369107D01*
X178630224Y-115701368D01*
X178530093Y-116073437D01*
X178461918Y-116326818D01*
X178338134Y-116774950D01*
X178226350Y-117155940D01*
X178130030Y-117458993D01*
X178052636Y-117673314D01*
X177997632Y-117788108D01*
X177990008Y-117797767D01*
X177851156Y-117876668D01*
X177633945Y-117922869D01*
X177370990Y-117935514D01*
X177094905Y-117913751D01*
X176838306Y-117856727D01*
X176763098Y-117829878D01*
X176487563Y-117687858D01*
X176272577Y-117514300D01*
X176136537Y-117327506D01*
X176096730Y-117166971D01*
X176106767Y-117101253D01*
X176498636Y-117101253D01*
X176551563Y-117220996D01*
X176691147Y-117333290D01*
X176888601Y-117429557D01*
X177115133Y-117501222D01*
X177341952Y-117539706D01*
X177540270Y-117536432D01*
X177681295Y-117482825D01*
X177704318Y-117460442D01*
X177720876Y-117416102D01*
X177669367Y-117386149D01*
X177531646Y-117364166D01*
X177397463Y-117351922D01*
X176989678Y-117273715D01*
X176761986Y-117174862D01*
X176590928Y-117091616D01*
X176507427Y-117081874D01*
X176498636Y-117101253D01*
X176106767Y-117101253D01*
X176112384Y-117064482D01*
X176155299Y-116867972D01*
X176209096Y-116644914D01*
X176613243Y-116644914D01*
X176674303Y-116762036D01*
X176808296Y-116882650D01*
X176996850Y-116990463D01*
X177221594Y-117069186D01*
X177235489Y-117072548D01*
X177424464Y-117113762D01*
X177546847Y-117125868D01*
X177647623Y-117109418D01*
X177736015Y-117078701D01*
X177864522Y-117006937D01*
X177882947Y-116937481D01*
X177796550Y-116877732D01*
X177610589Y-116835091D01*
X177558466Y-116828908D01*
X177310360Y-116781780D01*
X177054433Y-116700841D01*
X176952861Y-116656740D01*
X176792843Y-116584954D01*
X176678423Y-116547384D01*
X176643486Y-116547575D01*
X176613243Y-116644914D01*
X176209096Y-116644914D01*
X176221256Y-116594499D01*
X176306035Y-116261123D01*
X176338842Y-116136925D01*
X176745620Y-116136925D01*
X176779500Y-116213795D01*
X176893457Y-116300166D01*
X177074384Y-116398977D01*
X177375215Y-116518735D01*
X177669232Y-116557636D01*
X177685667Y-116557727D01*
X177863868Y-116552203D01*
X177958323Y-116526806D01*
X178000554Y-116468301D01*
X178012307Y-116420560D01*
X178018947Y-116344554D01*
X177985761Y-116300167D01*
X177888128Y-116274922D01*
X177701430Y-116256340D01*
X177685829Y-116255082D01*
X177441873Y-116217436D01*
X177199081Y-116151655D01*
X177078082Y-116103545D01*
X176912632Y-116033130D01*
X176818576Y-116021540D01*
X176777228Y-116052546D01*
X176745620Y-116136925D01*
X176338842Y-116136925D01*
X176405416Y-115884902D01*
X176491739Y-115567918D01*
X176899839Y-115567918D01*
X176924488Y-115669095D01*
X176986011Y-115746801D01*
X177154582Y-115851761D01*
X177368333Y-115936553D01*
X177599328Y-115996326D01*
X177819636Y-116026226D01*
X178001322Y-116021400D01*
X178116452Y-115976996D01*
X178137688Y-115946869D01*
X178167864Y-115826856D01*
X178125288Y-115767824D01*
X177991172Y-115749933D01*
X177950855Y-115749545D01*
X177728108Y-115721825D01*
X177430047Y-115643181D01*
X177081361Y-115520392D01*
X177003750Y-115489525D01*
X176927147Y-115495202D01*
X176899839Y-115567918D01*
X176491739Y-115567918D01*
X176497300Y-115547500D01*
X176629708Y-115067840D01*
X177045904Y-115067840D01*
X177070732Y-115152651D01*
X177193485Y-115247468D01*
X177398257Y-115342989D01*
X177661399Y-115427839D01*
X177923949Y-115490957D01*
X178099302Y-115511072D01*
X178207915Y-115486897D01*
X178270249Y-115417143D01*
X178282388Y-115388750D01*
X178300123Y-115319986D01*
X178276477Y-115274060D01*
X178190030Y-115238646D01*
X178019363Y-115201420D01*
X177926485Y-115183960D01*
X177683573Y-115128291D01*
X177452020Y-115057628D01*
X177299140Y-114995173D01*
X177165188Y-114937747D01*
X177085530Y-114924672D01*
X177075909Y-114935469D01*
X177056807Y-115035705D01*
X177045904Y-115067840D01*
X176629708Y-115067840D01*
X176790949Y-114483732D01*
X177192887Y-114483732D01*
X177213999Y-114603488D01*
X177301039Y-114706272D01*
X177321250Y-114718502D01*
X177643719Y-114849204D01*
X177987619Y-114918423D01*
X178172727Y-114924406D01*
X178338808Y-114907427D01*
X178420975Y-114866544D01*
X178449770Y-114791598D01*
X178446398Y-114734091D01*
X178404981Y-114686315D01*
X178306617Y-114638985D01*
X178132406Y-114582810D01*
X177886005Y-114514557D01*
X177639648Y-114452927D01*
X177433434Y-114409860D01*
X177293395Y-114390295D01*
X177248167Y-114393525D01*
X177192887Y-114483732D01*
X176790949Y-114483732D01*
X176895686Y-114104318D01*
X176722864Y-113928637D01*
X177432457Y-113928637D01*
X177435502Y-113934744D01*
X177501304Y-113963192D01*
X177647611Y-114012098D01*
X177843326Y-114072352D01*
X178057350Y-114134844D01*
X178258583Y-114190466D01*
X178415927Y-114230109D01*
X178493054Y-114244520D01*
X178501669Y-114234893D01*
X178822049Y-114234893D01*
X179121569Y-114165267D01*
X179302269Y-114119116D01*
X179438334Y-114076872D01*
X179481589Y-114058250D01*
X179522896Y-113991572D01*
X179578459Y-113853014D01*
X179637130Y-113678316D01*
X179687763Y-113503214D01*
X179719209Y-113363448D01*
X179720320Y-113294754D01*
X179719894Y-113294287D01*
X179657213Y-113294593D01*
X179516854Y-113316728D01*
X179385716Y-113343626D01*
X179071889Y-113413317D01*
X178822049Y-114234893D01*
X178501669Y-114234893D01*
X178537092Y-114195309D01*
X178598474Y-114061374D01*
X178665229Y-113869663D01*
X178677183Y-113830114D01*
X178731478Y-113625040D01*
X178762259Y-113464768D01*
X178764029Y-113379216D01*
X178760947Y-113374157D01*
X178689992Y-113342799D01*
X178536298Y-113292330D01*
X178329013Y-113232103D01*
X178259318Y-113213152D01*
X178032442Y-113152073D01*
X177840974Y-113099852D01*
X177718539Y-113065678D01*
X177701911Y-113060807D01*
X177647608Y-113066277D01*
X177600578Y-113132131D01*
X177551523Y-113277415D01*
X177503921Y-113466397D01*
X177459447Y-113676489D01*
X177434179Y-113840476D01*
X177432457Y-113928637D01*
X176722864Y-113928637D01*
X176581706Y-113785144D01*
X176424548Y-113610081D01*
X176313582Y-113456280D01*
X176267978Y-113350598D01*
X176267727Y-113345251D01*
X176273709Y-113295256D01*
X176664072Y-113295256D01*
X176902753Y-113517896D01*
X177036593Y-113633840D01*
X177135173Y-113702784D01*
X177170149Y-113711820D01*
X177197138Y-113644729D01*
X177239363Y-113497793D01*
X177283748Y-113319242D01*
X177368631Y-112955377D01*
X177113119Y-112699865D01*
X176857606Y-112444353D01*
X176760839Y-112869804D01*
X176664072Y-113295256D01*
X176273709Y-113295256D01*
X176279605Y-113245989D01*
X176311185Y-113070462D01*
X176356390Y-112846266D01*
X176409143Y-112600996D01*
X176463366Y-112362248D01*
X176483127Y-112280746D01*
X177075909Y-112280746D01*
X177113967Y-112339731D01*
X177211938Y-112449727D01*
X177302481Y-112541447D01*
X177416247Y-112642279D01*
X177539104Y-112722387D01*
X177697097Y-112793566D01*
X177916271Y-112867613D01*
X178211686Y-112953261D01*
X178541358Y-113043216D01*
X178786593Y-113102308D01*
X178973456Y-113133122D01*
X179128016Y-113138242D01*
X179276338Y-113120253D01*
X179444488Y-113081738D01*
X179461989Y-113077223D01*
X179741023Y-113004854D01*
X179456520Y-112764957D01*
X179318908Y-112657465D01*
X179179202Y-112572777D01*
X179010094Y-112499090D01*
X178784277Y-112424606D01*
X178474444Y-112337522D01*
X178455894Y-112332528D01*
X178144387Y-112251326D01*
X177915228Y-112199862D01*
X177740291Y-112174328D01*
X177591452Y-112170917D01*
X177440585Y-112185821D01*
X177407841Y-112190642D01*
X177230075Y-112223942D01*
X177109614Y-112258330D01*
X177075909Y-112280746D01*
X176483127Y-112280746D01*
X176512982Y-112157617D01*
X176551912Y-112014698D01*
X176572368Y-111962026D01*
X176641551Y-111938329D01*
X176794691Y-111904712D01*
X177001274Y-111866283D01*
X177230785Y-111828153D01*
X177452708Y-111795432D01*
X177636531Y-111773228D01*
X177740337Y-111766442D01*
X177860501Y-111781442D01*
G36*
X188817450Y-112785871D02*
X188987414Y-112806485D01*
X189079108Y-112836334D01*
X189081585Y-112838544D01*
X189112320Y-112923771D01*
X189098046Y-113086188D01*
X189074149Y-113201321D01*
X189004711Y-113502145D01*
X188762913Y-113465885D01*
X188486498Y-113467800D01*
X188267376Y-113566805D01*
X188103003Y-113765172D01*
X187990836Y-114065173D01*
X187966769Y-114176477D01*
X187931523Y-114364091D01*
X188944885Y-114364091D01*
X189028465Y-113945568D01*
X189112046Y-113527045D01*
X189532312Y-113510049D01*
X189747945Y-113502973D01*
X189871082Y-113508045D01*
X189924554Y-113532024D01*
X189931192Y-113581665D01*
X189922438Y-113625504D01*
X189860655Y-113902068D01*
X189812969Y-114125581D01*
X189783991Y-114273947D01*
X189777320Y-114320795D01*
X189829014Y-114343511D01*
X189964930Y-114359189D01*
X190126163Y-114364091D01*
X190319351Y-114368054D01*
X190420508Y-114384836D01*
X190452926Y-114421778D01*
X190446741Y-114465114D01*
X190416993Y-114588547D01*
X190383080Y-114758290D01*
X190378699Y-114782614D01*
X190340333Y-114999091D01*
X189627860Y-114999091D01*
X189464686Y-115773745D01*
X189407874Y-116061510D01*
X189365777Y-116310851D01*
X189341700Y-116499077D01*
X189338948Y-116603497D01*
X189342273Y-116614351D01*
X189463495Y-116709622D01*
X189655199Y-116749432D01*
X189867634Y-116729751D01*
X190010668Y-116700588D01*
X190093759Y-116689564D01*
X190100987Y-116690803D01*
X190096792Y-116748525D01*
X190074461Y-116884929D01*
X190051789Y-117004477D01*
X190009908Y-117183393D01*
X189958412Y-117282693D01*
X189871419Y-117337062D01*
X189782817Y-117364951D01*
X189491843Y-117413445D01*
X189188601Y-117411323D01*
X188925267Y-117360046D01*
X188871062Y-117339405D01*
X188711837Y-117241511D01*
X188598767Y-117099979D01*
X188531400Y-116904940D01*
X188509282Y-116646524D01*
X188531958Y-116314864D01*
X188598977Y-115900089D01*
X188709885Y-115392332D01*
X188770277Y-115145654D01*
X188808240Y-114994396D01*
X188299867Y-115011175D01*
X187791493Y-115027954D01*
X187554903Y-116153636D01*
X187318312Y-117279318D01*
X186894955Y-117296419D01*
X186678371Y-117303587D01*
X186554526Y-117298784D01*
X186500824Y-117275323D01*
X186494669Y-117226521D01*
X186504732Y-117180964D01*
X186533806Y-117055472D01*
X186578388Y-116852046D01*
X186633919Y-116592627D01*
X186695838Y-116299158D01*
X186759586Y-115993579D01*
X186820601Y-115697833D01*
X186874325Y-115433860D01*
X186916197Y-115223603D01*
X186941657Y-115089002D01*
X186947273Y-115051589D01*
X186896401Y-115017306D01*
X186770845Y-114999709D01*
X186738969Y-114999091D01*
X186602931Y-114992155D01*
X186554267Y-114954835D01*
X186565036Y-114862357D01*
X186568578Y-114848038D01*
X186609944Y-114670890D01*
X186639779Y-114530538D01*
X186676490Y-114419320D01*
X186752178Y-114372836D01*
X186886206Y-114364091D01*
X187099344Y-114364091D01*
X187200762Y-113933901D01*
X187338393Y-113517188D01*
X187534881Y-113198237D01*
X187796041Y-112972263D01*
X188127687Y-112834480D01*
X188535633Y-112780101D01*
X188603995Y-112778841D01*
X188817450Y-112785871D01*
X188817450Y-112785871D01*
G37*
X188817450Y-112785871D02*
X188987414Y-112806485D01*
X189079108Y-112836334D01*
X189081585Y-112838544D01*
X189112320Y-112923771D01*
X189098046Y-113086188D01*
X189074149Y-113201321D01*
X189004711Y-113502145D01*
X188762913Y-113465885D01*
X188486498Y-113467800D01*
X188267376Y-113566805D01*
X188103003Y-113765172D01*
X187990836Y-114065173D01*
X187966769Y-114176477D01*
X187931523Y-114364091D01*
X188944885Y-114364091D01*
X189028465Y-113945568D01*
X189112046Y-113527045D01*
X189532312Y-113510049D01*
X189747945Y-113502973D01*
X189871082Y-113508045D01*
X189924554Y-113532024D01*
X189931192Y-113581665D01*
X189922438Y-113625504D01*
X189860655Y-113902068D01*
X189812969Y-114125581D01*
X189783991Y-114273947D01*
X189777320Y-114320795D01*
X189829014Y-114343511D01*
X189964930Y-114359189D01*
X190126163Y-114364091D01*
X190319351Y-114368054D01*
X190420508Y-114384836D01*
X190452926Y-114421778D01*
X190446741Y-114465114D01*
X190416993Y-114588547D01*
X190383080Y-114758290D01*
X190378699Y-114782614D01*
X190340333Y-114999091D01*
X189627860Y-114999091D01*
X189464686Y-115773745D01*
X189407874Y-116061510D01*
X189365777Y-116310851D01*
X189341700Y-116499077D01*
X189338948Y-116603497D01*
X189342273Y-116614351D01*
X189463495Y-116709622D01*
X189655199Y-116749432D01*
X189867634Y-116729751D01*
X190010668Y-116700588D01*
X190093759Y-116689564D01*
X190100987Y-116690803D01*
X190096792Y-116748525D01*
X190074461Y-116884929D01*
X190051789Y-117004477D01*
X190009908Y-117183393D01*
X189958412Y-117282693D01*
X189871419Y-117337062D01*
X189782817Y-117364951D01*
X189491843Y-117413445D01*
X189188601Y-117411323D01*
X188925267Y-117360046D01*
X188871062Y-117339405D01*
X188711837Y-117241511D01*
X188598767Y-117099979D01*
X188531400Y-116904940D01*
X188509282Y-116646524D01*
X188531958Y-116314864D01*
X188598977Y-115900089D01*
X188709885Y-115392332D01*
X188770277Y-115145654D01*
X188808240Y-114994396D01*
X188299867Y-115011175D01*
X187791493Y-115027954D01*
X187554903Y-116153636D01*
X187318312Y-117279318D01*
X186894955Y-117296419D01*
X186678371Y-117303587D01*
X186554526Y-117298784D01*
X186500824Y-117275323D01*
X186494669Y-117226521D01*
X186504732Y-117180964D01*
X186533806Y-117055472D01*
X186578388Y-116852046D01*
X186633919Y-116592627D01*
X186695838Y-116299158D01*
X186759586Y-115993579D01*
X186820601Y-115697833D01*
X186874325Y-115433860D01*
X186916197Y-115223603D01*
X186941657Y-115089002D01*
X186947273Y-115051589D01*
X186896401Y-115017306D01*
X186770845Y-114999709D01*
X186738969Y-114999091D01*
X186602931Y-114992155D01*
X186554267Y-114954835D01*
X186565036Y-114862357D01*
X186568578Y-114848038D01*
X186609944Y-114670890D01*
X186639779Y-114530538D01*
X186676490Y-114419320D01*
X186752178Y-114372836D01*
X186886206Y-114364091D01*
X187099344Y-114364091D01*
X187200762Y-113933901D01*
X187338393Y-113517188D01*
X187534881Y-113198237D01*
X187796041Y-112972263D01*
X188127687Y-112834480D01*
X188535633Y-112780101D01*
X188603995Y-112778841D01*
X188817450Y-112785871D01*
G36*
X200075961Y-114302979D02*
X200289809Y-114331633D01*
X200465870Y-114387033D01*
X200530121Y-114416045D01*
X200708704Y-114498802D01*
X200807963Y-114530018D01*
X200850654Y-114512088D01*
X200859546Y-114450682D01*
X200883310Y-114403635D01*
X200968759Y-114376709D01*
X201137128Y-114365353D01*
X201263636Y-114364091D01*
X201504294Y-114373263D01*
X201639035Y-114400250D01*
X201667727Y-114429897D01*
X201656164Y-114502478D01*
X201623649Y-114671847D01*
X201573449Y-114921906D01*
X201508827Y-115236556D01*
X201433048Y-115599701D01*
X201369211Y-115901942D01*
X201070696Y-117308182D01*
X200676484Y-117308182D01*
X200466199Y-117304471D01*
X200346747Y-117288921D01*
X200293626Y-117254905D01*
X200282273Y-117201554D01*
X200273991Y-117144545D01*
X200232548Y-117133207D01*
X200133047Y-117170438D01*
X200000558Y-117234346D01*
X199739398Y-117326225D01*
X199419051Y-117385182D01*
X199086348Y-117406826D01*
X198788119Y-117386764D01*
X198665909Y-117359522D01*
X198340084Y-117206994D01*
X198095071Y-116975481D01*
X197936105Y-116673280D01*
X197868421Y-116308684D01*
X197870864Y-116099573D01*
X197886564Y-116013263D01*
X198706489Y-116013263D01*
X198727627Y-116301065D01*
X198836994Y-116522253D01*
X199027591Y-116670350D01*
X199292418Y-116738876D01*
X199624475Y-116721353D01*
X199860295Y-116664660D01*
X200111315Y-116533314D01*
X200329773Y-116315973D01*
X200491084Y-116041819D01*
X200555160Y-115839878D01*
X200588672Y-115610993D01*
X200586536Y-115434844D01*
X200574562Y-115386005D01*
X200434447Y-115174648D01*
X200213888Y-115026653D01*
X199934290Y-114951010D01*
X199617057Y-114956708D01*
X199570890Y-114964503D01*
X199376775Y-115042570D01*
X199163731Y-115190927D01*
X198967295Y-115378061D01*
X198823002Y-115572460D01*
X198780581Y-115665326D01*
X198706489Y-116013263D01*
X197886564Y-116013263D01*
X197956959Y-115626282D01*
X198139390Y-115205071D01*
X198410736Y-114847387D01*
X198763579Y-114564675D01*
X198922820Y-114476647D01*
X199125392Y-114383823D01*
X199296227Y-114329059D01*
X199481300Y-114302669D01*
X199726585Y-114294968D01*
X199785933Y-114294818D01*
X200075961Y-114302979D01*
X200075961Y-114302979D01*
G37*
X200075961Y-114302979D02*
X200289809Y-114331633D01*
X200465870Y-114387033D01*
X200530121Y-114416045D01*
X200708704Y-114498802D01*
X200807963Y-114530018D01*
X200850654Y-114512088D01*
X200859546Y-114450682D01*
X200883310Y-114403635D01*
X200968759Y-114376709D01*
X201137128Y-114365353D01*
X201263636Y-114364091D01*
X201504294Y-114373263D01*
X201639035Y-114400250D01*
X201667727Y-114429897D01*
X201656164Y-114502478D01*
X201623649Y-114671847D01*
X201573449Y-114921906D01*
X201508827Y-115236556D01*
X201433048Y-115599701D01*
X201369211Y-115901942D01*
X201070696Y-117308182D01*
X200676484Y-117308182D01*
X200466199Y-117304471D01*
X200346747Y-117288921D01*
X200293626Y-117254905D01*
X200282273Y-117201554D01*
X200273991Y-117144545D01*
X200232548Y-117133207D01*
X200133047Y-117170438D01*
X200000558Y-117234346D01*
X199739398Y-117326225D01*
X199419051Y-117385182D01*
X199086348Y-117406826D01*
X198788119Y-117386764D01*
X198665909Y-117359522D01*
X198340084Y-117206994D01*
X198095071Y-116975481D01*
X197936105Y-116673280D01*
X197868421Y-116308684D01*
X197870864Y-116099573D01*
X197886564Y-116013263D01*
X198706489Y-116013263D01*
X198727627Y-116301065D01*
X198836994Y-116522253D01*
X199027591Y-116670350D01*
X199292418Y-116738876D01*
X199624475Y-116721353D01*
X199860295Y-116664660D01*
X200111315Y-116533314D01*
X200329773Y-116315973D01*
X200491084Y-116041819D01*
X200555160Y-115839878D01*
X200588672Y-115610993D01*
X200586536Y-115434844D01*
X200574562Y-115386005D01*
X200434447Y-115174648D01*
X200213888Y-115026653D01*
X199934290Y-114951010D01*
X199617057Y-114956708D01*
X199570890Y-114964503D01*
X199376775Y-115042570D01*
X199163731Y-115190927D01*
X198967295Y-115378061D01*
X198823002Y-115572460D01*
X198780581Y-115665326D01*
X198706489Y-116013263D01*
X197886564Y-116013263D01*
X197956959Y-115626282D01*
X198139390Y-115205071D01*
X198410736Y-114847387D01*
X198763579Y-114564675D01*
X198922820Y-114476647D01*
X199125392Y-114383823D01*
X199296227Y-114329059D01*
X199481300Y-114302669D01*
X199726585Y-114294968D01*
X199785933Y-114294818D01*
X200075961Y-114302979D01*
G36*
X205930404Y-113516918D02*
X205995493Y-113535908D01*
X205996371Y-113538948D01*
X205983227Y-113615588D01*
X205949973Y-113768559D01*
X205911836Y-113931136D01*
X205867434Y-114120289D01*
X205836322Y-114262814D01*
X205826147Y-114320795D01*
X205877504Y-114343441D01*
X206013262Y-114359111D01*
X206176713Y-114364091D01*
X206370072Y-114366095D01*
X206472035Y-114379805D01*
X206506659Y-114416767D01*
X206498002Y-114488530D01*
X206491423Y-114515144D01*
X206450057Y-114692292D01*
X206420221Y-114832644D01*
X206395712Y-114924103D01*
X206349127Y-114973889D01*
X206250968Y-114994656D01*
X206071738Y-114999059D01*
X206032256Y-114999091D01*
X205677581Y-114999091D01*
X205514629Y-115785481D01*
X205450461Y-116101685D01*
X205409919Y-116324611D01*
X205391369Y-116473636D01*
X205393178Y-116568138D01*
X205413712Y-116627497D01*
X205440817Y-116661011D01*
X205589903Y-116734276D01*
X205813161Y-116744691D01*
X206015698Y-116709823D01*
X206118715Y-116689821D01*
X206156607Y-116719037D01*
X206147780Y-116824598D01*
X206136473Y-116887816D01*
X206086562Y-117119296D01*
X206028860Y-117261412D01*
X205945295Y-117339799D01*
X205817797Y-117380089D01*
X205785379Y-117385840D01*
X205418648Y-117419150D01*
X205101970Y-117393927D01*
X204922293Y-117340687D01*
X204756272Y-117242354D01*
X204641393Y-117106038D01*
X204575864Y-116918825D01*
X204557894Y-116667803D01*
X204585694Y-116340057D01*
X204657472Y-115922675D01*
X204698409Y-115726280D01*
X204754740Y-115463358D01*
X204800780Y-115243934D01*
X204831713Y-115091284D01*
X204842727Y-115028935D01*
X204791802Y-115009444D01*
X204666120Y-114999441D01*
X204634257Y-114999091D01*
X204425787Y-114999091D01*
X204464153Y-114782614D01*
X204505733Y-114567854D01*
X204547846Y-114442890D01*
X204608913Y-114383455D01*
X204707353Y-114365286D01*
X204781859Y-114364091D01*
X205001847Y-114364091D01*
X205082154Y-113945568D01*
X205162460Y-113527045D01*
X205579867Y-113510084D01*
X205782339Y-113507650D01*
X205930404Y-113516918D01*
X205930404Y-113516918D01*
G37*
X205930404Y-113516918D02*
X205995493Y-113535908D01*
X205996371Y-113538948D01*
X205983227Y-113615588D01*
X205949973Y-113768559D01*
X205911836Y-113931136D01*
X205867434Y-114120289D01*
X205836322Y-114262814D01*
X205826147Y-114320795D01*
X205877504Y-114343441D01*
X206013262Y-114359111D01*
X206176713Y-114364091D01*
X206370072Y-114366095D01*
X206472035Y-114379805D01*
X206506659Y-114416767D01*
X206498002Y-114488530D01*
X206491423Y-114515144D01*
X206450057Y-114692292D01*
X206420221Y-114832644D01*
X206395712Y-114924103D01*
X206349127Y-114973889D01*
X206250968Y-114994656D01*
X206071738Y-114999059D01*
X206032256Y-114999091D01*
X205677581Y-114999091D01*
X205514629Y-115785481D01*
X205450461Y-116101685D01*
X205409919Y-116324611D01*
X205391369Y-116473636D01*
X205393178Y-116568138D01*
X205413712Y-116627497D01*
X205440817Y-116661011D01*
X205589903Y-116734276D01*
X205813161Y-116744691D01*
X206015698Y-116709823D01*
X206118715Y-116689821D01*
X206156607Y-116719037D01*
X206147780Y-116824598D01*
X206136473Y-116887816D01*
X206086562Y-117119296D01*
X206028860Y-117261412D01*
X205945295Y-117339799D01*
X205817797Y-117380089D01*
X205785379Y-117385840D01*
X205418648Y-117419150D01*
X205101970Y-117393927D01*
X204922293Y-117340687D01*
X204756272Y-117242354D01*
X204641393Y-117106038D01*
X204575864Y-116918825D01*
X204557894Y-116667803D01*
X204585694Y-116340057D01*
X204657472Y-115922675D01*
X204698409Y-115726280D01*
X204754740Y-115463358D01*
X204800780Y-115243934D01*
X204831713Y-115091284D01*
X204842727Y-115028935D01*
X204791802Y-115009444D01*
X204666120Y-114999441D01*
X204634257Y-114999091D01*
X204425787Y-114999091D01*
X204464153Y-114782614D01*
X204505733Y-114567854D01*
X204547846Y-114442890D01*
X204608913Y-114383455D01*
X204707353Y-114365286D01*
X204781859Y-114364091D01*
X205001847Y-114364091D01*
X205082154Y-113945568D01*
X205162460Y-113527045D01*
X205579867Y-113510084D01*
X205782339Y-113507650D01*
X205930404Y-113516918D01*
G36*
X208714126Y-114315400D02*
X208975959Y-114350926D01*
X209181688Y-114402103D01*
X209305179Y-114467096D01*
X209320094Y-114485213D01*
X209334904Y-114579747D01*
X209325690Y-114738171D01*
X209298654Y-114912944D01*
X209259997Y-115056528D01*
X209240020Y-115099015D01*
X209185999Y-115131659D01*
X209076687Y-115117387D01*
X208894721Y-115055719D01*
X208610657Y-114974776D01*
X208330104Y-114941709D01*
X208074481Y-114953495D01*
X207865205Y-115007107D01*
X207723694Y-115099522D01*
X207671365Y-115227715D01*
X207671364Y-115228499D01*
X207685915Y-115284526D01*
X207740249Y-115338033D01*
X207850389Y-115396887D01*
X208032357Y-115468953D01*
X208302176Y-115562095D01*
X208450682Y-115611071D01*
X208779953Y-115753474D01*
X209002167Y-115933284D01*
X209121317Y-116156330D01*
X209141398Y-116428441D01*
X209116129Y-116582123D01*
X209000249Y-116881686D01*
X208802763Y-117110665D01*
X208519141Y-117271869D01*
X208144854Y-117368110D01*
X207798607Y-117399473D01*
X207530584Y-117401867D01*
X207271754Y-117391343D01*
X207069668Y-117370115D01*
X207036364Y-117363982D01*
X206744012Y-117289630D01*
X206558098Y-117209097D01*
X206469613Y-117117749D01*
X206459091Y-117066968D01*
X206472237Y-116937290D01*
X206505126Y-116775422D01*
X206547938Y-116617385D01*
X206590853Y-116499202D01*
X206624048Y-116456893D01*
X206625281Y-116457418D01*
X206877702Y-116573916D01*
X207163923Y-116670508D01*
X207447508Y-116738022D01*
X207692025Y-116767288D01*
X207824509Y-116759311D01*
X207964514Y-116730704D01*
X208083519Y-116706021D01*
X208230450Y-116633076D01*
X208286797Y-116507833D01*
X208270678Y-116416448D01*
X208202957Y-116357733D01*
X208055675Y-116283146D01*
X207860286Y-116208536D01*
X207853967Y-116206449D01*
X207486516Y-116073863D01*
X207216226Y-115947308D01*
X207025806Y-115817617D01*
X206926366Y-115714507D01*
X206820131Y-115494732D01*
X206809872Y-115249272D01*
X206885371Y-114997748D01*
X207036410Y-114759780D01*
X207252769Y-114554988D01*
X207524232Y-114402993D01*
X207628418Y-114366482D01*
X207853335Y-114321065D01*
X208126681Y-114298635D01*
X208422322Y-114297358D01*
X208714126Y-114315400D01*
X208714126Y-114315400D01*
G37*
X208714126Y-114315400D02*
X208975959Y-114350926D01*
X209181688Y-114402103D01*
X209305179Y-114467096D01*
X209320094Y-114485213D01*
X209334904Y-114579747D01*
X209325690Y-114738171D01*
X209298654Y-114912944D01*
X209259997Y-115056528D01*
X209240020Y-115099015D01*
X209185999Y-115131659D01*
X209076687Y-115117387D01*
X208894721Y-115055719D01*
X208610657Y-114974776D01*
X208330104Y-114941709D01*
X208074481Y-114953495D01*
X207865205Y-115007107D01*
X207723694Y-115099522D01*
X207671365Y-115227715D01*
X207671364Y-115228499D01*
X207685915Y-115284526D01*
X207740249Y-115338033D01*
X207850389Y-115396887D01*
X208032357Y-115468953D01*
X208302176Y-115562095D01*
X208450682Y-115611071D01*
X208779953Y-115753474D01*
X209002167Y-115933284D01*
X209121317Y-116156330D01*
X209141398Y-116428441D01*
X209116129Y-116582123D01*
X209000249Y-116881686D01*
X208802763Y-117110665D01*
X208519141Y-117271869D01*
X208144854Y-117368110D01*
X207798607Y-117399473D01*
X207530584Y-117401867D01*
X207271754Y-117391343D01*
X207069668Y-117370115D01*
X207036364Y-117363982D01*
X206744012Y-117289630D01*
X206558098Y-117209097D01*
X206469613Y-117117749D01*
X206459091Y-117066968D01*
X206472237Y-116937290D01*
X206505126Y-116775422D01*
X206547938Y-116617385D01*
X206590853Y-116499202D01*
X206624048Y-116456893D01*
X206625281Y-116457418D01*
X206877702Y-116573916D01*
X207163923Y-116670508D01*
X207447508Y-116738022D01*
X207692025Y-116767288D01*
X207824509Y-116759311D01*
X207964514Y-116730704D01*
X208083519Y-116706021D01*
X208230450Y-116633076D01*
X208286797Y-116507833D01*
X208270678Y-116416448D01*
X208202957Y-116357733D01*
X208055675Y-116283146D01*
X207860286Y-116208536D01*
X207853967Y-116206449D01*
X207486516Y-116073863D01*
X207216226Y-115947308D01*
X207025806Y-115817617D01*
X206926366Y-115714507D01*
X206820131Y-115494732D01*
X206809872Y-115249272D01*
X206885371Y-114997748D01*
X207036410Y-114759780D01*
X207252769Y-114554988D01*
X207524232Y-114402993D01*
X207628418Y-114366482D01*
X207853335Y-114321065D01*
X208126681Y-114298635D01*
X208422322Y-114297358D01*
X208714126Y-114315400D01*
G36*
X182184773Y-113037996D02*
X182586470Y-113917520D01*
X182745521Y-114265078D01*
X182911534Y-114626679D01*
X183068449Y-114967412D01*
X183200204Y-115252372D01*
X183243444Y-115345454D01*
X183498721Y-115893864D01*
X183798605Y-114479545D01*
X184098489Y-113065227D01*
X184519895Y-113048120D01*
X184735941Y-113041024D01*
X184859682Y-113046134D01*
X184914138Y-113070178D01*
X184922328Y-113119885D01*
X184914861Y-113163575D01*
X184897050Y-113249550D01*
X184858241Y-113434657D01*
X184801348Y-113705078D01*
X184729284Y-114046994D01*
X184644959Y-114446584D01*
X184551288Y-114890031D01*
X184463671Y-115304466D01*
X184038919Y-117312796D01*
X183230793Y-117279318D01*
X182583955Y-115872599D01*
X182366270Y-115405339D01*
X182189815Y-115039953D01*
X182055181Y-114777571D01*
X181962957Y-114619325D01*
X181913733Y-114566347D01*
X181906513Y-114573735D01*
X181886352Y-114659428D01*
X181846559Y-114840718D01*
X181790870Y-115100136D01*
X181723020Y-115420212D01*
X181646744Y-115783479D01*
X181602651Y-115994886D01*
X181329394Y-117308182D01*
X180911011Y-117308182D01*
X180694645Y-117305100D01*
X180571379Y-117292052D01*
X180518940Y-117263335D01*
X180515050Y-117213247D01*
X180516400Y-117207159D01*
X180533554Y-117128301D01*
X180571459Y-116950286D01*
X180627194Y-116686962D01*
X180697835Y-116352172D01*
X180780461Y-115959763D01*
X180872149Y-115523579D01*
X180945896Y-115172273D01*
X181042713Y-114712097D01*
X181133051Y-114285208D01*
X181213937Y-113905453D01*
X181282401Y-113586682D01*
X181335472Y-113342744D01*
X181370179Y-113187487D01*
X181382427Y-113137386D01*
X181419460Y-113081821D01*
X181505152Y-113050915D01*
X181665405Y-113038437D01*
X181799004Y-113037180D01*
X182184773Y-113037996D01*
X182184773Y-113037996D01*
G37*
X182184773Y-113037996D02*
X182586470Y-113917520D01*
X182745521Y-114265078D01*
X182911534Y-114626679D01*
X183068449Y-114967412D01*
X183200204Y-115252372D01*
X183243444Y-115345454D01*
X183498721Y-115893864D01*
X183798605Y-114479545D01*
X184098489Y-113065227D01*
X184519895Y-113048120D01*
X184735941Y-113041024D01*
X184859682Y-113046134D01*
X184914138Y-113070178D01*
X184922328Y-113119885D01*
X184914861Y-113163575D01*
X184897050Y-113249550D01*
X184858241Y-113434657D01*
X184801348Y-113705078D01*
X184729284Y-114046994D01*
X184644959Y-114446584D01*
X184551288Y-114890031D01*
X184463671Y-115304466D01*
X184038919Y-117312796D01*
X183230793Y-117279318D01*
X182583955Y-115872599D01*
X182366270Y-115405339D01*
X182189815Y-115039953D01*
X182055181Y-114777571D01*
X181962957Y-114619325D01*
X181913733Y-114566347D01*
X181906513Y-114573735D01*
X181886352Y-114659428D01*
X181846559Y-114840718D01*
X181790870Y-115100136D01*
X181723020Y-115420212D01*
X181646744Y-115783479D01*
X181602651Y-115994886D01*
X181329394Y-117308182D01*
X180911011Y-117308182D01*
X180694645Y-117305100D01*
X180571379Y-117292052D01*
X180518940Y-117263335D01*
X180515050Y-117213247D01*
X180516400Y-117207159D01*
X180533554Y-117128301D01*
X180571459Y-116950286D01*
X180627194Y-116686962D01*
X180697835Y-116352172D01*
X180780461Y-115959763D01*
X180872149Y-115523579D01*
X180945896Y-115172273D01*
X181042713Y-114712097D01*
X181133051Y-114285208D01*
X181213937Y-113905453D01*
X181282401Y-113586682D01*
X181335472Y-113342744D01*
X181370179Y-113187487D01*
X181382427Y-113137386D01*
X181419460Y-113081821D01*
X181505152Y-113050915D01*
X181665405Y-113038437D01*
X181799004Y-113037180D01*
X182184773Y-113037996D01*
G36*
X186166408Y-114551704D02*
X186144053Y-114662033D01*
X186101396Y-114866000D01*
X186042509Y-115144391D01*
X185971464Y-115477992D01*
X185892331Y-115847589D01*
X185857579Y-116009318D01*
X185584392Y-117279318D01*
X185161773Y-117296425D01*
X184945351Y-117303529D01*
X184821301Y-117298494D01*
X184766670Y-117274621D01*
X184758504Y-117225207D01*
X184766265Y-117180970D01*
X184785549Y-117088374D01*
X184824958Y-116900431D01*
X184880786Y-116634765D01*
X184949330Y-116308999D01*
X185026883Y-115940754D01*
X185076305Y-115706250D01*
X185359233Y-114364091D01*
X186202050Y-114364091D01*
X186166408Y-114551704D01*
X186166408Y-114551704D01*
G37*
X186166408Y-114551704D02*
X186144053Y-114662033D01*
X186101396Y-114866000D01*
X186042509Y-115144391D01*
X185971464Y-115477992D01*
X185892331Y-115847589D01*
X185857579Y-116009318D01*
X185584392Y-117279318D01*
X185161773Y-117296425D01*
X184945351Y-117303529D01*
X184821301Y-117298494D01*
X184766670Y-117274621D01*
X184758504Y-117225207D01*
X184766265Y-117180970D01*
X184785549Y-117088374D01*
X184824958Y-116900431D01*
X184880786Y-116634765D01*
X184949330Y-116308999D01*
X185026883Y-115940754D01*
X185076305Y-115706250D01*
X185359233Y-114364091D01*
X186202050Y-114364091D01*
X186166408Y-114551704D01*
G36*
X196706456Y-113040450D02*
X197060729Y-113054996D01*
X197336220Y-113083430D01*
X197551159Y-113129181D01*
X197723775Y-113195678D01*
X197872297Y-113286350D01*
X197961593Y-113357336D01*
X198168797Y-113607205D01*
X198284479Y-113914727D01*
X198306651Y-114264660D01*
X198233320Y-114641763D01*
X198155881Y-114845572D01*
X197971061Y-115168054D01*
X197727967Y-115423638D01*
X197417184Y-115616608D01*
X197029298Y-115751251D01*
X196554894Y-115831853D01*
X195984558Y-115862698D01*
X195920410Y-115863217D01*
X195512865Y-115865000D01*
X195369307Y-116572159D01*
X195225748Y-117279318D01*
X194802679Y-117296425D01*
X194586104Y-117303522D01*
X194461873Y-117298483D01*
X194407005Y-117274621D01*
X194398516Y-117225243D01*
X194406048Y-117180970D01*
X194423863Y-117094979D01*
X194462673Y-116909863D01*
X194519564Y-116639453D01*
X194591620Y-116297576D01*
X194675929Y-115898062D01*
X194769575Y-115454737D01*
X194838329Y-115129521D01*
X195674363Y-115129521D01*
X195698399Y-115159425D01*
X195773685Y-115172691D01*
X195919724Y-115171913D01*
X196156020Y-115159687D01*
X196240116Y-115154620D01*
X196591009Y-115123695D01*
X196840703Y-115078739D01*
X197002877Y-115017270D01*
X197005757Y-115015600D01*
X197251126Y-114810192D01*
X197409090Y-114541292D01*
X197444819Y-114417350D01*
X197470800Y-114171830D01*
X197426621Y-113987586D01*
X197303436Y-113857999D01*
X197092397Y-113776450D01*
X196784657Y-113736319D01*
X196525204Y-113729307D01*
X195972000Y-113729091D01*
X195842815Y-114349659D01*
X195787086Y-114613702D01*
X195737105Y-114843893D01*
X195699161Y-115011644D01*
X195682071Y-115080384D01*
X195674363Y-115129521D01*
X194838329Y-115129521D01*
X194856751Y-115042386D01*
X195281016Y-113036364D01*
X196255173Y-113036363D01*
X196706456Y-113040450D01*
X196706456Y-113040450D01*
G37*
X196706456Y-113040450D02*
X197060729Y-113054996D01*
X197336220Y-113083430D01*
X197551159Y-113129181D01*
X197723775Y-113195678D01*
X197872297Y-113286350D01*
X197961593Y-113357336D01*
X198168797Y-113607205D01*
X198284479Y-113914727D01*
X198306651Y-114264660D01*
X198233320Y-114641763D01*
X198155881Y-114845572D01*
X197971061Y-115168054D01*
X197727967Y-115423638D01*
X197417184Y-115616608D01*
X197029298Y-115751251D01*
X196554894Y-115831853D01*
X195984558Y-115862698D01*
X195920410Y-115863217D01*
X195512865Y-115865000D01*
X195369307Y-116572159D01*
X195225748Y-117279318D01*
X194802679Y-117296425D01*
X194586104Y-117303522D01*
X194461873Y-117298483D01*
X194407005Y-117274621D01*
X194398516Y-117225243D01*
X194406048Y-117180970D01*
X194423863Y-117094979D01*
X194462673Y-116909863D01*
X194519564Y-116639453D01*
X194591620Y-116297576D01*
X194675929Y-115898062D01*
X194769575Y-115454737D01*
X194838329Y-115129521D01*
X195674363Y-115129521D01*
X195698399Y-115159425D01*
X195773685Y-115172691D01*
X195919724Y-115171913D01*
X196156020Y-115159687D01*
X196240116Y-115154620D01*
X196591009Y-115123695D01*
X196840703Y-115078739D01*
X197002877Y-115017270D01*
X197005757Y-115015600D01*
X197251126Y-114810192D01*
X197409090Y-114541292D01*
X197444819Y-114417350D01*
X197470800Y-114171830D01*
X197426621Y-113987586D01*
X197303436Y-113857999D01*
X197092397Y-113776450D01*
X196784657Y-113736319D01*
X196525204Y-113729307D01*
X195972000Y-113729091D01*
X195842815Y-114349659D01*
X195787086Y-114613702D01*
X195737105Y-114843893D01*
X195699161Y-115011644D01*
X195682071Y-115080384D01*
X195674363Y-115129521D01*
X194838329Y-115129521D01*
X194856751Y-115042386D01*
X195281016Y-113036364D01*
X196255173Y-113036363D01*
X196706456Y-113040450D01*
G36*
X203000038Y-114701969D02*
X203305773Y-114561998D01*
X203541883Y-114476487D01*
X203816672Y-114408589D01*
X203977067Y-114383820D01*
X204173900Y-114366009D01*
X204278873Y-114367786D01*
X204314564Y-114393480D01*
X204303915Y-114446488D01*
X204269134Y-114569830D01*
X204234510Y-114740251D01*
X204230242Y-114766012D01*
X204205455Y-114890170D01*
X204161399Y-114959283D01*
X204067260Y-114995287D01*
X203892223Y-115020118D01*
X203869571Y-115022774D01*
X203530840Y-115094512D01*
X203226079Y-115218880D01*
X202991449Y-115380269D01*
X202953809Y-115418124D01*
X202889850Y-115525910D01*
X202820753Y-115719543D01*
X202743613Y-116008615D01*
X202655590Y-116402400D01*
X202593131Y-116701166D01*
X202540109Y-116957836D01*
X202500648Y-117152195D01*
X202478874Y-117264032D01*
X202475909Y-117282741D01*
X202423055Y-117295281D01*
X202283965Y-117304368D01*
X202087846Y-117308162D01*
X202071818Y-117308182D01*
X201831372Y-117299600D01*
X201699296Y-117273185D01*
X201667727Y-117238692D01*
X201679312Y-117165045D01*
X201711881Y-116994695D01*
X201762160Y-116743817D01*
X201826872Y-116428587D01*
X201902741Y-116065178D01*
X201965864Y-115766647D01*
X202264000Y-114364091D01*
X203067614Y-114364091D01*
X203000038Y-114701969D01*
X203000038Y-114701969D01*
G37*
X203000038Y-114701969D02*
X203305773Y-114561998D01*
X203541883Y-114476487D01*
X203816672Y-114408589D01*
X203977067Y-114383820D01*
X204173900Y-114366009D01*
X204278873Y-114367786D01*
X204314564Y-114393480D01*
X204303915Y-114446488D01*
X204269134Y-114569830D01*
X204234510Y-114740251D01*
X204230242Y-114766012D01*
X204205455Y-114890170D01*
X204161399Y-114959283D01*
X204067260Y-114995287D01*
X203892223Y-115020118D01*
X203869571Y-115022774D01*
X203530840Y-115094512D01*
X203226079Y-115218880D01*
X202991449Y-115380269D01*
X202953809Y-115418124D01*
X202889850Y-115525910D01*
X202820753Y-115719543D01*
X202743613Y-116008615D01*
X202655590Y-116402400D01*
X202593131Y-116701166D01*
X202540109Y-116957836D01*
X202500648Y-117152195D01*
X202478874Y-117264032D01*
X202475909Y-117282741D01*
X202423055Y-117295281D01*
X202283965Y-117304368D01*
X202087846Y-117308162D01*
X202071818Y-117308182D01*
X201831372Y-117299600D01*
X201699296Y-117273185D01*
X201667727Y-117238692D01*
X201679312Y-117165045D01*
X201711881Y-116994695D01*
X201762160Y-116743817D01*
X201826872Y-116428587D01*
X201902741Y-116065178D01*
X201965864Y-115766647D01*
X202264000Y-114364091D01*
X203067614Y-114364091D01*
X203000038Y-114701969D01*
G36*
X186268503Y-113053077D02*
X186355568Y-113108224D01*
X186406618Y-113209457D01*
X186423735Y-113370716D01*
X186407082Y-113541724D01*
X186356821Y-113672202D01*
X186353732Y-113676366D01*
X186194791Y-113812789D01*
X185996735Y-113887294D01*
X185796737Y-113893949D01*
X185631973Y-113826823D01*
X185599629Y-113796704D01*
X185507081Y-113626257D01*
X185508591Y-113448656D01*
X185585343Y-113281037D01*
X185718525Y-113140534D01*
X185889321Y-113044283D01*
X186078919Y-113009419D01*
X186268503Y-113053077D01*
X186268503Y-113053077D01*
G37*
X186268503Y-113053077D02*
X186355568Y-113108224D01*
X186406618Y-113209457D01*
X186423735Y-113370716D01*
X186407082Y-113541724D01*
X186356821Y-113672202D01*
X186353732Y-113676366D01*
X186194791Y-113812789D01*
X185996735Y-113887294D01*
X185796737Y-113893949D01*
X185631973Y-113826823D01*
X185599629Y-113796704D01*
X185507081Y-113626257D01*
X185508591Y-113448656D01*
X185585343Y-113281037D01*
X185718525Y-113140534D01*
X185889321Y-113044283D01*
X186078919Y-113009419D01*
X186268503Y-113053077D01*
G04 #@! TD*
D11*
G04 #@! TO.C,REF\002A\002A*
G36*
X168386850Y-21052793D02*
X168443152Y-21061145D01*
X168498365Y-21074975D01*
X168551956Y-21094150D01*
X168603410Y-21118486D01*
X168652231Y-21147748D01*
X168697948Y-21181654D01*
X168740122Y-21219878D01*
X168778346Y-21262052D01*
X168812252Y-21307769D01*
X168841514Y-21356590D01*
X168865850Y-21408044D01*
X168885025Y-21461635D01*
X168898855Y-21516848D01*
X168907207Y-21573150D01*
X168910000Y-21630000D01*
X168910000Y-25370000D01*
X168907207Y-25426850D01*
X168898855Y-25483152D01*
X168885025Y-25538365D01*
X168865850Y-25591956D01*
X168841514Y-25643410D01*
X168812252Y-25692231D01*
X168778346Y-25737948D01*
X168740122Y-25780122D01*
X168697948Y-25818346D01*
X168652231Y-25852252D01*
X168603410Y-25881514D01*
X168551956Y-25905850D01*
X168498365Y-25925025D01*
X168443152Y-25938855D01*
X168386850Y-25947207D01*
X168330000Y-25950000D01*
X166590000Y-25950000D01*
X166533150Y-25947207D01*
X166476848Y-25938855D01*
X166421635Y-25925025D01*
X166368044Y-25905850D01*
X166316590Y-25881514D01*
X166267769Y-25852252D01*
X166222052Y-25818346D01*
X166179878Y-25780122D01*
X166141654Y-25737948D01*
X166107748Y-25692231D01*
X166078486Y-25643410D01*
X166054150Y-25591956D01*
X166034975Y-25538365D01*
X166021145Y-25483152D01*
X166012793Y-25426850D01*
X166010000Y-25370000D01*
X166010000Y-21630000D01*
X166012793Y-21573150D01*
X166021145Y-21516848D01*
X166034975Y-21461635D01*
X166054150Y-21408044D01*
X166078486Y-21356590D01*
X166107748Y-21307769D01*
X166141654Y-21262052D01*
X166179878Y-21219878D01*
X166222052Y-21181654D01*
X166267769Y-21147748D01*
X166316590Y-21118486D01*
X166368044Y-21094150D01*
X166421635Y-21074975D01*
X166476848Y-21061145D01*
X166533150Y-21052793D01*
X166590000Y-21050000D01*
X168330000Y-21050000D01*
X168386850Y-21052793D01*
X168386850Y-21052793D01*
G37*
D12*
X167460000Y-23500000D03*
D11*
G36*
X173466850Y-21052793D02*
X173523152Y-21061145D01*
X173578365Y-21074975D01*
X173631956Y-21094150D01*
X173683410Y-21118486D01*
X173732231Y-21147748D01*
X173777948Y-21181654D01*
X173820122Y-21219878D01*
X173858346Y-21262052D01*
X173892252Y-21307769D01*
X173921514Y-21356590D01*
X173945850Y-21408044D01*
X173965025Y-21461635D01*
X173978855Y-21516848D01*
X173987207Y-21573150D01*
X173990000Y-21630000D01*
X173990000Y-25370000D01*
X173987207Y-25426850D01*
X173978855Y-25483152D01*
X173965025Y-25538365D01*
X173945850Y-25591956D01*
X173921514Y-25643410D01*
X173892252Y-25692231D01*
X173858346Y-25737948D01*
X173820122Y-25780122D01*
X173777948Y-25818346D01*
X173732231Y-25852252D01*
X173683410Y-25881514D01*
X173631956Y-25905850D01*
X173578365Y-25925025D01*
X173523152Y-25938855D01*
X173466850Y-25947207D01*
X173410000Y-25950000D01*
X171670000Y-25950000D01*
X171613150Y-25947207D01*
X171556848Y-25938855D01*
X171501635Y-25925025D01*
X171448044Y-25905850D01*
X171396590Y-25881514D01*
X171347769Y-25852252D01*
X171302052Y-25818346D01*
X171259878Y-25780122D01*
X171221654Y-25737948D01*
X171187748Y-25692231D01*
X171158486Y-25643410D01*
X171134150Y-25591956D01*
X171114975Y-25538365D01*
X171101145Y-25483152D01*
X171092793Y-25426850D01*
X171090000Y-25370000D01*
X171090000Y-21630000D01*
X171092793Y-21573150D01*
X171101145Y-21516848D01*
X171114975Y-21461635D01*
X171134150Y-21408044D01*
X171158486Y-21356590D01*
X171187748Y-21307769D01*
X171221654Y-21262052D01*
X171259878Y-21219878D01*
X171302052Y-21181654D01*
X171347769Y-21147748D01*
X171396590Y-21118486D01*
X171448044Y-21094150D01*
X171501635Y-21074975D01*
X171556848Y-21061145D01*
X171613150Y-21052793D01*
X171670000Y-21050000D01*
X173410000Y-21050000D01*
X173466850Y-21052793D01*
X173466850Y-21052793D01*
G37*
D12*
X172540000Y-23500000D03*
G04 #@! TD*
D13*
G04 #@! TO.C,REF\002A\002A*
X206830000Y-30630000D03*
X199210000Y-30630000D03*
X196670000Y-30630000D03*
X204290000Y-30630000D03*
X201750000Y-30630000D03*
X206830000Y-33170000D03*
X199210000Y-33170000D03*
X196670000Y-33170000D03*
X204290000Y-33170000D03*
X201750000Y-33170000D03*
X206830000Y-109370000D03*
X199210000Y-109370000D03*
X196670000Y-109370000D03*
X204290000Y-109370000D03*
X201750000Y-109370000D03*
X206830000Y-106830000D03*
X199210000Y-106830000D03*
X196670000Y-106830000D03*
X204290000Y-106830000D03*
X201750000Y-106830000D03*
X206830000Y-94130000D03*
X201750000Y-101750000D03*
X199210000Y-101750000D03*
X206830000Y-83970000D03*
X199210000Y-83970000D03*
X196670000Y-83970000D03*
X199210000Y-94130000D03*
X196670000Y-94130000D03*
X204290000Y-94130000D03*
X201750000Y-94130000D03*
X196670000Y-101750000D03*
X204290000Y-101750000D03*
X206830000Y-101750000D03*
X206830000Y-73810000D03*
X199210000Y-73810000D03*
X196670000Y-73810000D03*
X204290000Y-73810000D03*
X201750000Y-73810000D03*
X206830000Y-71270000D03*
X199210000Y-71270000D03*
X196670000Y-71270000D03*
X204290000Y-71270000D03*
X201750000Y-71270000D03*
X204290000Y-83970000D03*
X206830000Y-81430000D03*
X199210000Y-81430000D03*
X196670000Y-81430000D03*
X204290000Y-81430000D03*
X201750000Y-104290000D03*
X204290000Y-104290000D03*
X196670000Y-104290000D03*
X199210000Y-104290000D03*
X201750000Y-81430000D03*
X206830000Y-76350000D03*
X206830000Y-78890000D03*
X199210000Y-78890000D03*
X196670000Y-78890000D03*
X204290000Y-78890000D03*
X201750000Y-78890000D03*
X206830000Y-91590000D03*
X199210000Y-96670000D03*
X206830000Y-99210000D03*
X199210000Y-99210000D03*
X196670000Y-99210000D03*
X204290000Y-99210000D03*
X201750000Y-99210000D03*
X199210000Y-76350000D03*
X196670000Y-76350000D03*
X204290000Y-76350000D03*
X201750000Y-76350000D03*
X206830000Y-89050000D03*
X199210000Y-89050000D03*
X196670000Y-89050000D03*
X204290000Y-89050000D03*
X201750000Y-89050000D03*
X206830000Y-86510000D03*
X199210000Y-86510000D03*
X196670000Y-86510000D03*
X204290000Y-86510000D03*
X201750000Y-86510000D03*
X206830000Y-96670000D03*
X196670000Y-96670000D03*
X204290000Y-96670000D03*
X201750000Y-96670000D03*
X199210000Y-91590000D03*
X196670000Y-91590000D03*
X204290000Y-91590000D03*
X201750000Y-91590000D03*
X206830000Y-104290000D03*
X201750000Y-83970000D03*
X201750000Y-35710000D03*
X204290000Y-35710000D03*
X196670000Y-35710000D03*
X199210000Y-35710000D03*
X206830000Y-35710000D03*
X201750000Y-38250000D03*
X204290000Y-38250000D03*
X196670000Y-38250000D03*
X199210000Y-38250000D03*
X206830000Y-38250000D03*
X201750000Y-40790000D03*
X204290000Y-40790000D03*
X196670000Y-40790000D03*
X199210000Y-40790000D03*
X206830000Y-40790000D03*
X201750000Y-43330000D03*
X204290000Y-43330000D03*
X196670000Y-43330000D03*
X199210000Y-43330000D03*
X206830000Y-43330000D03*
X201750000Y-45870000D03*
X204290000Y-45870000D03*
X196670000Y-45870000D03*
X199210000Y-45870000D03*
X206830000Y-45870000D03*
X201750000Y-48410000D03*
X204290000Y-48410000D03*
X196670000Y-48410000D03*
X199210000Y-48410000D03*
X206830000Y-48410000D03*
X201750000Y-50950000D03*
X204290000Y-50950000D03*
X196670000Y-50950000D03*
X199210000Y-50950000D03*
X206830000Y-50950000D03*
X201750000Y-53490000D03*
X204290000Y-53490000D03*
X196670000Y-53490000D03*
X199210000Y-53490000D03*
X206830000Y-53490000D03*
X201750000Y-56030000D03*
X204290000Y-56030000D03*
X196670000Y-56030000D03*
X199210000Y-56030000D03*
X206830000Y-56030000D03*
X201750000Y-58570000D03*
X204290000Y-58570000D03*
X196670000Y-58570000D03*
X199210000Y-58570000D03*
X206830000Y-58570000D03*
X201750000Y-61110000D03*
X204290000Y-61110000D03*
X196670000Y-61110000D03*
X199210000Y-61110000D03*
X206830000Y-61110000D03*
X201750000Y-63650000D03*
X204290000Y-63650000D03*
X196670000Y-63650000D03*
X199210000Y-63650000D03*
X206830000Y-63650000D03*
X201750000Y-66190000D03*
X204290000Y-66190000D03*
X196670000Y-66190000D03*
X199210000Y-66190000D03*
X206830000Y-66190000D03*
X206830000Y-68730000D03*
X204290000Y-68730000D03*
X196670000Y-68730000D03*
X199210000Y-68730000D03*
X201750000Y-68730000D03*
G04 #@! TD*
D14*
G04 #@! TO.C,REF\002A\002A*
X125000000Y-115000000D03*
D15*
X127400000Y-115000000D03*
X126697056Y-116697056D03*
X125000000Y-117400000D03*
X123302944Y-116697056D03*
X122600000Y-115000000D03*
X123302944Y-113302944D03*
X125000000Y-112600000D03*
X126697056Y-113302944D03*
G04 #@! TD*
D14*
G04 #@! TO.C,REF\002A\002A*
X215000000Y-115000000D03*
D15*
X217400000Y-115000000D03*
X216697056Y-116697056D03*
X215000000Y-117400000D03*
X213302944Y-116697056D03*
X212600000Y-115000000D03*
X213302944Y-113302944D03*
X215000000Y-112600000D03*
X216697056Y-113302944D03*
G04 #@! TD*
D14*
G04 #@! TO.C,REF\002A\002A*
X215000000Y-25000000D03*
D15*
X217400000Y-25000000D03*
X216697056Y-26697056D03*
X215000000Y-27400000D03*
X213302944Y-26697056D03*
X212600000Y-25000000D03*
X213302944Y-23302944D03*
X215000000Y-22600000D03*
X216697056Y-23302944D03*
G04 #@! TD*
D14*
G04 #@! TO.C,REF\002A\002A*
X125000000Y-25000000D03*
D15*
X127400000Y-25000000D03*
X126697056Y-26697056D03*
X125000000Y-27400000D03*
X123302944Y-26697056D03*
X122600000Y-25000000D03*
X123302944Y-23302944D03*
X125000000Y-22600000D03*
X126697056Y-23302944D03*
G04 #@! TD*
D13*
G04 #@! TO.C,REF\002A\002A*
X171270000Y-73810000D03*
X171270000Y-76350000D03*
X171270000Y-83970000D03*
X171270000Y-91590000D03*
X171270000Y-71270000D03*
X171270000Y-86510000D03*
X171270000Y-89050000D03*
X171270000Y-81430000D03*
X171270000Y-96670000D03*
X171270000Y-99210000D03*
X171270000Y-101750000D03*
X171270000Y-104290000D03*
X171270000Y-106830000D03*
X171270000Y-94130000D03*
X171270000Y-111910000D03*
X171270000Y-109370000D03*
X171270000Y-78890000D03*
X168730000Y-73810000D03*
X168730000Y-76350000D03*
X168730000Y-83970000D03*
X168730000Y-91590000D03*
X168730000Y-71270000D03*
X168730000Y-86510000D03*
X168730000Y-89050000D03*
X168730000Y-81430000D03*
X168730000Y-96670000D03*
X168730000Y-99210000D03*
X168730000Y-101750000D03*
X168730000Y-104290000D03*
X168730000Y-106830000D03*
X168730000Y-94130000D03*
X168730000Y-111910000D03*
X168730000Y-109370000D03*
X168730000Y-78890000D03*
X168730000Y-68730000D03*
X168730000Y-50950000D03*
X168730000Y-63650000D03*
X168730000Y-61110000D03*
X168730000Y-58570000D03*
X168730000Y-56030000D03*
X168730000Y-53490000D03*
X168730000Y-38250000D03*
X168730000Y-30630000D03*
X168730000Y-28090000D03*
X168730000Y-66190000D03*
X168730000Y-40790000D03*
X168730000Y-45870000D03*
X168730000Y-43330000D03*
X168730000Y-35710000D03*
X168730000Y-48410000D03*
X168730000Y-33170000D03*
X171270000Y-28090000D03*
X171270000Y-30630000D03*
X171270000Y-33170000D03*
X171270000Y-35710000D03*
X171270000Y-38250000D03*
X171270000Y-40790000D03*
X171270000Y-43330000D03*
X171270000Y-45870000D03*
X171270000Y-48410000D03*
X171270000Y-50950000D03*
X171270000Y-53490000D03*
X171270000Y-56030000D03*
X171270000Y-58570000D03*
X171270000Y-61110000D03*
X171270000Y-63650000D03*
X171270000Y-66190000D03*
X171270000Y-68730000D03*
G04 #@! TD*
G04 #@! TO.C,REF\002A\002A*
X161110000Y-30630000D03*
X153490000Y-30630000D03*
X150950000Y-30630000D03*
X158570000Y-30630000D03*
X156030000Y-30630000D03*
X161110000Y-33170000D03*
X153490000Y-33170000D03*
X150950000Y-33170000D03*
X158570000Y-33170000D03*
X156030000Y-33170000D03*
X161110000Y-109370000D03*
X153490000Y-109370000D03*
X150950000Y-109370000D03*
X158570000Y-109370000D03*
X156030000Y-109370000D03*
X161110000Y-106830000D03*
X153490000Y-106830000D03*
X150950000Y-106830000D03*
X158570000Y-106830000D03*
X156030000Y-106830000D03*
X161110000Y-94130000D03*
X156030000Y-101750000D03*
X153490000Y-101750000D03*
X161110000Y-83970000D03*
X153490000Y-83970000D03*
X150950000Y-83970000D03*
X153490000Y-94130000D03*
X150950000Y-94130000D03*
X158570000Y-94130000D03*
X156030000Y-94130000D03*
X150950000Y-101750000D03*
X158570000Y-101750000D03*
X161110000Y-101750000D03*
X161110000Y-73810000D03*
X153490000Y-73810000D03*
X150950000Y-73810000D03*
X158570000Y-73810000D03*
X156030000Y-73810000D03*
X161110000Y-71270000D03*
X153490000Y-71270000D03*
X150950000Y-71270000D03*
X158570000Y-71270000D03*
X156030000Y-71270000D03*
X158570000Y-83970000D03*
X161110000Y-81430000D03*
X153490000Y-81430000D03*
X150950000Y-81430000D03*
X158570000Y-81430000D03*
X156030000Y-104290000D03*
X158570000Y-104290000D03*
X150950000Y-104290000D03*
X153490000Y-104290000D03*
X156030000Y-81430000D03*
X161110000Y-76350000D03*
X161110000Y-78890000D03*
X153490000Y-78890000D03*
X150950000Y-78890000D03*
X158570000Y-78890000D03*
X156030000Y-78890000D03*
X161110000Y-91590000D03*
X153490000Y-96670000D03*
X161110000Y-99210000D03*
X153490000Y-99210000D03*
X150950000Y-99210000D03*
X158570000Y-99210000D03*
X156030000Y-99210000D03*
X153490000Y-76350000D03*
X150950000Y-76350000D03*
X158570000Y-76350000D03*
X156030000Y-76350000D03*
X161110000Y-89050000D03*
X153490000Y-89050000D03*
X150950000Y-89050000D03*
X158570000Y-89050000D03*
X156030000Y-89050000D03*
X161110000Y-86510000D03*
X153490000Y-86510000D03*
X150950000Y-86510000D03*
X158570000Y-86510000D03*
X156030000Y-86510000D03*
X161110000Y-96670000D03*
X150950000Y-96670000D03*
X158570000Y-96670000D03*
X156030000Y-96670000D03*
X153490000Y-91590000D03*
X150950000Y-91590000D03*
X158570000Y-91590000D03*
X156030000Y-91590000D03*
X161110000Y-104290000D03*
X156030000Y-83970000D03*
X156030000Y-35710000D03*
X158570000Y-35710000D03*
X150950000Y-35710000D03*
X153490000Y-35710000D03*
X161110000Y-35710000D03*
X156030000Y-38250000D03*
X158570000Y-38250000D03*
X150950000Y-38250000D03*
X153490000Y-38250000D03*
X161110000Y-38250000D03*
X156030000Y-40790000D03*
X158570000Y-40790000D03*
X150950000Y-40790000D03*
X153490000Y-40790000D03*
X161110000Y-40790000D03*
X156030000Y-43330000D03*
X158570000Y-43330000D03*
X150950000Y-43330000D03*
X153490000Y-43330000D03*
X161110000Y-43330000D03*
X156030000Y-45870000D03*
X158570000Y-45870000D03*
X150950000Y-45870000D03*
X153490000Y-45870000D03*
X161110000Y-45870000D03*
X156030000Y-48410000D03*
X158570000Y-48410000D03*
X150950000Y-48410000D03*
X153490000Y-48410000D03*
X161110000Y-48410000D03*
X156030000Y-50950000D03*
X158570000Y-50950000D03*
X150950000Y-50950000D03*
X153490000Y-50950000D03*
X161110000Y-50950000D03*
X156030000Y-53490000D03*
X158570000Y-53490000D03*
X150950000Y-53490000D03*
X153490000Y-53490000D03*
X161110000Y-53490000D03*
X156030000Y-56030000D03*
X158570000Y-56030000D03*
X150950000Y-56030000D03*
X153490000Y-56030000D03*
X161110000Y-56030000D03*
X156030000Y-58570000D03*
X158570000Y-58570000D03*
X150950000Y-58570000D03*
X153490000Y-58570000D03*
X161110000Y-58570000D03*
X156030000Y-61110000D03*
X158570000Y-61110000D03*
X150950000Y-61110000D03*
X153490000Y-61110000D03*
X161110000Y-61110000D03*
X156030000Y-63650000D03*
X158570000Y-63650000D03*
X150950000Y-63650000D03*
X153490000Y-63650000D03*
X161110000Y-63650000D03*
X156030000Y-66190000D03*
X158570000Y-66190000D03*
X150950000Y-66190000D03*
X153490000Y-66190000D03*
X161110000Y-66190000D03*
X161110000Y-68730000D03*
X158570000Y-68730000D03*
X150950000Y-68730000D03*
X153490000Y-68730000D03*
X156030000Y-68730000D03*
G04 #@! TD*
G04 #@! TO.C,REF\002A\002A*
X186510000Y-30630000D03*
X178890000Y-30630000D03*
X176350000Y-30630000D03*
X183970000Y-30630000D03*
X181430000Y-30630000D03*
X186510000Y-33170000D03*
X178890000Y-33170000D03*
X176350000Y-33170000D03*
X183970000Y-33170000D03*
X181430000Y-33170000D03*
X186510000Y-109370000D03*
X178890000Y-109370000D03*
X176350000Y-109370000D03*
X183970000Y-109370000D03*
X181430000Y-109370000D03*
X186510000Y-106830000D03*
X178890000Y-106830000D03*
X176350000Y-106830000D03*
X183970000Y-106830000D03*
X181430000Y-106830000D03*
X186510000Y-94130000D03*
X181430000Y-101750000D03*
X178890000Y-101750000D03*
X186510000Y-83970000D03*
X178890000Y-83970000D03*
X176350000Y-83970000D03*
X178890000Y-94130000D03*
X176350000Y-94130000D03*
X183970000Y-94130000D03*
X181430000Y-94130000D03*
X176350000Y-101750000D03*
X183970000Y-101750000D03*
X186510000Y-101750000D03*
X186510000Y-73810000D03*
X178890000Y-73810000D03*
X176350000Y-73810000D03*
X183970000Y-73810000D03*
X181430000Y-73810000D03*
X186510000Y-71270000D03*
X178890000Y-71270000D03*
X176350000Y-71270000D03*
X183970000Y-71270000D03*
X181430000Y-71270000D03*
X183970000Y-83970000D03*
X186510000Y-81430000D03*
X178890000Y-81430000D03*
X176350000Y-81430000D03*
X183970000Y-81430000D03*
X181430000Y-104290000D03*
X183970000Y-104290000D03*
X176350000Y-104290000D03*
X178890000Y-104290000D03*
X181430000Y-81430000D03*
X186510000Y-76350000D03*
X186510000Y-78890000D03*
X178890000Y-78890000D03*
X176350000Y-78890000D03*
X183970000Y-78890000D03*
X181430000Y-78890000D03*
X186510000Y-91590000D03*
X178890000Y-96670000D03*
X186510000Y-99210000D03*
X178890000Y-99210000D03*
X176350000Y-99210000D03*
X183970000Y-99210000D03*
X181430000Y-99210000D03*
X178890000Y-76350000D03*
X176350000Y-76350000D03*
X183970000Y-76350000D03*
X181430000Y-76350000D03*
X186510000Y-89050000D03*
X178890000Y-89050000D03*
X176350000Y-89050000D03*
X183970000Y-89050000D03*
X181430000Y-89050000D03*
X186510000Y-86510000D03*
X178890000Y-86510000D03*
X176350000Y-86510000D03*
X183970000Y-86510000D03*
X181430000Y-86510000D03*
X186510000Y-96670000D03*
X176350000Y-96670000D03*
X183970000Y-96670000D03*
X181430000Y-96670000D03*
X178890000Y-91590000D03*
X176350000Y-91590000D03*
X183970000Y-91590000D03*
X181430000Y-91590000D03*
X186510000Y-104290000D03*
X181430000Y-83970000D03*
X181430000Y-35710000D03*
X183970000Y-35710000D03*
X176350000Y-35710000D03*
X178890000Y-35710000D03*
X186510000Y-35710000D03*
X181430000Y-38250000D03*
X183970000Y-38250000D03*
X176350000Y-38250000D03*
X178890000Y-38250000D03*
X186510000Y-38250000D03*
X181430000Y-40790000D03*
X183970000Y-40790000D03*
X176350000Y-40790000D03*
X178890000Y-40790000D03*
X186510000Y-40790000D03*
X181430000Y-43330000D03*
X183970000Y-43330000D03*
X176350000Y-43330000D03*
X178890000Y-43330000D03*
X186510000Y-43330000D03*
X181430000Y-45870000D03*
X183970000Y-45870000D03*
X176350000Y-45870000D03*
X178890000Y-45870000D03*
X186510000Y-45870000D03*
X181430000Y-48410000D03*
X183970000Y-48410000D03*
X176350000Y-48410000D03*
X178890000Y-48410000D03*
X186510000Y-48410000D03*
X181430000Y-50950000D03*
X183970000Y-50950000D03*
X176350000Y-50950000D03*
X178890000Y-50950000D03*
X186510000Y-50950000D03*
X181430000Y-53490000D03*
X183970000Y-53490000D03*
X176350000Y-53490000D03*
X178890000Y-53490000D03*
X186510000Y-53490000D03*
X181430000Y-56030000D03*
X183970000Y-56030000D03*
X176350000Y-56030000D03*
X178890000Y-56030000D03*
X186510000Y-56030000D03*
X181430000Y-58570000D03*
X183970000Y-58570000D03*
X176350000Y-58570000D03*
X178890000Y-58570000D03*
X186510000Y-58570000D03*
X181430000Y-61110000D03*
X183970000Y-61110000D03*
X176350000Y-61110000D03*
X178890000Y-61110000D03*
X186510000Y-61110000D03*
X181430000Y-63650000D03*
X183970000Y-63650000D03*
X176350000Y-63650000D03*
X178890000Y-63650000D03*
X186510000Y-63650000D03*
X181430000Y-66190000D03*
X183970000Y-66190000D03*
X176350000Y-66190000D03*
X178890000Y-66190000D03*
X186510000Y-66190000D03*
X186510000Y-68730000D03*
X183970000Y-68730000D03*
X176350000Y-68730000D03*
X178890000Y-68730000D03*
X181430000Y-68730000D03*
G04 #@! TD*
G04 #@! TO.C,REF\002A\002A*
X143330000Y-30630000D03*
X135710000Y-30630000D03*
X133170000Y-30630000D03*
X140790000Y-30630000D03*
X138250000Y-30630000D03*
X143330000Y-33170000D03*
X135710000Y-33170000D03*
X133170000Y-33170000D03*
X140790000Y-33170000D03*
X138250000Y-33170000D03*
X143330000Y-109370000D03*
X135710000Y-109370000D03*
X133170000Y-109370000D03*
X140790000Y-109370000D03*
X138250000Y-109370000D03*
X143330000Y-106830000D03*
X135710000Y-106830000D03*
X133170000Y-106830000D03*
X140790000Y-106830000D03*
X138250000Y-106830000D03*
X143330000Y-94130000D03*
X138250000Y-101750000D03*
X135710000Y-101750000D03*
X143330000Y-83970000D03*
X135710000Y-83970000D03*
X133170000Y-83970000D03*
X135710000Y-94130000D03*
X133170000Y-94130000D03*
X140790000Y-94130000D03*
X138250000Y-94130000D03*
X133170000Y-101750000D03*
X140790000Y-101750000D03*
X143330000Y-101750000D03*
X143330000Y-73810000D03*
X135710000Y-73810000D03*
X133170000Y-73810000D03*
X140790000Y-73810000D03*
X138250000Y-73810000D03*
X143330000Y-71270000D03*
X135710000Y-71270000D03*
X133170000Y-71270000D03*
X140790000Y-71270000D03*
X138250000Y-71270000D03*
X140790000Y-83970000D03*
X143330000Y-81430000D03*
X135710000Y-81430000D03*
X133170000Y-81430000D03*
X140790000Y-81430000D03*
X138250000Y-104290000D03*
X140790000Y-104290000D03*
X133170000Y-104290000D03*
X135710000Y-104290000D03*
X138250000Y-81430000D03*
X143330000Y-76350000D03*
X143330000Y-78890000D03*
X135710000Y-78890000D03*
X133170000Y-78890000D03*
X140790000Y-78890000D03*
X138250000Y-78890000D03*
X143330000Y-91590000D03*
X135710000Y-96670000D03*
X143330000Y-99210000D03*
X135710000Y-99210000D03*
X133170000Y-99210000D03*
X140790000Y-99210000D03*
X138250000Y-99210000D03*
X135710000Y-76350000D03*
X133170000Y-76350000D03*
X140790000Y-76350000D03*
X138250000Y-76350000D03*
X143330000Y-89050000D03*
X135710000Y-89050000D03*
X133170000Y-89050000D03*
X140790000Y-89050000D03*
X138250000Y-89050000D03*
X143330000Y-86510000D03*
X135710000Y-86510000D03*
X133170000Y-86510000D03*
X140790000Y-86510000D03*
X138250000Y-86510000D03*
X143330000Y-96670000D03*
X133170000Y-96670000D03*
X140790000Y-96670000D03*
X138250000Y-96670000D03*
X135710000Y-91590000D03*
X133170000Y-91590000D03*
X140790000Y-91590000D03*
X138250000Y-91590000D03*
X143330000Y-104290000D03*
X138250000Y-83970000D03*
X138250000Y-35710000D03*
X140790000Y-35710000D03*
X133170000Y-35710000D03*
X135710000Y-35710000D03*
X143330000Y-35710000D03*
X138250000Y-38250000D03*
X140790000Y-38250000D03*
X133170000Y-38250000D03*
X135710000Y-38250000D03*
X143330000Y-38250000D03*
X138250000Y-40790000D03*
X140790000Y-40790000D03*
X133170000Y-40790000D03*
X135710000Y-40790000D03*
X143330000Y-40790000D03*
X138250000Y-43330000D03*
X140790000Y-43330000D03*
X133170000Y-43330000D03*
X135710000Y-43330000D03*
X143330000Y-43330000D03*
X138250000Y-45870000D03*
X140790000Y-45870000D03*
X133170000Y-45870000D03*
X135710000Y-45870000D03*
X143330000Y-45870000D03*
X138250000Y-48410000D03*
X140790000Y-48410000D03*
X133170000Y-48410000D03*
X135710000Y-48410000D03*
X143330000Y-48410000D03*
X138250000Y-50950000D03*
X140790000Y-50950000D03*
X133170000Y-50950000D03*
X135710000Y-50950000D03*
X143330000Y-50950000D03*
X138250000Y-53490000D03*
X140790000Y-53490000D03*
X133170000Y-53490000D03*
X135710000Y-53490000D03*
X143330000Y-53490000D03*
X138250000Y-56030000D03*
X140790000Y-56030000D03*
X133170000Y-56030000D03*
X135710000Y-56030000D03*
X143330000Y-56030000D03*
X138250000Y-58570000D03*
X140790000Y-58570000D03*
X133170000Y-58570000D03*
X135710000Y-58570000D03*
X143330000Y-58570000D03*
X138250000Y-61110000D03*
X140790000Y-61110000D03*
X133170000Y-61110000D03*
X135710000Y-61110000D03*
X143330000Y-61110000D03*
X138250000Y-63650000D03*
X140790000Y-63650000D03*
X133170000Y-63650000D03*
X135710000Y-63650000D03*
X143330000Y-63650000D03*
X138250000Y-66190000D03*
X140790000Y-66190000D03*
X133170000Y-66190000D03*
X135710000Y-66190000D03*
X143330000Y-66190000D03*
X143330000Y-68730000D03*
X140790000Y-68730000D03*
X133170000Y-68730000D03*
X135710000Y-68730000D03*
X138250000Y-68730000D03*
G04 #@! TD*
G04 #@! TO.C,REF\002A\002A*
X214450000Y-83970000D03*
X214450000Y-86510000D03*
X214450000Y-89050000D03*
X214450000Y-104290000D03*
X214450000Y-106830000D03*
X214450000Y-96670000D03*
X214450000Y-76350000D03*
X214450000Y-94130000D03*
X214450000Y-109370000D03*
X214450000Y-71270000D03*
X214450000Y-99210000D03*
X214450000Y-73810000D03*
X214450000Y-78890000D03*
X214450000Y-101750000D03*
X214450000Y-81430000D03*
X214450000Y-91590000D03*
X211910000Y-83970000D03*
X211910000Y-86510000D03*
X211910000Y-89050000D03*
X211910000Y-104290000D03*
X211910000Y-106830000D03*
X211910000Y-96670000D03*
X211910000Y-76350000D03*
X211910000Y-94130000D03*
X211910000Y-109370000D03*
X211910000Y-71270000D03*
X211910000Y-99210000D03*
X211910000Y-73810000D03*
X211910000Y-78890000D03*
X211910000Y-101750000D03*
X211910000Y-81430000D03*
X211910000Y-91590000D03*
X211910000Y-53490000D03*
X211910000Y-35710000D03*
X211910000Y-56030000D03*
X211910000Y-66190000D03*
X211910000Y-63650000D03*
X211910000Y-48410000D03*
X211910000Y-45870000D03*
X211910000Y-43330000D03*
X211910000Y-58570000D03*
X211910000Y-30630000D03*
X211910000Y-68730000D03*
X211910000Y-61110000D03*
X211910000Y-50950000D03*
X211910000Y-33170000D03*
X211910000Y-38250000D03*
X211910000Y-40790000D03*
X214450000Y-30630000D03*
X214450000Y-33170000D03*
X214450000Y-35710000D03*
X214450000Y-38250000D03*
X214450000Y-40790000D03*
X214450000Y-43330000D03*
X214450000Y-45870000D03*
X214450000Y-48410000D03*
X214450000Y-50950000D03*
X214450000Y-53490000D03*
X214450000Y-56030000D03*
X214450000Y-58570000D03*
X214450000Y-61110000D03*
X214450000Y-63650000D03*
X214450000Y-66190000D03*
X214450000Y-68730000D03*
G04 #@! TD*
G04 #@! TO.C,REF\002A\002A*
X128090000Y-83970000D03*
X128090000Y-86510000D03*
X128090000Y-89050000D03*
X128090000Y-104290000D03*
X128090000Y-106830000D03*
X128090000Y-96670000D03*
X128090000Y-76350000D03*
X128090000Y-94130000D03*
X128090000Y-109370000D03*
X128090000Y-71270000D03*
X128090000Y-99210000D03*
X128090000Y-73810000D03*
X128090000Y-78890000D03*
X128090000Y-101750000D03*
X128090000Y-81430000D03*
X128090000Y-91590000D03*
X125550000Y-83970000D03*
X125550000Y-86510000D03*
X125550000Y-89050000D03*
X125550000Y-104290000D03*
X125550000Y-106830000D03*
X125550000Y-96670000D03*
X125550000Y-76350000D03*
X125550000Y-94130000D03*
X125550000Y-109370000D03*
X125550000Y-71270000D03*
X125550000Y-99210000D03*
X125550000Y-73810000D03*
X125550000Y-78890000D03*
X125550000Y-101750000D03*
X125550000Y-81430000D03*
X125550000Y-91590000D03*
X125550000Y-53490000D03*
X125550000Y-35710000D03*
X125550000Y-56030000D03*
X125550000Y-66190000D03*
X125550000Y-63650000D03*
X125550000Y-48410000D03*
X125550000Y-45870000D03*
X125550000Y-43330000D03*
X125550000Y-58570000D03*
X125550000Y-30630000D03*
X125550000Y-68730000D03*
X125550000Y-61110000D03*
X125550000Y-50950000D03*
X125550000Y-33170000D03*
X125550000Y-38250000D03*
X125550000Y-40790000D03*
X128090000Y-30630000D03*
X128090000Y-33170000D03*
X128090000Y-35710000D03*
X128090000Y-38250000D03*
X128090000Y-40790000D03*
X128090000Y-43330000D03*
X128090000Y-45870000D03*
X128090000Y-48410000D03*
X128090000Y-50950000D03*
X128090000Y-53490000D03*
X128090000Y-56030000D03*
X128090000Y-58570000D03*
X128090000Y-61110000D03*
X128090000Y-63650000D03*
X128090000Y-66190000D03*
X128090000Y-68730000D03*
G04 #@! TD*
D11*
G04 #@! TO.C,REF\002A\002A*
G36*
X173466850Y-114052793D02*
X173523152Y-114061145D01*
X173578365Y-114074975D01*
X173631956Y-114094150D01*
X173683410Y-114118486D01*
X173732231Y-114147748D01*
X173777948Y-114181654D01*
X173820122Y-114219878D01*
X173858346Y-114262052D01*
X173892252Y-114307769D01*
X173921514Y-114356590D01*
X173945850Y-114408044D01*
X173965025Y-114461635D01*
X173978855Y-114516848D01*
X173987207Y-114573150D01*
X173990000Y-114630000D01*
X173990000Y-118370000D01*
X173987207Y-118426850D01*
X173978855Y-118483152D01*
X173965025Y-118538365D01*
X173945850Y-118591956D01*
X173921514Y-118643410D01*
X173892252Y-118692231D01*
X173858346Y-118737948D01*
X173820122Y-118780122D01*
X173777948Y-118818346D01*
X173732231Y-118852252D01*
X173683410Y-118881514D01*
X173631956Y-118905850D01*
X173578365Y-118925025D01*
X173523152Y-118938855D01*
X173466850Y-118947207D01*
X173410000Y-118950000D01*
X171670000Y-118950000D01*
X171613150Y-118947207D01*
X171556848Y-118938855D01*
X171501635Y-118925025D01*
X171448044Y-118905850D01*
X171396590Y-118881514D01*
X171347769Y-118852252D01*
X171302052Y-118818346D01*
X171259878Y-118780122D01*
X171221654Y-118737948D01*
X171187748Y-118692231D01*
X171158486Y-118643410D01*
X171134150Y-118591956D01*
X171114975Y-118538365D01*
X171101145Y-118483152D01*
X171092793Y-118426850D01*
X171090000Y-118370000D01*
X171090000Y-114630000D01*
X171092793Y-114573150D01*
X171101145Y-114516848D01*
X171114975Y-114461635D01*
X171134150Y-114408044D01*
X171158486Y-114356590D01*
X171187748Y-114307769D01*
X171221654Y-114262052D01*
X171259878Y-114219878D01*
X171302052Y-114181654D01*
X171347769Y-114147748D01*
X171396590Y-114118486D01*
X171448044Y-114094150D01*
X171501635Y-114074975D01*
X171556848Y-114061145D01*
X171613150Y-114052793D01*
X171670000Y-114050000D01*
X173410000Y-114050000D01*
X173466850Y-114052793D01*
X173466850Y-114052793D01*
G37*
D12*
X172540000Y-116500000D03*
D11*
G36*
X168386850Y-114052793D02*
X168443152Y-114061145D01*
X168498365Y-114074975D01*
X168551956Y-114094150D01*
X168603410Y-114118486D01*
X168652231Y-114147748D01*
X168697948Y-114181654D01*
X168740122Y-114219878D01*
X168778346Y-114262052D01*
X168812252Y-114307769D01*
X168841514Y-114356590D01*
X168865850Y-114408044D01*
X168885025Y-114461635D01*
X168898855Y-114516848D01*
X168907207Y-114573150D01*
X168910000Y-114630000D01*
X168910000Y-118370000D01*
X168907207Y-118426850D01*
X168898855Y-118483152D01*
X168885025Y-118538365D01*
X168865850Y-118591956D01*
X168841514Y-118643410D01*
X168812252Y-118692231D01*
X168778346Y-118737948D01*
X168740122Y-118780122D01*
X168697948Y-118818346D01*
X168652231Y-118852252D01*
X168603410Y-118881514D01*
X168551956Y-118905850D01*
X168498365Y-118925025D01*
X168443152Y-118938855D01*
X168386850Y-118947207D01*
X168330000Y-118950000D01*
X166590000Y-118950000D01*
X166533150Y-118947207D01*
X166476848Y-118938855D01*
X166421635Y-118925025D01*
X166368044Y-118905850D01*
X166316590Y-118881514D01*
X166267769Y-118852252D01*
X166222052Y-118818346D01*
X166179878Y-118780122D01*
X166141654Y-118737948D01*
X166107748Y-118692231D01*
X166078486Y-118643410D01*
X166054150Y-118591956D01*
X166034975Y-118538365D01*
X166021145Y-118483152D01*
X166012793Y-118426850D01*
X166010000Y-118370000D01*
X166010000Y-114630000D01*
X166012793Y-114573150D01*
X166021145Y-114516848D01*
X166034975Y-114461635D01*
X166054150Y-114408044D01*
X166078486Y-114356590D01*
X166107748Y-114307769D01*
X166141654Y-114262052D01*
X166179878Y-114219878D01*
X166222052Y-114181654D01*
X166267769Y-114147748D01*
X166316590Y-114118486D01*
X166368044Y-114094150D01*
X166421635Y-114074975D01*
X166476848Y-114061145D01*
X166533150Y-114052793D01*
X166590000Y-114050000D01*
X168330000Y-114050000D01*
X168386850Y-114052793D01*
X168386850Y-114052793D01*
G37*
D12*
X167460000Y-116500000D03*
G04 #@! TD*
M02*
